<svg width="217" height="246" viewBox="0 0 217 246" fill="none" xmlns="http://www.w3.org/2000/svg">
<g id="encarar">
<g id="luz" filter="url(#filter0_f_388_460)">
<ellipse cx="108.358" cy="128.364" rx="31.6879" ry="51.5241" transform="rotate(31.8002 108.358 128.364)" fill="#49D13A" fill-opacity="0.4"/>
</g>
<g id="espada">
<path id="path210" fill-rule="evenodd" clip-rule="evenodd" d="M80.5385 118.344C85.6727 123.512 94.913 132.752 100.081 137.919C105.216 143.053 114.488 152.292 119.622 157.46C120.854 158.658 121.401 160.198 121.298 161.704C121.23 163.209 120.545 164.647 119.245 165.673C118.526 166.255 117.808 166.803 117.123 167.385C116.405 167.932 115.72 168.479 115.002 169.027C113.804 170.019 112.23 170.396 110.69 170.293C109.182 170.157 107.677 169.54 106.547 168.411C101.757 163.586 92.86 154.722 88.0695 149.897C83.279 145.106 74.3793 136.208 69.5888 131.417C68.4586 130.288 67.8083 128.782 67.7061 127.276C67.5698 125.77 67.9817 124.196 68.9385 122.964C69.5207 122.28 70.0688 121.596 70.6169 120.877C71.196 120.192 71.7441 119.474 72.3262 118.755C73.3543 117.455 74.7912 116.736 76.2621 116.668C77.767 116.599 79.3091 117.147 80.5385 118.344Z" fill="#53555B"/>
<path id="path212" fill-rule="evenodd" clip-rule="evenodd" d="M83.6878 121.527C87.7939 125.633 95.9752 133.812 100.081 137.919C104.153 141.992 112.367 150.17 116.439 154.277C117.431 155.235 117.876 156.467 117.842 157.631C117.808 158.76 117.294 159.889 116.302 160.642C115.755 161.087 115.207 161.532 114.659 161.943C114.146 162.353 113.598 162.798 113.051 163.209C112.127 163.928 110.929 164.236 109.73 164.099C108.569 163.962 107.371 163.449 106.479 162.559C102.683 158.76 94.7768 150.855 90.9432 147.022C87.1436 143.223 79.241 135.318 75.4415 131.485C74.5156 130.596 74.0046 129.432 73.9025 128.234C73.7631 127.071 74.0728 125.873 74.7912 124.915C75.1999 124.401 75.6118 123.854 76.0577 123.341C76.4665 122.793 76.9124 122.245 77.3242 121.698C78.1108 120.705 79.207 120.192 80.3682 120.158C81.5326 120.124 82.7309 120.568 83.6878 121.527Z" fill="#72767B"/>
<path id="path214" fill-rule="evenodd" clip-rule="evenodd" d="M86.357 125.223C89.4041 128.269 96.5233 135.387 99.5672 138.432C102.58 141.478 109.73 148.597 112.743 151.642C113.461 152.327 113.838 153.216 113.838 154.038C113.838 154.859 113.53 155.646 112.846 156.159C112.469 156.468 112.092 156.741 111.716 157.049C111.34 157.323 110.963 157.597 110.588 157.905C109.972 158.384 109.114 158.555 108.259 158.418C107.405 158.316 106.547 157.905 105.9 157.254C103.057 154.414 96.1455 147.501 93.3059 144.661C90.4972 141.855 83.5855 134.908 80.7459 132.101C80.0956 131.417 79.6838 130.596 79.5475 129.74C79.4454 128.885 79.6157 128.029 80.0956 127.379C80.3681 127.037 80.6778 126.66 80.9503 126.284C81.26 125.907 81.5325 125.531 81.839 125.154C82.3531 124.47 83.1056 124.128 83.9293 124.162C84.7839 124.162 85.6386 124.504 86.357 125.223Z" fill="#90969C"/>
<path id="path216" d="M98.849 139.117L79.3093 119.576C78.8633 119.166 78.3834 118.857 77.9065 118.652C77.3924 118.447 76.8784 118.378 76.3644 118.413C75.8534 118.413 75.3394 118.55 74.8935 118.789C74.4476 119.029 74.0388 119.371 73.6951 119.816C72.7382 121.014 71.3014 123.067 70.3074 124.059C69.9667 124.47 69.7593 124.949 69.5889 125.462C69.4186 126.01 69.3846 126.558 69.4186 127.139C69.4868 127.721 69.623 128.303 69.8645 128.816C70.0689 129.33 70.4095 129.774 70.8214 130.185L107.78 167.179C108.192 167.59 108.671 167.898 109.148 168.137C109.696 168.377 110.279 168.514 110.861 168.548C111.408 168.616 111.99 168.548 112.538 168.377C113.051 168.24 113.53 168 113.941 167.692L118.184 164.305C118.595 163.962 118.937 163.551 119.177 163.106C119.416 162.628 119.553 162.148 119.587 161.635C119.622 161.087 119.519 160.574 119.314 160.061C119.142 159.582 118.835 159.103 118.39 158.692L98.849 139.117ZM81.7711 117.112L120.854 156.228C121.606 156.981 122.188 157.871 122.53 158.795C122.941 159.787 123.112 160.814 123.044 161.806C123.009 162.799 122.736 163.791 122.257 164.715C121.812 165.57 121.161 166.358 120.34 167.008C119.142 167.966 117.089 169.403 116.097 170.396C115.31 171.012 114.42 171.457 113.496 171.731C112.572 172.004 111.545 172.107 110.554 172.004C109.594 171.936 108.637 171.696 107.712 171.286C106.857 170.875 106.036 170.327 105.318 169.643L68.3565 132.649C67.6721 131.965 67.124 131.143 66.7153 130.254C66.3034 129.364 66.0309 128.372 65.9628 127.413C65.8916 126.455 65.9969 125.428 66.2694 124.504C66.5419 123.546 66.9878 122.69 67.604 121.903L70.9576 117.66C71.6079 116.838 72.4286 116.188 73.2863 115.744C74.1751 115.264 75.166 114.991 76.1941 114.922C77.185 114.888 78.2131 115.059 79.2071 115.435C80.1299 115.812 80.9845 116.359 81.7711 117.112Z" fill="#3D1B11"/>
<path id="path218" fill-rule="evenodd" clip-rule="evenodd" d="M81.3281 143.155L94.8449 156.673L71.8463 179.704L58.2954 166.152L81.3281 143.155Z" fill="#6C3717"/>
<g id="g220">
<g id="Clip path group">
<mask id="mask0_388_460" style="mask-type:luminance" maskUnits="userSpaceOnUse" x="58" y="143" width="37" height="37">
<g id="clipPath226">
<path id="path224" fill-rule="evenodd" clip-rule="evenodd" d="M81.3281 143.155L94.8449 156.673L71.8463 179.704L58.2954 166.152L81.3281 143.155Z" fill="white"/>
</g>
</mask>
<g mask="url(#mask0_388_460)">
<g id="g222">
<path id="path228" fill-rule="evenodd" clip-rule="evenodd" d="M86.1187 151.574C88.308 153.764 81.1208 164.544 70.0008 175.632C58.9118 186.754 48.1324 193.94 45.9431 191.75C43.7166 189.526 50.9039 178.746 62.027 167.658C73.1129 156.536 83.8953 149.349 86.1187 151.574Z" fill="#995925"/>
</g>
</g>
</g>
</g>
<path id="path230" d="M92.3798 156.673L81.328 145.619L60.7602 166.152L71.8461 177.24L92.3798 156.673ZM82.5604 141.923L97.3097 156.673L71.8461 182.134L55.8303 166.152L81.328 140.691L82.5604 141.923Z" fill="#3D1B11"/>
<path id="path232" fill-rule="evenodd" clip-rule="evenodd" d="M87.4875 125.326L112.675 150.513L160.757 107.325L158.84 79.1602L130.641 77.2437L87.4875 125.326Z" fill="#CDD8DD"/>
<g id="g234">
<g id="Clip path group_2">
<mask id="mask1_388_460" style="mask-type:luminance" maskUnits="userSpaceOnUse" x="87" y="77" width="74" height="74">
<g id="clipPath240">
<path id="path238" fill-rule="evenodd" clip-rule="evenodd" d="M87.4875 125.326L112.675 150.513L160.757 107.325L158.84 79.1602L130.641 77.2437L87.4875 125.326Z" fill="white"/>
</g>
</mask>
<g mask="url(#mask1_388_460)">
<g id="g236">
<path id="path242" d="M103.231 129.501C105.59 132.786 108.089 136.14 110.245 139.014C111.956 140.281 113.53 141.478 114.899 142.471C116.268 143.497 117.329 144.25 118.15 144.798C117.671 143.977 116.952 142.711 115.926 140.794C114.933 138.946 113.667 136.619 112.298 134.052L111.443 133.231C106.823 128.679 101.689 123.649 98.369 120.466C96.8299 118.96 95.6997 117.899 94.845 117.112C95.2568 117.899 95.8359 118.858 96.6596 120.09C98.2668 122.554 100.664 125.976 103.231 129.501ZM94.3991 125.462L97.2077 128.85L100.15 131.178C97.6165 127.687 95.2909 124.367 93.7488 121.972C91.7298 118.892 90.9092 117.112 90.6026 116.017C90.0886 113.998 90.9092 113.382 91.5254 112.903C91.832 112.663 92.0735 112.492 92.3801 112.356C92.8941 112.116 93.34 112.047 93.8881 112.15C94.2969 112.253 94.7428 112.39 95.8731 113.382C96.6596 114.067 98.1305 115.401 100.8 118.002C102.373 119.508 104.358 121.459 106.547 123.58C105.284 121.322 104.085 119.166 102.989 117.249L102.066 116.154L95.7678 111.363C94.9812 110.816 94.845 109.721 95.4272 108.933C95.5975 108.728 95.7678 108.591 95.9753 108.454C95.7678 107.975 95.7678 107.667 95.7678 107.325C95.8359 106.572 96.2137 106.025 96.7618 105.648C97.1024 105.409 97.5143 105.272 97.9602 105.237C98.6446 105.135 99.363 105.066 100.595 106.675C101.28 107.564 102.407 109.276 104.358 112.629C104.633 113.143 104.94 113.69 105.284 114.238C108.498 116.702 111.751 119.132 114.933 121.561C120.066 125.428 124.55 128.782 127.732 131.143C130.812 133.436 132.421 134.566 133.31 135.147C133.995 135.592 134.063 135.626 134.132 135.626C135.056 135.866 135.603 136.79 135.364 137.748C135.158 138.672 134.2 139.22 133.276 138.98C132.934 138.912 131.394 140.144 130.23 139.391C129.238 138.741 127.801 136.927 124.721 134.668C122.222 132.82 119.553 129.398 115.31 126.181L116.302 127.345C118.903 130.322 121.299 133.094 123.078 135.147L123.078 135.182C125.508 137.988 126.774 139.494 127.424 140.349C128.554 141.889 128.485 142.437 128.211 143.224C128.04 143.6 127.801 144.045 127.561 144.387C127.287 144.764 126.945 145.14 126.603 145.38L126.568 145.38C125.713 145.961 125.097 146.201 123.42 144.798C122.873 144.319 121.983 143.497 120.477 142.026C122.804 146.68 122.633 147.159 122.462 147.638L122.428 147.707C122.257 148.152 122.086 148.699 121.264 149.178C120.717 149.521 119.998 149.829 118.287 148.939C118.116 148.836 117.876 148.734 117.637 148.562C118.15 149.349 118.253 149.692 118.253 150.308C118.253 150.855 118.047 151.369 117.808 151.848C117.568 152.292 117.226 152.772 116.918 153.08C116.097 154.038 115.446 154.688 113.496 153.08C112.777 152.464 111.545 151.163 109.254 148.528C107.235 146.201 104.531 143.018 101.757 139.733C99.4992 137.03 97.0002 134.052 94.7769 131.383L90.9432 128.337C88.1718 126.147 86.7349 125.018 85.9824 124.367C84.6137 123.17 84.5456 122.656 84.6478 121.903C84.7159 121.459 84.8862 120.979 85.1587 120.569C85.4003 120.227 85.7068 119.884 86.0846 119.645C86.4593 119.371 86.9052 119.2 87.3171 119.097C87.828 118.995 88.3761 119.029 88.822 119.2C89.4723 119.474 89.6427 119.645 91.4573 121.869C92.1416 122.759 93.1697 123.957 94.3991 125.462Z" fill="#72767B"/>
</g>
</g>
</g>
</g>
<path id="path244" fill-rule="evenodd" clip-rule="evenodd" d="M155.931 86.8259L156.513 106.948L129.204 131.212L126.808 129.535L152.064 104.861L155.178 88.1265L155.931 86.8259Z" fill="white"/>
<path id="path246" fill-rule="evenodd" clip-rule="evenodd" d="M151.174 82.0348L131.052 81.4873L104.222 111.637L106.207 113.485L133.139 85.9359L149.874 82.822L151.174 82.0348Z" fill="white"/>
<path id="path248" fill-rule="evenodd" clip-rule="evenodd" d="M108.498 128.713L109.114 129.33L109.73 129.945L119.142 121.15L149.121 92.8832L144.912 88.708L117.158 119.166L108.498 128.713Z" fill="#72767B"/>
<path id="path250" d="M111.443 151.745L85.0906 125.394L127.458 73L161.68 76.3196L165 110.542L112.606 152.874L111.443 151.745ZM89.8842 125.257L112.743 148.117L160.175 107.838L157.197 80.8029L130.162 77.7911L89.8842 125.257Z" fill="#3D1B11"/>
<path id="path252" d="M116.713 130.288L120.785 134.258L115.686 128.371L116.713 130.288ZM97.6847 116.667L97.4122 117.044C99.3631 120.226 102.407 124.47 104.872 127.858C107.235 131.143 109.731 134.497 111.887 137.371C113.599 138.638 115.173 139.835 116.508 140.828C117.91 141.855 118.39 141.957 119.211 142.505L113.941 132.409L97.6847 116.667ZM96.0435 123.82C99.2268 127.653 97.9944 126.557 101.791 129.535C98.815 125.428 93.0986 117.591 92.2439 114.374C91.3892 110.986 94.9813 110.234 95.5294 110.507C95.9413 110.61 96.3841 110.747 97.5144 111.739L108.192 121.938C103.401 113.314 105.352 115.812 97.3781 109.754C96.3841 108.967 96.5575 107.393 97.6166 106.846C96.9663 105.34 97.855 103.834 99.6015 103.594C101.825 103.252 103.605 106.846 106.002 110.986C106.275 111.5 106.584 112.047 106.925 112.595L135.774 133.984C137.999 134.531 137.485 139.322 133.037 136.413L116.953 124.538L129.067 138.706C130.744 140.965 129.888 142.368 128.211 143.737C126.534 145.14 124.618 142.813 122.12 140.383C124.173 144.455 125.029 146.235 122.907 147.536C121.915 148.151 121.333 148.323 119.622 147.296C120.785 148.939 119.793 150.17 118.561 151.437C117.74 152.395 117.089 153.045 115.139 151.437C113.222 149.829 106.138 141.341 103.401 138.09C101.141 135.387 98.6446 132.409 96.4182 129.74L87.6237 122.725C86.1188 121.39 85.8432 120.363 86.8031 118.926C87.6237 117.728 89.1287 117.078 90.4633 117.591C91.5596 118.002 94.5014 121.972 96.0435 123.82Z" fill="#6C3717"/>
<path id="path254" d="M91.4231 159.547C92.1074 158.863 93.2036 158.863 93.888 159.547C94.5723 160.232 94.5723 161.327 93.888 162.011C92.7918 163.106 90.7387 162.662 88.3419 161.053C86.5614 159.89 84.338 158.041 82.1487 155.852C79.9594 153.661 78.1107 151.437 76.9463 149.657C75.3392 147.262 74.8933 145.208 75.9895 144.113C76.6738 143.429 77.7669 143.429 78.4513 144.113C79.1357 144.798 79.1357 145.893 78.4513 146.577C78.2129 146.817 79.1697 146.783 79.82 147.741C80.8481 149.315 82.5234 151.334 84.6136 153.388C86.6667 155.441 88.6857 157.152 90.2588 158.179C91.2187 158.795 91.1815 159.787 91.4231 159.547Z" fill="#3D1B11"/>
<path id="path256" d="M86.4591 164.51C87.1435 163.825 88.2397 163.825 88.9241 164.51C89.6084 165.194 89.6084 166.289 88.9241 166.974C87.8279 168.069 85.7748 167.624 83.3811 166.015C81.6005 164.852 79.3772 163.004 77.1847 160.814C74.9954 158.623 73.1467 156.399 71.9855 154.619C70.3753 152.224 69.9324 150.17 71.0256 149.076C71.7099 148.391 72.8061 148.391 73.4905 149.076C74.1748 149.76 74.1748 150.855 73.4905 151.54C73.252 151.745 74.2089 151.745 74.8592 152.703C75.8873 154.277 77.5625 156.296 79.6497 158.35C81.7027 160.403 83.7217 162.114 85.2979 163.141C86.2548 163.757 86.2207 164.749 86.4591 164.51Z" fill="#3D1B11"/>
<path id="path258" d="M81.4985 169.472C82.1829 168.788 83.2791 168.788 83.9634 169.472C84.6478 170.157 84.6478 171.252 83.9634 171.936C82.8672 173.031 80.8142 172.586 78.4174 170.977C76.6399 169.814 74.4134 167.966 72.2241 165.776C70.0348 163.586 68.1861 161.361 67.0218 159.582C65.4146 157.186 64.9687 155.133 66.0649 154.038C66.7493 153.353 67.8424 153.353 68.5267 154.038C69.2111 154.722 69.2111 155.817 68.5267 156.502C68.2883 156.707 69.2483 156.707 69.8985 157.665C70.9235 159.24 72.6019 161.259 74.689 163.312C76.7421 165.365 78.7611 167.076 80.3342 168.103C81.2941 168.719 81.2601 169.712 81.4985 169.472Z" fill="#3D1B11"/>
<path id="path260" fill-rule="evenodd" clip-rule="evenodd" d="M60.9988 160.54L77.4605 177C78.7951 178.335 78.7951 180.559 77.4605 181.894L77.3242 182.031C74.3793 184.974 69.5888 184.974 66.6811 182.031L55.9358 171.32C53.025 168.411 53.025 163.62 55.9358 160.677L56.0721 160.54C57.4408 159.171 59.6641 159.171 60.9988 160.54Z" fill="#53555B"/>
<path id="path262" d="M76.228 178.233L59.7663 161.772C59.4257 161.429 58.9798 161.258 58.537 161.258C58.0911 161.258 57.6452 161.429 57.3045 161.772L57.1652 161.909C56.038 163.038 55.4899 164.51 55.4899 166.015C55.4899 167.487 56.038 168.958 57.1652 170.088L67.8795 180.799C69.0067 181.928 70.5116 182.51 71.9856 182.51C73.4906 182.51 74.9615 181.928 76.0918 180.799L76.228 180.662C76.5718 180.354 76.7421 179.909 76.7421 179.464C76.7421 179.019 76.5718 178.54 76.228 178.233ZM62.2313 159.308L78.6929 175.769C79.7179 176.761 80.1979 178.13 80.1979 179.464C80.1979 180.799 79.7179 182.134 78.6929 183.126L78.5567 183.263C76.7421 185.077 74.3793 185.967 71.9856 185.967C69.6229 185.967 67.2292 185.077 65.4487 183.263L54.7374 172.552C52.9228 170.772 52 168.376 52 166.015C52 163.62 52.9228 161.258 54.7374 159.445L54.8737 159.308C55.8677 158.281 57.1992 157.802 58.537 157.802C59.8685 157.802 61.2063 158.281 62.2313 159.308Z" fill="#3D1B11"/>
<path id="path264" fill-rule="evenodd" clip-rule="evenodd" d="M60.9646 164.647L73.3542 177.035C73.9705 177.651 73.9705 178.678 73.3542 179.328C72.7039 179.944 71.6759 179.944 71.0596 179.328L58.6731 166.939C58.0569 166.324 58.0569 165.263 58.6731 164.647C59.2893 164.031 60.3484 164.031 60.9646 164.647Z" fill="#90969C"/>
<path id="path266" fill-rule="evenodd" clip-rule="evenodd" d="M103.983 146.577L111.716 154.312C112.092 154.688 112.161 155.304 111.716 155.646C111.237 156.023 110.929 156.365 110.381 156.296C110.142 156.262 109.904 156.159 109.696 155.954L102.339 148.596C101.518 147.775 102.236 147.091 102.648 146.577C102.989 146.132 103.605 146.201 103.983 146.577Z" fill="white"/>
<path id="path268" fill-rule="evenodd" clip-rule="evenodd" d="M67.3995 172.004L73.0446 177.616C73.3202 177.925 73.3543 178.369 73.0446 178.609C72.704 178.883 72.4625 179.122 72.0878 179.088C71.9175 179.054 71.71 178.985 71.5738 178.814L66.2011 173.476C65.6189 172.86 66.133 172.381 66.4395 172.004C66.6811 171.662 67.1239 171.73 67.3995 172.004Z" fill="white"/>
</g>
<path id="Encarar" d="M78.8462 23.363C78.8462 23.423 78.8222 23.477 78.7742 23.525C78.7382 23.561 78.6902 23.579 78.6302 23.579L72.7262 23.579C72.6662 23.579 72.6362 23.609 72.6362 23.669L72.6362 26.459C72.6362 26.519 72.6662 26.549 72.7262 26.549L76.5962 26.549C76.6562 26.549 76.7042 26.573 76.7402 26.621C76.7882 26.657 76.8122 26.705 76.8122 26.765L76.8122 28.511C76.8122 28.571 76.7882 28.625 76.7402 28.673C76.7042 28.709 76.6562 28.727 76.5962 28.727L72.7262 28.727C72.6662 28.727 72.6362 28.757 72.6362 28.817L72.6362 31.733C72.6362 31.793 72.6662 31.823 72.7262 31.823L78.6302 31.823C78.6902 31.823 78.7382 31.847 78.7742 31.895C78.8222 31.931 78.8462 31.979 78.8462 32.039L78.8462 33.785C78.8462 33.845 78.8222 33.899 78.7742 33.947C78.7382 33.983 78.6902 34.001 78.6302 34.001L70.3142 34.001C70.2542 34.001 70.2002 33.983 70.1522 33.947C70.1162 33.899 70.0982 33.845 70.0982 33.785L70.0982 21.617C70.0982 21.557 70.1162 21.509 70.1522 21.473C70.2002 21.425 70.2542 21.401 70.3142 21.401L78.6302 21.401C78.6902 21.401 78.7382 21.425 78.7742 21.473C78.8222 21.509 78.8462 21.557 78.8462 21.617L78.8462 23.363ZM87.846 21.617C87.846 21.557 87.864 21.509 87.9 21.473C87.948 21.425 88.002 21.401 88.062 21.401L90.168 21.401C90.228 21.401 90.276 21.425 90.312 21.473C90.36 21.509 90.384 21.557 90.384 21.617L90.384 33.785C90.384 33.845 90.36 33.899 90.312 33.947C90.276 33.983 90.228 34.001 90.168 34.001L88.134 34.001C88.014 34.001 87.93 33.953 87.882 33.857L83.22 26.153C83.196 26.117 83.172 26.105 83.148 26.117C83.124 26.117 83.112 26.141 83.112 26.189L83.148 33.785C83.148 33.845 83.124 33.899 83.076 33.947C83.04 33.983 82.992 34.001 82.932 34.001L80.826 34.001C80.766 34.001 80.712 33.983 80.664 33.947C80.628 33.899 80.61 33.845 80.61 33.785L80.61 21.617C80.61 21.557 80.628 21.509 80.664 21.473C80.712 21.425 80.766 21.401 80.826 21.401L82.86 21.401C82.98 21.401 83.064 21.449 83.112 21.545L87.756 29.213C87.78 29.249 87.804 29.267 87.828 29.267C87.852 29.255 87.864 29.225 87.864 29.177L87.846 21.617ZM97.0087 34.145C96.0727 34.145 95.2507 33.965 94.5427 33.605C93.8347 33.233 93.2887 32.717 92.9047 32.057C92.5207 31.397 92.3287 30.635 92.3287 29.771L92.3287 25.613C92.3287 24.749 92.5207 23.987 92.9047 23.327C93.2887 22.667 93.8347 22.157 94.5427 21.797C95.2507 21.437 96.0727 21.257 97.0087 21.257C97.9327 21.257 98.7427 21.431 99.4387 21.779C100.147 22.115 100.693 22.601 101.077 23.237C101.473 23.861 101.671 24.587 101.671 25.415C101.671 25.523 101.599 25.589 101.455 25.613L99.3487 25.739L99.3127 25.739C99.1927 25.739 99.1327 25.673 99.1327 25.541C99.1327 24.905 98.9347 24.395 98.5387 24.011C98.1547 23.627 97.6447 23.435 97.0087 23.435C96.3607 23.435 95.8387 23.627 95.4427 24.011C95.0587 24.395 94.8667 24.905 94.8667 25.541L94.8667 29.879C94.8667 30.503 95.0587 31.007 95.4427 31.391C95.8387 31.775 96.3607 31.967 97.0087 31.967C97.6447 31.967 98.1547 31.775 98.5387 31.391C98.9347 31.007 99.1327 30.503 99.1327 29.879C99.1327 29.747 99.2047 29.681 99.3487 29.681L101.455 29.771C101.515 29.771 101.563 29.789 101.599 29.825C101.647 29.861 101.671 29.903 101.671 29.951C101.671 30.779 101.473 31.511 101.077 32.147C100.693 32.783 100.147 33.275 99.4387 33.623C98.7427 33.971 97.9327 34.145 97.0087 34.145ZM111.261 34.001C111.141 34.001 111.063 33.941 111.027 33.821L110.487 32.057C110.463 32.009 110.433 31.985 110.397 31.985L105.969 31.985C105.933 31.985 105.903 32.009 105.879 32.057L105.357 33.821C105.321 33.941 105.243 34.001 105.123 34.001L102.837 34.001C102.765 34.001 102.711 33.983 102.675 33.947C102.639 33.899 102.633 33.833 102.657 33.749L106.545 21.581C106.581 21.461 106.659 21.401 106.779 21.401L109.605 21.401C109.725 21.401 109.803 21.461 109.839 21.581L113.727 33.749C113.739 33.773 113.745 33.803 113.745 33.839C113.745 33.947 113.679 34.001 113.547 34.001L111.261 34.001ZM106.527 29.915C106.515 29.987 106.539 30.023 106.599 30.023L109.767 30.023C109.839 30.023 109.863 29.987 109.839 29.915L108.219 24.569C108.207 24.521 108.189 24.503 108.165 24.515C108.141 24.515 108.123 24.533 108.111 24.569L106.527 29.915ZM122.239 34.001C122.119 34.001 122.035 33.947 121.987 33.839L119.737 28.853C119.713 28.805 119.677 28.781 119.629 28.781L117.955 28.781C117.895 28.781 117.865 28.811 117.865 28.871L117.865 33.785C117.865 33.845 117.841 33.899 117.793 33.947C117.757 33.983 117.709 34.001 117.649 34.001L115.543 34.001C115.483 34.001 115.429 33.983 115.381 33.947C115.345 33.899 115.327 33.845 115.327 33.785L115.327 21.617C115.327 21.557 115.345 21.509 115.381 21.473C115.429 21.425 115.483 21.401 115.543 21.401L120.691 21.401C121.459 21.401 122.131 21.557 122.707 21.869C123.295 22.181 123.745 22.625 124.057 23.201C124.381 23.777 124.543 24.443 124.543 25.199C124.543 26.015 124.339 26.717 123.931 27.305C123.523 27.881 122.953 28.289 122.221 28.529C122.161 28.553 122.143 28.595 122.167 28.655L124.615 33.749C124.639 33.797 124.651 33.833 124.651 33.857C124.651 33.953 124.585 34.001 124.453 34.001L122.239 34.001ZM117.955 23.579C117.895 23.579 117.865 23.609 117.865 23.669L117.865 26.747C117.865 26.807 117.895 26.837 117.955 26.837L120.313 26.837C120.817 26.837 121.225 26.687 121.537 26.387C121.861 26.087 122.023 25.697 122.023 25.217C122.023 24.737 121.861 24.347 121.537 24.047C121.225 23.735 120.817 23.579 120.313 23.579L117.955 23.579ZM134.657 34.001C134.537 34.001 134.459 33.941 134.423 33.821L133.883 32.057C133.859 32.009 133.829 31.985 133.793 31.985L129.365 31.985C129.329 31.985 129.299 32.009 129.275 32.057L128.753 33.821C128.717 33.941 128.639 34.001 128.519 34.001L126.233 34.001C126.161 34.001 126.107 33.983 126.071 33.947C126.035 33.899 126.029 33.833 126.053 33.749L129.941 21.581C129.977 21.461 130.055 21.401 130.175 21.401L133.001 21.401C133.121 21.401 133.199 21.461 133.235 21.581L137.123 33.749C137.135 33.773 137.141 33.803 137.141 33.839C137.141 33.947 137.075 34.001 136.943 34.001L134.657 34.001ZM129.923 29.915C129.911 29.987 129.935 30.023 129.995 30.023L133.163 30.023C133.235 30.023 133.259 29.987 133.235 29.915L131.615 24.569C131.603 24.521 131.585 24.503 131.561 24.515C131.537 24.515 131.519 24.533 131.507 24.569L129.923 29.915ZM145.635 34.001C145.515 34.001 145.431 33.947 145.383 33.839L143.133 28.853C143.109 28.805 143.073 28.781 143.025 28.781L141.351 28.781C141.291 28.781 141.261 28.811 141.261 28.871L141.261 33.785C141.261 33.845 141.237 33.899 141.189 33.947C141.153 33.983 141.105 34.001 141.045 34.001L138.939 34.001C138.879 34.001 138.825 33.983 138.777 33.947C138.741 33.899 138.723 33.845 138.723 33.785L138.723 21.617C138.723 21.557 138.741 21.509 138.777 21.473C138.825 21.425 138.879 21.401 138.939 21.401L144.087 21.401C144.855 21.401 145.527 21.557 146.103 21.869C146.691 22.181 147.141 22.625 147.453 23.201C147.777 23.777 147.939 24.443 147.939 25.199C147.939 26.015 147.735 26.717 147.327 27.305C146.919 27.881 146.349 28.289 145.617 28.529C145.557 28.553 145.539 28.595 145.563 28.655L148.011 33.749C148.035 33.797 148.047 33.833 148.047 33.857C148.047 33.953 147.981 34.001 147.849 34.001L145.635 34.001ZM141.351 23.579C141.291 23.579 141.261 23.609 141.261 23.669L141.261 26.747C141.261 26.807 141.291 26.837 141.351 26.837L143.709 26.837C144.213 26.837 144.621 26.687 144.933 26.387C145.257 26.087 145.419 25.697 145.419 25.217C145.419 24.737 145.257 24.347 144.933 24.047C144.621 23.735 144.213 23.579 143.709 23.579L141.351 23.579Z" fill="white"/>
</g>
<defs>
<filter id="filter0_f_388_460" x="0.115234" y="11.4861" width="216.485" height="233.756" filterUnits="userSpaceOnUse" color-interpolation-filters="sRGB">
<feFlood flood-opacity="0" result="BackgroundImageFix"/>
<feBlend mode="normal" in="SourceGraphic" in2="BackgroundImageFix" result="shape"/>
<feGaussianBlur stdDeviation="35" result="effect1_foregroundBlur_388_460"/>
</filter>
</defs>
</svg>
