<svg width="261" height="183" viewBox="0 0 261 183" fill="none" xmlns="http://www.w3.org/2000/svg">
<g filter="url(#filter0_d_388_459)">
<path fill-rule="evenodd" clip-rule="evenodd" d="M130.5 170C200.364 170 257 131.944 257 85C257 38.0558 200.364 0 130.5 0C60.636 0 4 38.0558 4 85C4 104.202 13.4763 121.918 29.4581 136.149L27.1927 174.057L62.183 156.551C81.8868 165.063 105.335 170 130.5 170Z" fill="#101010"/>
</g>
<path d="M54.446 57C54.326 57 54.248 56.94 54.212 56.82L50.504 44.652L50.486 44.58C50.486 44.46 50.552 44.4 50.684 44.4H52.952C53.084 44.4 53.168 44.46 53.204 44.58L55.598 53.364C55.61 53.4 55.628 53.418 55.652 53.418C55.676 53.418 55.694 53.4 55.706 53.364L58.064 44.58C58.1 44.46 58.184 44.4 58.316 44.4H60.53C60.602 44.4 60.656 44.424 60.692 44.472C60.728 44.52 60.734 44.58 60.71 44.652L56.948 56.82C56.912 56.94 56.834 57 56.714 57H54.446ZM66.1796 57.198C65.2436 57.198 64.4156 57.006 63.6956 56.622C62.9876 56.238 62.4356 55.704 62.0396 55.02C61.6436 54.324 61.4456 53.526 61.4456 52.626V48.774C61.4456 47.886 61.6436 47.1 62.0396 46.416C62.4356 45.732 62.9876 45.204 63.6956 44.832C64.4156 44.448 65.2436 44.256 66.1796 44.256C67.1276 44.256 67.9556 44.448 68.6636 44.832C69.3836 45.204 69.9416 45.732 70.3376 46.416C70.7336 47.1 70.9316 47.886 70.9316 48.774V52.626C70.9316 53.526 70.7336 54.324 70.3376 55.02C69.9416 55.716 69.3836 56.256 68.6636 56.64C67.9556 57.012 67.1276 57.198 66.1796 57.198ZM66.1796 55.02C66.8396 55.02 67.3736 54.81 67.7816 54.39C68.1896 53.97 68.3936 53.412 68.3936 52.716V48.756C68.3936 48.06 68.1896 47.502 67.7816 47.082C67.3856 46.65 66.8516 46.434 66.1796 46.434C65.5196 46.434 64.9856 46.65 64.5776 47.082C64.1816 47.502 63.9836 48.06 63.9836 48.756V52.716C63.9836 53.412 64.1816 53.97 64.5776 54.39C64.9856 54.81 65.5196 55.02 66.1796 55.02ZM77.3053 57.144C76.3693 57.144 75.5473 56.964 74.8393 56.604C74.1313 56.232 73.5853 55.716 73.2013 55.056C72.8173 54.396 72.6253 53.634 72.6253 52.77V48.612C72.6253 47.748 72.8173 46.986 73.2013 46.326C73.5853 45.666 74.1313 45.156 74.8393 44.796C75.5473 44.436 76.3693 44.256 77.3053 44.256C78.2293 44.256 79.0393 44.43 79.7353 44.778C80.4433 45.114 80.9893 45.6 81.3733 46.236C81.7693 46.86 81.9673 47.586 81.9673 48.414C81.9673 48.522 81.8953 48.588 81.7513 48.612L79.6453 48.738H79.6093C79.4893 48.738 79.4293 48.672 79.4293 48.54C79.4293 47.904 79.2313 47.394 78.8353 47.01C78.4513 46.626 77.9413 46.434 77.3053 46.434C76.6573 46.434 76.1353 46.626 75.7393 47.01C75.3553 47.394 75.1633 47.904 75.1633 48.54V52.878C75.1633 53.502 75.3553 54.006 75.7393 54.39C76.1353 54.774 76.6573 54.966 77.3053 54.966C77.9413 54.966 78.4513 54.774 78.8353 54.39C79.2313 54.006 79.4293 53.502 79.4293 52.878C79.4293 52.746 79.5013 52.68 79.6453 52.68L81.7513 52.77C81.8113 52.77 81.8593 52.788 81.8953 52.824C81.9433 52.86 81.9673 52.902 81.9673 52.95C81.9673 53.778 81.7693 54.51 81.3733 55.146C80.9893 55.782 80.4433 56.274 79.7353 56.622C79.0393 56.97 78.2293 57.144 77.3053 57.144ZM92.5765 46.362C92.5765 46.422 92.5525 46.476 92.5045 46.524C92.4685 46.56 92.4205 46.578 92.3605 46.578H86.4565C86.3965 46.578 86.3665 46.608 86.3665 46.668V49.458C86.3665 49.518 86.3965 49.548 86.4565 49.548H90.3265C90.3865 49.548 90.4345 49.572 90.4705 49.62C90.5185 49.656 90.5425 49.704 90.5425 49.764V51.51C90.5425 51.57 90.5185 51.624 90.4705 51.672C90.4345 51.708 90.3865 51.726 90.3265 51.726H86.4565C86.3965 51.726 86.3665 51.756 86.3665 51.816V54.732C86.3665 54.792 86.3965 54.822 86.4565 54.822H92.3605C92.4205 54.822 92.4685 54.846 92.5045 54.894C92.5525 54.93 92.5765 54.978 92.5765 55.038V56.784C92.5765 56.844 92.5525 56.898 92.5045 56.946C92.4685 56.982 92.4205 57 92.3605 57H84.0445C83.9845 57 83.9305 56.982 83.8825 56.946C83.8465 56.898 83.8285 56.844 83.8285 56.784V44.616C83.8285 44.556 83.8465 44.508 83.8825 44.472C83.9305 44.424 83.9845 44.4 84.0445 44.4H92.3605C92.4205 44.4 92.4685 44.424 92.5045 44.472C92.5525 44.508 92.5765 44.556 92.5765 44.616V46.362ZM85.5025 43.356C85.4185 43.356 85.3585 43.332 85.3225 43.284C85.2985 43.224 85.3105 43.158 85.3585 43.086L86.6725 41.196C86.7325 41.1 86.8165 41.052 86.9245 41.052H89.3185C89.4265 41.052 89.5105 41.1 89.5705 41.196L90.9385 43.086C90.9745 43.134 90.9925 43.176 90.9925 43.212C90.9925 43.308 90.9265 43.356 90.7945 43.356H89.1745C89.0665 43.356 88.9825 43.308 88.9225 43.212L88.2025 42.114C88.1665 42.042 88.1305 42.042 88.0945 42.114L87.3745 43.212C87.3145 43.308 87.2305 43.356 87.1225 43.356H85.5025ZM106.692 46.362C106.692 46.422 106.668 46.476 106.62 46.524C106.584 46.56 106.536 46.578 106.476 46.578H100.572C100.512 46.578 100.482 46.608 100.482 46.668V49.458C100.482 49.518 100.512 49.548 100.572 49.548H104.442C104.502 49.548 104.55 49.572 104.586 49.62C104.634 49.656 104.658 49.704 104.658 49.764V51.51C104.658 51.57 104.634 51.624 104.586 51.672C104.55 51.708 104.502 51.726 104.442 51.726H100.572C100.512 51.726 100.482 51.756 100.482 51.816V54.732C100.482 54.792 100.512 54.822 100.572 54.822H106.476C106.536 54.822 106.584 54.846 106.62 54.894C106.668 54.93 106.692 54.978 106.692 55.038V56.784C106.692 56.844 106.668 56.898 106.62 56.946C106.584 56.982 106.536 57 106.476 57H98.1597C98.0997 57 98.0457 56.982 97.9977 56.946C97.9617 56.898 97.9437 56.844 97.9437 56.784V44.616C97.9437 44.556 97.9617 44.508 97.9977 44.472C98.0457 44.424 98.0997 44.4 98.1597 44.4H106.476C106.536 44.4 106.584 44.424 106.62 44.472C106.668 44.508 106.692 44.556 106.692 44.616V46.362ZM112.775 57.144C111.815 57.144 110.975 56.994 110.255 56.694C109.535 56.382 108.977 55.944 108.581 55.38C108.197 54.804 108.005 54.138 108.005 53.382V52.986C108.005 52.926 108.023 52.878 108.059 52.842C108.107 52.794 108.161 52.77 108.221 52.77H110.273C110.333 52.77 110.381 52.794 110.417 52.842C110.465 52.878 110.489 52.926 110.489 52.986V53.256C110.489 53.736 110.711 54.144 111.155 54.48C111.599 54.804 112.199 54.966 112.955 54.966C113.591 54.966 114.065 54.834 114.377 54.57C114.689 54.294 114.845 53.958 114.845 53.562C114.845 53.274 114.749 53.034 114.557 52.842C114.365 52.638 114.101 52.464 113.765 52.32C113.441 52.164 112.919 51.954 112.199 51.69C111.395 51.414 110.711 51.132 110.147 50.844C109.595 50.556 109.127 50.166 108.743 49.674C108.371 49.17 108.185 48.552 108.185 47.82C108.185 47.1 108.371 46.47 108.743 45.93C109.115 45.39 109.631 44.976 110.291 44.688C110.951 44.4 111.713 44.256 112.577 44.256C113.489 44.256 114.299 44.418 115.007 44.742C115.727 45.066 116.285 45.522 116.681 46.11C117.089 46.686 117.293 47.358 117.293 48.126V48.396C117.293 48.456 117.269 48.51 117.221 48.558C117.185 48.594 117.137 48.612 117.077 48.612H115.007C114.947 48.612 114.893 48.594 114.845 48.558C114.809 48.51 114.791 48.456 114.791 48.396V48.252C114.791 47.748 114.581 47.322 114.161 46.974C113.753 46.614 113.189 46.434 112.469 46.434C111.905 46.434 111.461 46.554 111.137 46.794C110.825 47.034 110.669 47.364 110.669 47.784C110.669 48.084 110.759 48.336 110.939 48.54C111.131 48.744 111.407 48.93 111.767 49.098C112.139 49.254 112.709 49.47 113.477 49.746C114.329 50.058 114.995 50.334 115.475 50.574C115.967 50.814 116.405 51.174 116.789 51.654C117.185 52.122 117.383 52.734 117.383 53.49C117.383 54.618 116.969 55.512 116.141 56.172C115.313 56.82 114.191 57.144 112.775 57.144ZM127.714 44.4C127.774 44.4 127.822 44.424 127.858 44.472C127.906 44.508 127.93 44.556 127.93 44.616V46.38C127.93 46.44 127.906 46.494 127.858 46.542C127.822 46.578 127.774 46.596 127.714 46.596H124.492C124.432 46.596 124.402 46.626 124.402 46.686V56.784C124.402 56.844 124.378 56.898 124.33 56.946C124.294 56.982 124.246 57 124.186 57H122.08C122.02 57 121.966 56.982 121.918 56.946C121.882 56.898 121.864 56.844 121.864 56.784V46.686C121.864 46.626 121.834 46.596 121.774 46.596H118.642C118.582 46.596 118.528 46.578 118.48 46.542C118.444 46.494 118.426 46.44 118.426 46.38V44.616C118.426 44.556 118.444 44.508 118.48 44.472C118.528 44.424 118.582 44.4 118.642 44.4H127.714ZM136.399 57C136.279 57 136.201 56.94 136.165 56.82L135.625 55.056C135.601 55.008 135.571 54.984 135.535 54.984H131.107C131.071 54.984 131.041 55.008 131.017 55.056L130.495 56.82C130.459 56.94 130.381 57 130.261 57H127.975C127.903 57 127.849 56.982 127.813 56.946C127.777 56.898 127.771 56.832 127.795 56.748L131.683 44.58C131.719 44.46 131.797 44.4 131.917 44.4H134.743C134.863 44.4 134.941 44.46 134.977 44.58L138.865 56.748C138.877 56.772 138.883 56.802 138.883 56.838C138.883 56.946 138.817 57 138.685 57H136.399ZM131.665 52.914C131.653 52.986 131.677 53.022 131.737 53.022H134.905C134.977 53.022 135.001 52.986 134.977 52.914L133.357 47.568C133.345 47.52 133.327 47.502 133.303 47.514C133.279 47.514 133.261 47.532 133.249 47.568L131.665 52.914ZM149.271 44.382C150.063 44.382 150.759 44.544 151.359 44.868C151.959 45.192 152.421 45.654 152.745 46.254C153.081 46.842 153.249 47.52 153.249 48.288C153.249 49.044 153.075 49.71 152.727 50.286C152.391 50.862 151.911 51.312 151.287 51.636C150.675 51.948 149.967 52.104 149.163 52.104H146.607C146.547 52.104 146.517 52.134 146.517 52.194V56.784C146.517 56.844 146.493 56.898 146.445 56.946C146.409 56.982 146.361 57 146.301 57H144.195C144.135 57 144.081 56.982 144.033 56.946C143.997 56.898 143.979 56.844 143.979 56.784V44.598C143.979 44.538 143.997 44.49 144.033 44.454C144.081 44.406 144.135 44.382 144.195 44.382H149.271ZM148.893 50.07C149.445 50.07 149.889 49.914 150.225 49.602C150.561 49.278 150.729 48.858 150.729 48.342C150.729 47.814 150.561 47.388 150.225 47.064C149.889 46.74 149.445 46.578 148.893 46.578H146.607C146.547 46.578 146.517 46.608 146.517 46.668V49.98C146.517 50.04 146.547 50.07 146.607 50.07H148.893ZM163.557 46.362C163.557 46.422 163.533 46.476 163.485 46.524C163.449 46.56 163.401 46.578 163.341 46.578H157.437C157.377 46.578 157.347 46.608 157.347 46.668V49.458C157.347 49.518 157.377 49.548 157.437 49.548H161.307C161.367 49.548 161.415 49.572 161.451 49.62C161.499 49.656 161.523 49.704 161.523 49.764V51.51C161.523 51.57 161.499 51.624 161.451 51.672C161.415 51.708 161.367 51.726 161.307 51.726H157.437C157.377 51.726 157.347 51.756 157.347 51.816V54.732C157.347 54.792 157.377 54.822 157.437 54.822H163.341C163.401 54.822 163.449 54.846 163.485 54.894C163.533 54.93 163.557 54.978 163.557 55.038V56.784C163.557 56.844 163.533 56.898 163.485 56.946C163.449 56.982 163.401 57 163.341 57H155.025C154.965 57 154.911 56.982 154.863 56.946C154.827 56.898 154.809 56.844 154.809 56.784V44.616C154.809 44.556 154.827 44.508 154.863 44.472C154.911 44.424 154.965 44.4 155.025 44.4H163.341C163.401 44.4 163.449 44.424 163.485 44.472C163.533 44.508 163.557 44.556 163.557 44.616V46.362ZM172.233 57C172.113 57 172.029 56.946 171.981 56.838L169.731 51.852C169.707 51.804 169.671 51.78 169.623 51.78H167.949C167.889 51.78 167.859 51.81 167.859 51.87V56.784C167.859 56.844 167.835 56.898 167.787 56.946C167.751 56.982 167.703 57 167.643 57H165.537C165.477 57 165.423 56.982 165.375 56.946C165.339 56.898 165.321 56.844 165.321 56.784V44.616C165.321 44.556 165.339 44.508 165.375 44.472C165.423 44.424 165.477 44.4 165.537 44.4H170.685C171.453 44.4 172.125 44.556 172.701 44.868C173.289 45.18 173.739 45.624 174.051 46.2C174.375 46.776 174.537 47.442 174.537 48.198C174.537 49.014 174.333 49.716 173.925 50.304C173.517 50.88 172.947 51.288 172.215 51.528C172.155 51.552 172.137 51.594 172.161 51.654L174.609 56.748C174.633 56.796 174.645 56.832 174.645 56.856C174.645 56.952 174.579 57 174.447 57H172.233ZM167.949 46.578C167.889 46.578 167.859 46.608 167.859 46.668V49.746C167.859 49.806 167.889 49.836 167.949 49.836H170.307C170.811 49.836 171.219 49.686 171.531 49.386C171.855 49.086 172.017 48.696 172.017 48.216C172.017 47.736 171.855 47.346 171.531 47.046C171.219 46.734 170.811 46.578 170.307 46.578H167.949ZM176.593 57C176.533 57 176.479 56.982 176.431 56.946C176.395 56.898 176.377 56.844 176.377 56.784V44.616C176.377 44.556 176.395 44.508 176.431 44.472C176.479 44.424 176.533 44.4 176.593 44.4H181.093C181.993 44.4 182.779 44.562 183.451 44.886C184.135 45.198 184.663 45.642 185.035 46.218C185.407 46.794 185.593 47.46 185.593 48.216V53.184C185.593 53.94 185.407 54.606 185.035 55.182C184.663 55.758 184.135 56.208 183.451 56.532C182.779 56.844 181.993 57 181.093 57H176.593ZM178.915 54.732C178.915 54.792 178.945 54.822 179.005 54.822H181.183C181.735 54.822 182.179 54.636 182.515 54.264C182.863 53.892 183.043 53.394 183.055 52.77V48.63C183.055 48.006 182.881 47.508 182.533 47.136C182.197 46.764 181.741 46.578 181.165 46.578H179.005C178.945 46.578 178.915 46.608 178.915 46.668V54.732ZM187.72 57C187.66 57 187.606 56.982 187.558 56.946C187.522 56.898 187.504 56.844 187.504 56.784V44.616C187.504 44.556 187.522 44.508 187.558 44.472C187.606 44.424 187.66 44.4 187.72 44.4H189.826C189.886 44.4 189.934 44.424 189.97 44.472C190.018 44.508 190.042 44.556 190.042 44.616V56.784C190.042 56.844 190.018 56.898 189.97 56.946C189.934 56.982 189.886 57 189.826 57H187.72ZM192.449 57C192.389 57 192.335 56.982 192.287 56.946C192.251 56.898 192.233 56.844 192.233 56.784V44.616C192.233 44.556 192.251 44.508 192.287 44.472C192.335 44.424 192.389 44.4 192.449 44.4H196.949C197.849 44.4 198.635 44.562 199.307 44.886C199.991 45.198 200.519 45.642 200.891 46.218C201.263 46.794 201.449 47.46 201.449 48.216V53.184C201.449 53.94 201.263 54.606 200.891 55.182C200.519 55.758 199.991 56.208 199.307 56.532C198.635 56.844 197.849 57 196.949 57H192.449ZM194.771 54.732C194.771 54.792 194.801 54.822 194.861 54.822H197.039C197.591 54.822 198.035 54.636 198.371 54.264C198.719 53.892 198.899 53.394 198.911 52.77V48.63C198.911 48.006 198.737 47.508 198.389 47.136C198.053 46.764 197.597 46.578 197.021 46.578H194.861C194.801 46.578 194.771 46.608 194.771 46.668V54.732ZM207.824 57.198C206.888 57.198 206.06 57.006 205.34 56.622C204.632 56.238 204.08 55.704 203.684 55.02C203.288 54.324 203.09 53.526 203.09 52.626V48.774C203.09 47.886 203.288 47.1 203.684 46.416C204.08 45.732 204.632 45.204 205.34 44.832C206.06 44.448 206.888 44.256 207.824 44.256C208.772 44.256 209.6 44.448 210.308 44.832C211.028 45.204 211.586 45.732 211.982 46.416C212.378 47.1 212.576 47.886 212.576 48.774V52.626C212.576 53.526 212.378 54.324 211.982 55.02C211.586 55.716 211.028 56.256 210.308 56.64C209.6 57.012 208.772 57.198 207.824 57.198ZM207.824 55.02C208.484 55.02 209.018 54.81 209.426 54.39C209.834 53.97 210.038 53.412 210.038 52.716V48.756C210.038 48.06 209.834 47.502 209.426 47.082C209.03 46.65 208.496 46.434 207.824 46.434C207.164 46.434 206.63 46.65 206.222 47.082C205.826 47.502 205.628 48.06 205.628 48.756V52.716C205.628 53.412 205.826 53.97 206.222 54.39C206.63 54.81 207.164 55.02 207.824 55.02ZM215.711 57.072C215.303 57.072 214.961 56.94 214.685 56.676C214.421 56.4 214.289 56.058 214.289 55.65C214.289 55.23 214.421 54.888 214.685 54.624C214.949 54.36 215.291 54.228 215.711 54.228C216.131 54.228 216.473 54.36 216.737 54.624C217.001 54.888 217.133 55.23 217.133 55.65C217.133 56.058 216.995 56.4 216.719 56.676C216.455 56.94 216.119 57.072 215.711 57.072ZM54.446 80C54.326 80 54.248 79.94 54.212 79.82L50.504 67.652L50.486 67.58C50.486 67.46 50.552 67.4 50.684 67.4H52.952C53.084 67.4 53.168 67.46 53.204 67.58L55.598 76.364C55.61 76.4 55.628 76.418 55.652 76.418C55.676 76.418 55.694 76.4 55.706 76.364L58.064 67.58C58.1 67.46 58.184 67.4 58.316 67.4H60.53C60.602 67.4 60.656 67.424 60.692 67.472C60.728 67.52 60.734 67.58 60.71 67.652L56.948 79.82C56.912 79.94 56.834 80 56.714 80H54.446ZM68.4947 80C68.3747 80 68.2967 79.94 68.2607 79.82L67.7207 78.056C67.6967 78.008 67.6667 77.984 67.6307 77.984H63.2027C63.1667 77.984 63.1367 78.008 63.1127 78.056L62.5907 79.82C62.5547 79.94 62.4767 80 62.3567 80H60.0707C59.9987 80 59.9447 79.982 59.9087 79.946C59.8727 79.898 59.8667 79.832 59.8907 79.748L63.7787 67.58C63.8147 67.46 63.8927 67.4 64.0127 67.4H66.8387C66.9587 67.4 67.0367 67.46 67.0727 67.58L70.9607 79.748C70.9727 79.772 70.9787 79.802 70.9787 79.838C70.9787 79.946 70.9127 80 70.7807 80H68.4947ZM63.7607 75.914C63.7487 75.986 63.7727 76.022 63.8327 76.022H67.0007C67.0727 76.022 67.0967 75.986 67.0727 75.914L65.4527 70.568C65.4407 70.52 65.4227 70.502 65.3987 70.514C65.3747 70.514 65.3567 70.532 65.3447 70.568L63.7607 75.914ZM64.3907 66.284C64.3067 66.284 64.2527 66.26 64.2287 66.212C64.2047 66.164 64.2107 66.104 64.2467 66.032L65.2007 64.214C65.2487 64.106 65.3387 64.052 65.4707 64.052H67.2887C67.3727 64.052 67.4267 64.082 67.4507 64.142C67.4867 64.19 67.4807 64.25 67.4327 64.322L66.1547 66.14C66.0947 66.236 66.0107 66.284 65.9027 66.284H64.3907ZM84.9124 69.362C84.9124 69.422 84.8884 69.476 84.8404 69.524C84.8044 69.56 84.7564 69.578 84.6964 69.578H78.7924C78.7324 69.578 78.7024 69.608 78.7024 69.668V72.458C78.7024 72.518 78.7324 72.548 78.7924 72.548H82.6624C82.7224 72.548 82.7704 72.572 82.8064 72.62C82.8544 72.656 82.8784 72.704 82.8784 72.764V74.51C82.8784 74.57 82.8544 74.624 82.8064 74.672C82.7704 74.708 82.7224 74.726 82.6624 74.726H78.7924C78.7324 74.726 78.7024 74.756 78.7024 74.816V77.732C78.7024 77.792 78.7324 77.822 78.7924 77.822H84.6964C84.7564 77.822 84.8044 77.846 84.8404 77.894C84.8884 77.93 84.9124 77.978 84.9124 78.038V79.784C84.9124 79.844 84.8884 79.898 84.8404 79.946C84.8044 79.982 84.7564 80 84.6964 80H76.3804C76.3204 80 76.2664 79.982 76.2184 79.946C76.1824 79.898 76.1644 79.844 76.1644 79.784V67.616C76.1644 67.556 76.1824 67.508 76.2184 67.472C76.2664 67.424 76.3204 67.4 76.3804 67.4H84.6964C84.7564 67.4 84.8044 67.424 84.8404 67.472C84.8884 67.508 84.9124 67.556 84.9124 67.616V69.362ZM94.7761 67.544C94.8361 67.448 94.9201 67.4 95.0281 67.4H97.1341C97.1941 67.4 97.2421 67.424 97.2781 67.472C97.3261 67.508 97.3501 67.556 97.3501 67.616V79.784C97.3501 79.844 97.3261 79.898 97.2781 79.946C97.2421 79.982 97.1941 80 97.1341 80H95.0281C94.9681 80 94.9141 79.982 94.8661 79.946C94.8301 79.898 94.8121 79.844 94.8121 79.784V71.846C94.8121 71.798 94.8001 71.774 94.7761 71.774C94.7521 71.774 94.7281 71.792 94.7041 71.828L92.7961 74.816C92.7361 74.912 92.6521 74.96 92.5441 74.96H91.4821C91.3741 74.96 91.2901 74.912 91.2301 74.816L89.3221 71.828C89.2981 71.792 89.2741 71.78 89.2501 71.792C89.2261 71.792 89.2141 71.816 89.2141 71.864V79.784C89.2141 79.844 89.1901 79.898 89.1421 79.946C89.1061 79.982 89.0581 80 88.9981 80H86.8921C86.8321 80 86.7781 79.982 86.7301 79.946C86.6941 79.898 86.6761 79.844 86.6761 79.784V67.616C86.6761 67.556 86.6941 67.508 86.7301 67.472C86.7781 67.424 86.8321 67.4 86.8921 67.4H88.9981C89.1061 67.4 89.1901 67.448 89.2501 67.544L91.9501 71.738C91.9861 71.81 92.0221 71.81 92.0581 71.738L94.7761 67.544ZM107.013 73.43C106.941 73.466 106.941 73.502 107.013 73.538C108.153 74.126 108.723 75.104 108.723 76.472C108.723 77.636 108.327 78.518 107.535 79.118C106.743 79.706 105.705 80 104.421 80H99.7593C99.6993 80 99.6453 79.982 99.5973 79.946C99.5613 79.898 99.5433 79.844 99.5433 79.784V67.616C99.5433 67.556 99.5613 67.508 99.5973 67.472C99.6453 67.424 99.6993 67.4 99.7593 67.4H104.277C107.121 67.4 108.543 68.552 108.543 70.856C108.543 72.056 108.033 72.914 107.013 73.43ZM102.171 69.578C102.111 69.578 102.081 69.608 102.081 69.668V72.476C102.081 72.536 102.111 72.566 102.171 72.566H104.277C104.841 72.566 105.279 72.434 105.591 72.17C105.903 71.906 106.059 71.546 106.059 71.09C106.059 70.622 105.903 70.256 105.591 69.992C105.279 69.716 104.841 69.578 104.277 69.578H102.171ZM104.421 77.804C104.973 77.804 105.405 77.666 105.717 77.39C106.029 77.102 106.185 76.712 106.185 76.22C106.185 75.728 106.029 75.344 105.717 75.068C105.405 74.78 104.967 74.636 104.403 74.636H102.171C102.111 74.636 102.081 74.666 102.081 74.726V77.714C102.081 77.774 102.111 77.804 102.171 77.804H104.421ZM115.17 80.198C114.234 80.198 113.406 80.006 112.686 79.622C111.978 79.238 111.426 78.704 111.03 78.02C110.634 77.324 110.436 76.526 110.436 75.626V71.774C110.436 70.886 110.634 70.1 111.03 69.416C111.426 68.732 111.978 68.204 112.686 67.832C113.406 67.448 114.234 67.256 115.17 67.256C116.118 67.256 116.946 67.448 117.654 67.832C118.374 68.204 118.932 68.732 119.328 69.416C119.724 70.1 119.922 70.886 119.922 71.774V75.626C119.922 76.526 119.724 77.324 119.328 78.02C118.932 78.716 118.374 79.256 117.654 79.64C116.946 80.012 116.118 80.198 115.17 80.198ZM115.17 78.02C115.83 78.02 116.364 77.81 116.772 77.39C117.18 76.97 117.384 76.412 117.384 75.716V71.756C117.384 71.06 117.18 70.502 116.772 70.082C116.376 69.65 115.842 69.434 115.17 69.434C114.51 69.434 113.976 69.65 113.568 70.082C113.172 70.502 112.974 71.06 112.974 71.756V75.716C112.974 76.412 113.172 76.97 113.568 77.39C113.976 77.81 114.51 78.02 115.17 78.02ZM128.78 80C128.66 80 128.576 79.946 128.528 79.838L126.278 74.852C126.254 74.804 126.218 74.78 126.17 74.78H124.496C124.436 74.78 124.406 74.81 124.406 74.87V79.784C124.406 79.844 124.382 79.898 124.334 79.946C124.298 79.982 124.25 80 124.19 80H122.084C122.024 80 121.97 79.982 121.922 79.946C121.886 79.898 121.868 79.844 121.868 79.784V67.616C121.868 67.556 121.886 67.508 121.922 67.472C121.97 67.424 122.024 67.4 122.084 67.4H127.232C128 67.4 128.672 67.556 129.248 67.868C129.836 68.18 130.286 68.624 130.598 69.2C130.922 69.776 131.084 70.442 131.084 71.198C131.084 72.014 130.88 72.716 130.472 73.304C130.064 73.88 129.494 74.288 128.762 74.528C128.702 74.552 128.684 74.594 128.708 74.654L131.156 79.748C131.18 79.796 131.192 79.832 131.192 79.856C131.192 79.952 131.126 80 130.994 80H128.78ZM124.496 69.578C124.436 69.578 124.406 69.608 124.406 69.668V72.746C124.406 72.806 124.436 72.836 124.496 72.836H126.854C127.358 72.836 127.766 72.686 128.078 72.386C128.402 72.086 128.564 71.696 128.564 71.216C128.564 70.736 128.402 70.346 128.078 70.046C127.766 69.734 127.358 69.578 126.854 69.578H124.496ZM141.198 80C141.078 80 141 79.94 140.964 79.82L140.424 78.056C140.4 78.008 140.37 77.984 140.334 77.984H135.906C135.87 77.984 135.84 78.008 135.816 78.056L135.294 79.82C135.258 79.94 135.18 80 135.06 80H132.774C132.702 80 132.648 79.982 132.612 79.946C132.576 79.898 132.57 79.832 132.594 79.748L136.482 67.58C136.518 67.46 136.596 67.4 136.716 67.4H139.542C139.662 67.4 139.74 67.46 139.776 67.58L143.664 79.748C143.676 79.772 143.682 79.802 143.682 79.838C143.682 79.946 143.616 80 143.484 80H141.198ZM136.464 75.914C136.452 75.986 136.476 76.022 136.536 76.022H139.704C139.776 76.022 139.8 75.986 139.776 75.914L138.156 70.568C138.144 70.52 138.126 70.502 138.102 70.514C138.078 70.514 138.06 70.532 138.048 70.568L136.464 75.914ZM156.878 80C156.758 80 156.68 79.94 156.644 79.82L156.104 78.056C156.08 78.008 156.05 77.984 156.014 77.984H151.586C151.55 77.984 151.52 78.008 151.496 78.056L150.974 79.82C150.938 79.94 150.86 80 150.74 80H148.454C148.382 80 148.328 79.982 148.292 79.946C148.256 79.898 148.25 79.832 148.274 79.748L152.162 67.58C152.198 67.46 152.276 67.4 152.396 67.4H155.222C155.342 67.4 155.42 67.46 155.456 67.58L159.344 79.748C159.356 79.772 159.362 79.802 159.362 79.838C159.362 79.946 159.296 80 159.164 80H156.878ZM152.144 75.914C152.132 75.986 152.156 76.022 152.216 76.022H155.384C155.456 76.022 155.48 75.986 155.456 75.914L153.836 70.568C153.824 70.52 153.806 70.502 153.782 70.514C153.758 70.514 153.74 70.532 153.728 70.568L152.144 75.914ZM164.985 80.144C164.061 80.144 163.245 79.958 162.537 79.586C161.829 79.214 161.277 78.698 160.881 78.038C160.497 77.366 160.305 76.592 160.305 75.716V71.684C160.305 70.808 160.497 70.034 160.881 69.362C161.277 68.69 161.829 68.174 162.537 67.814C163.245 67.442 164.061 67.256 164.985 67.256C165.897 67.256 166.701 67.436 167.397 67.796C168.105 68.156 168.651 68.648 169.035 69.272C169.431 69.884 169.629 70.568 169.629 71.324V71.45C169.629 71.51 169.605 71.564 169.557 71.612C169.521 71.648 169.473 71.666 169.413 71.666H167.307C167.247 71.666 167.193 71.648 167.145 71.612C167.109 71.564 167.091 71.51 167.091 71.45V71.396C167.091 70.844 166.899 70.382 166.515 70.01C166.131 69.626 165.621 69.434 164.985 69.434C164.337 69.434 163.815 69.638 163.419 70.046C163.035 70.442 162.843 70.964 162.843 71.612V75.788C162.843 76.436 163.053 76.964 163.473 77.372C163.893 77.768 164.427 77.966 165.075 77.966C165.699 77.966 166.197 77.804 166.569 77.48C166.941 77.144 167.127 76.682 167.127 76.094V75.284C167.127 75.224 167.097 75.194 167.037 75.194H165.021C164.961 75.194 164.907 75.176 164.859 75.14C164.823 75.092 164.805 75.038 164.805 74.978V73.322C164.805 73.262 164.823 73.214 164.859 73.178C164.907 73.13 164.961 73.106 165.021 73.106H169.413C169.473 73.106 169.521 73.13 169.557 73.178C169.605 73.214 169.629 73.262 169.629 73.322V75.698C169.629 76.61 169.437 77.402 169.053 78.074C168.669 78.746 168.123 79.262 167.415 79.622C166.719 79.97 165.909 80.144 164.985 80.144ZM176.06 80.198C175.124 80.198 174.296 80.006 173.576 79.622C172.868 79.238 172.316 78.704 171.92 78.02C171.524 77.324 171.326 76.526 171.326 75.626V71.774C171.326 70.886 171.524 70.1 171.92 69.416C172.316 68.732 172.868 68.204 173.576 67.832C174.296 67.448 175.124 67.256 176.06 67.256C177.008 67.256 177.836 67.448 178.544 67.832C179.264 68.204 179.822 68.732 180.218 69.416C180.614 70.1 180.812 70.886 180.812 71.774V75.626C180.812 76.526 180.614 77.324 180.218 78.02C179.822 78.716 179.264 79.256 178.544 79.64C177.836 80.012 177.008 80.198 176.06 80.198ZM176.06 78.02C176.72 78.02 177.254 77.81 177.662 77.39C178.07 76.97 178.274 76.412 178.274 75.716V71.756C178.274 71.06 178.07 70.502 177.662 70.082C177.266 69.65 176.732 69.434 176.06 69.434C175.4 69.434 174.866 69.65 174.458 70.082C174.062 70.502 173.864 71.06 173.864 71.756V75.716C173.864 76.412 174.062 76.97 174.458 77.39C174.866 77.81 175.4 78.02 176.06 78.02ZM189.67 80C189.55 80 189.466 79.946 189.418 79.838L187.168 74.852C187.144 74.804 187.108 74.78 187.06 74.78H185.386C185.326 74.78 185.296 74.81 185.296 74.87V79.784C185.296 79.844 185.272 79.898 185.224 79.946C185.188 79.982 185.14 80 185.08 80H182.974C182.914 80 182.86 79.982 182.812 79.946C182.776 79.898 182.758 79.844 182.758 79.784V67.616C182.758 67.556 182.776 67.508 182.812 67.472C182.86 67.424 182.914 67.4 182.974 67.4H188.122C188.89 67.4 189.562 67.556 190.138 67.868C190.726 68.18 191.176 68.624 191.488 69.2C191.812 69.776 191.974 70.442 191.974 71.198C191.974 72.014 191.77 72.716 191.362 73.304C190.954 73.88 190.384 74.288 189.652 74.528C189.592 74.552 189.574 74.594 189.598 74.654L192.046 79.748C192.07 79.796 192.082 79.832 192.082 79.856C192.082 79.952 192.016 80 191.884 80H189.67ZM185.386 69.578C185.326 69.578 185.296 69.608 185.296 69.668V72.746C185.296 72.806 185.326 72.836 185.386 72.836H187.744C188.248 72.836 188.656 72.686 188.968 72.386C189.292 72.086 189.454 71.696 189.454 71.216C189.454 70.736 189.292 70.346 188.968 70.046C188.656 69.734 188.248 69.578 187.744 69.578H185.386ZM202.088 80C201.968 80 201.89 79.94 201.854 79.82L201.314 78.056C201.29 78.008 201.26 77.984 201.224 77.984H196.796C196.76 77.984 196.73 78.008 196.706 78.056L196.184 79.82C196.148 79.94 196.07 80 195.95 80H193.664C193.592 80 193.538 79.982 193.502 79.946C193.466 79.898 193.46 79.832 193.484 79.748L197.372 67.58C197.408 67.46 197.486 67.4 197.606 67.4H200.432C200.552 67.4 200.63 67.46 200.666 67.58L204.554 79.748C204.566 79.772 204.572 79.802 204.572 79.838C204.572 79.946 204.506 80 204.374 80H202.088ZM197.354 75.914C197.342 75.986 197.366 76.022 197.426 76.022H200.594C200.666 76.022 200.69 75.986 200.666 75.914L199.046 70.568C199.034 70.52 199.016 70.502 198.992 70.514C198.968 70.514 198.95 70.532 198.938 70.568L197.354 75.914ZM55.58 103.198C54.644 103.198 53.816 103.006 53.096 102.622C52.388 102.238 51.836 101.704 51.44 101.02C51.044 100.324 50.846 99.526 50.846 98.626V94.774C50.846 93.886 51.044 93.1 51.44 92.416C51.836 91.732 52.388 91.204 53.096 90.832C53.816 90.448 54.644 90.256 55.58 90.256C56.528 90.256 57.356 90.448 58.064 90.832C58.784 91.204 59.342 91.732 59.738 92.416C60.134 93.1 60.332 93.886 60.332 94.774V98.626C60.332 99.526 60.134 100.324 59.738 101.02C59.342 101.716 58.784 102.256 58.064 102.64C57.356 103.012 56.528 103.198 55.58 103.198ZM55.58 101.02C56.24 101.02 56.774 100.81 57.182 100.39C57.59 99.97 57.794 99.412 57.794 98.716V94.756C57.794 94.06 57.59 93.502 57.182 93.082C56.786 92.65 56.252 92.434 55.58 92.434C54.92 92.434 54.386 92.65 53.978 93.082C53.582 93.502 53.384 94.06 53.384 94.756V98.716C53.384 99.412 53.582 99.97 53.978 100.39C54.386 100.81 54.92 101.02 55.58 101.02ZM66.8497 103.144C65.9257 103.144 65.1097 102.964 64.4017 102.604C63.7057 102.244 63.1597 101.74 62.7637 101.092C62.3797 100.432 62.1877 99.676 62.1877 98.824V90.616C62.1877 90.556 62.2057 90.508 62.2417 90.472C62.2897 90.424 62.3437 90.4 62.4037 90.4H64.5097C64.5697 90.4 64.6177 90.424 64.6537 90.472C64.7017 90.508 64.7257 90.556 64.7257 90.616V98.842C64.7257 99.478 64.9177 99.994 65.3017 100.39C65.6977 100.774 66.2137 100.966 66.8497 100.966C67.4857 100.966 67.9957 100.774 68.3797 100.39C68.7757 99.994 68.9737 99.478 68.9737 98.842V90.616C68.9737 90.556 68.9917 90.508 69.0277 90.472C69.0757 90.424 69.1297 90.4 69.1897 90.4H71.2957C71.3557 90.4 71.4037 90.424 71.4397 90.472C71.4877 90.508 71.5117 90.556 71.5117 90.616V98.824C71.5117 99.676 71.3137 100.432 70.9177 101.092C70.5337 101.74 69.9877 102.244 69.2797 102.604C68.5837 102.964 67.7737 103.144 66.8497 103.144ZM85.9495 92.362C85.9495 92.422 85.9255 92.476 85.8775 92.524C85.8415 92.56 85.7935 92.578 85.7335 92.578H79.8295C79.7695 92.578 79.7395 92.608 79.7395 92.668V95.458C79.7395 95.518 79.7695 95.548 79.8295 95.548H83.6995C83.7595 95.548 83.8075 95.572 83.8435 95.62C83.8915 95.656 83.9155 95.704 83.9155 95.764V97.51C83.9155 97.57 83.8915 97.624 83.8435 97.672C83.8075 97.708 83.7595 97.726 83.6995 97.726H79.8295C79.7695 97.726 79.7395 97.756 79.7395 97.816V100.732C79.7395 100.792 79.7695 100.822 79.8295 100.822H85.7335C85.7935 100.822 85.8415 100.846 85.8775 100.894C85.9255 100.93 85.9495 100.978 85.9495 101.038V102.784C85.9495 102.844 85.9255 102.898 85.8775 102.946C85.8415 102.982 85.7935 103 85.7335 103H77.4175C77.3575 103 77.3035 102.982 77.2555 102.946C77.2195 102.898 77.2015 102.844 77.2015 102.784V90.616C77.2015 90.556 77.2195 90.508 77.2555 90.472C77.3035 90.424 77.3575 90.4 77.4175 90.4H85.7335C85.7935 90.4 85.8415 90.424 85.8775 90.472C85.9255 90.508 85.9495 90.556 85.9495 90.616V92.362ZM94.9492 90.616C94.9492 90.556 94.9672 90.508 95.0032 90.472C95.0512 90.424 95.1052 90.4 95.1652 90.4H97.2712C97.3312 90.4 97.3792 90.424 97.4152 90.472C97.4632 90.508 97.4872 90.556 97.4872 90.616V102.784C97.4872 102.844 97.4632 102.898 97.4152 102.946C97.3792 102.982 97.3312 103 97.2712 103H95.2372C95.1172 103 95.0332 102.952 94.9852 102.856L90.3232 95.152C90.2992 95.116 90.2752 95.104 90.2512 95.116C90.2272 95.116 90.2152 95.14 90.2152 95.188L90.2512 102.784C90.2512 102.844 90.2272 102.898 90.1792 102.946C90.1432 102.982 90.0952 103 90.0352 103H87.9292C87.8692 103 87.8152 102.982 87.7672 102.946C87.7312 102.898 87.7132 102.844 87.7132 102.784V90.616C87.7132 90.556 87.7312 90.508 87.7672 90.472C87.8152 90.424 87.8692 90.4 87.9292 90.4H89.9632C90.0832 90.4 90.1672 90.448 90.2152 90.544L94.8592 98.212C94.8832 98.248 94.9072 98.266 94.9312 98.266C94.9552 98.254 94.9672 98.224 94.9672 98.176L94.9492 90.616ZM104.112 103.144C103.176 103.144 102.354 102.964 101.646 102.604C100.938 102.232 100.392 101.716 100.008 101.056C99.6239 100.396 99.4319 99.634 99.4319 98.77V94.612C99.4319 93.748 99.6239 92.986 100.008 92.326C100.392 91.666 100.938 91.156 101.646 90.796C102.354 90.436 103.176 90.256 104.112 90.256C105.036 90.256 105.846 90.43 106.542 90.778C107.25 91.114 107.796 91.6 108.18 92.236C108.576 92.86 108.774 93.586 108.774 94.414C108.774 94.522 108.702 94.588 108.558 94.612L106.452 94.738H106.416C106.296 94.738 106.236 94.672 106.236 94.54C106.236 93.904 106.038 93.394 105.642 93.01C105.258 92.626 104.748 92.434 104.112 92.434C103.464 92.434 102.942 92.626 102.546 93.01C102.162 93.394 101.97 93.904 101.97 94.54V98.878C101.97 99.502 102.162 100.006 102.546 100.39C102.942 100.774 103.464 100.966 104.112 100.966C104.748 100.966 105.258 100.774 105.642 100.39C106.038 100.006 106.236 99.502 106.236 98.878C106.236 98.746 106.308 98.68 106.452 98.68L108.558 98.77C108.618 98.77 108.666 98.788 108.702 98.824C108.75 98.86 108.774 98.902 108.774 98.95C108.774 99.778 108.576 100.51 108.18 101.146C107.796 101.782 107.25 102.274 106.542 102.622C105.846 102.97 105.036 103.144 104.112 103.144ZM118.364 103C118.244 103 118.166 102.94 118.13 102.82L117.59 101.056C117.566 101.008 117.536 100.984 117.5 100.984H113.072C113.036 100.984 113.006 101.008 112.982 101.056L112.46 102.82C112.424 102.94 112.346 103 112.226 103H109.94C109.868 103 109.814 102.982 109.778 102.946C109.742 102.898 109.736 102.832 109.76 102.748L113.648 90.58C113.684 90.46 113.762 90.4 113.882 90.4H116.708C116.828 90.4 116.906 90.46 116.942 90.58L120.83 102.748C120.842 102.772 120.848 102.802 120.848 102.838C120.848 102.946 120.782 103 120.65 103H118.364ZM113.63 98.914C113.618 98.986 113.642 99.022 113.702 99.022H116.87C116.942 99.022 116.966 98.986 116.942 98.914L115.322 93.568C115.31 93.52 115.292 93.502 115.268 93.514C115.244 93.514 115.226 93.532 115.214 93.568L113.63 98.914ZM129.342 103C129.222 103 129.138 102.946 129.09 102.838L126.84 97.852C126.816 97.804 126.78 97.78 126.732 97.78H125.058C124.998 97.78 124.968 97.81 124.968 97.87V102.784C124.968 102.844 124.944 102.898 124.896 102.946C124.86 102.982 124.812 103 124.752 103H122.646C122.586 103 122.532 102.982 122.484 102.946C122.448 102.898 122.43 102.844 122.43 102.784V90.616C122.43 90.556 122.448 90.508 122.484 90.472C122.532 90.424 122.586 90.4 122.646 90.4H127.794C128.562 90.4 129.234 90.556 129.81 90.868C130.398 91.18 130.848 91.624 131.16 92.2C131.484 92.776 131.646 93.442 131.646 94.198C131.646 95.014 131.442 95.716 131.034 96.304C130.626 96.88 130.056 97.288 129.324 97.528C129.264 97.552 129.246 97.594 129.27 97.654L131.718 102.748C131.742 102.796 131.754 102.832 131.754 102.856C131.754 102.952 131.688 103 131.556 103H129.342ZM125.058 92.578C124.998 92.578 124.968 92.608 124.968 92.668V95.746C124.968 95.806 124.998 95.836 125.058 95.836H127.416C127.92 95.836 128.328 95.686 128.64 95.386C128.964 95.086 129.126 94.696 129.126 94.216C129.126 93.736 128.964 93.346 128.64 93.046C128.328 92.734 127.92 92.578 127.416 92.578H125.058ZM142.235 92.362C142.235 92.422 142.211 92.476 142.163 92.524C142.127 92.56 142.079 92.578 142.019 92.578H136.115C136.055 92.578 136.025 92.608 136.025 92.668V95.458C136.025 95.518 136.055 95.548 136.115 95.548H139.985C140.045 95.548 140.093 95.572 140.129 95.62C140.177 95.656 140.201 95.704 140.201 95.764V97.51C140.201 97.57 140.177 97.624 140.129 97.672C140.093 97.708 140.045 97.726 139.985 97.726H136.115C136.055 97.726 136.025 97.756 136.025 97.816V100.732C136.025 100.792 136.055 100.822 136.115 100.822H142.019C142.079 100.822 142.127 100.846 142.163 100.894C142.211 100.93 142.235 100.978 142.235 101.038V102.784C142.235 102.844 142.211 102.898 142.163 102.946C142.127 102.982 142.079 103 142.019 103H133.703C133.643 103 133.589 102.982 133.541 102.946C133.505 102.898 133.487 102.844 133.487 102.784V90.616C133.487 90.556 133.505 90.508 133.541 90.472C133.589 90.424 133.643 90.4 133.703 90.4H142.019C142.079 90.4 142.127 90.424 142.163 90.472C142.211 90.508 142.235 90.556 142.235 90.616V92.362ZM155.702 90.544C155.762 90.448 155.846 90.4 155.954 90.4H158.06C158.12 90.4 158.168 90.424 158.204 90.472C158.252 90.508 158.276 90.556 158.276 90.616V102.784C158.276 102.844 158.252 102.898 158.204 102.946C158.168 102.982 158.12 103 158.06 103H155.954C155.894 103 155.84 102.982 155.792 102.946C155.756 102.898 155.738 102.844 155.738 102.784V94.846C155.738 94.798 155.726 94.774 155.702 94.774C155.678 94.774 155.654 94.792 155.63 94.828L153.722 97.816C153.662 97.912 153.578 97.96 153.47 97.96H152.408C152.3 97.96 152.216 97.912 152.156 97.816L150.248 94.828C150.224 94.792 150.2 94.78 150.176 94.792C150.152 94.792 150.14 94.816 150.14 94.864V102.784C150.14 102.844 150.116 102.898 150.068 102.946C150.032 102.982 149.984 103 149.924 103H147.818C147.758 103 147.704 102.982 147.656 102.946C147.62 102.898 147.602 102.844 147.602 102.784V90.616C147.602 90.556 147.62 90.508 147.656 90.472C147.704 90.424 147.758 90.4 147.818 90.4H149.924C150.032 90.4 150.116 90.448 150.176 90.544L152.876 94.738C152.912 94.81 152.948 94.81 152.984 94.738L155.702 90.544ZM160.685 103C160.625 103 160.571 102.982 160.523 102.946C160.487 102.898 160.469 102.844 160.469 102.784V90.616C160.469 90.556 160.487 90.508 160.523 90.472C160.571 90.424 160.625 90.4 160.685 90.4H162.791C162.851 90.4 162.899 90.424 162.935 90.472C162.983 90.508 163.007 90.556 163.007 90.616V102.784C163.007 102.844 162.983 102.898 162.935 102.946C162.899 102.982 162.851 103 162.791 103H160.685ZM172.434 90.616C172.434 90.556 172.452 90.508 172.488 90.472C172.536 90.424 172.59 90.4 172.65 90.4H174.756C174.816 90.4 174.864 90.424 174.9 90.472C174.948 90.508 174.972 90.556 174.972 90.616V102.784C174.972 102.844 174.948 102.898 174.9 102.946C174.864 102.982 174.816 103 174.756 103H172.722C172.602 103 172.518 102.952 172.47 102.856L167.808 95.152C167.784 95.116 167.76 95.104 167.736 95.116C167.712 95.116 167.7 95.14 167.7 95.188L167.736 102.784C167.736 102.844 167.712 102.898 167.664 102.946C167.628 102.982 167.58 103 167.52 103H165.414C165.354 103 165.3 102.982 165.252 102.946C165.216 102.898 165.198 102.844 165.198 102.784V90.616C165.198 90.556 165.216 90.508 165.252 90.472C165.3 90.424 165.354 90.4 165.414 90.4H167.448C167.568 90.4 167.652 90.448 167.7 90.544L172.344 98.212C172.368 98.248 172.392 98.266 172.416 98.266C172.44 98.254 172.452 98.224 172.452 98.176L172.434 90.616ZM183.864 90.616C183.864 90.556 183.882 90.508 183.918 90.472C183.966 90.424 184.02 90.4 184.08 90.4H186.186C186.246 90.4 186.294 90.424 186.33 90.472C186.378 90.508 186.402 90.556 186.402 90.616V102.784C186.402 102.844 186.378 102.898 186.33 102.946C186.294 102.982 186.246 103 186.186 103H184.08C184.02 103 183.966 102.982 183.918 102.946C183.882 102.898 183.864 102.844 183.864 102.784V97.816C183.864 97.756 183.834 97.726 183.774 97.726H179.796C179.736 97.726 179.706 97.756 179.706 97.816V102.784C179.706 102.844 179.682 102.898 179.634 102.946C179.598 102.982 179.55 103 179.49 103H177.384C177.324 103 177.27 102.982 177.222 102.946C177.186 102.898 177.168 102.844 177.168 102.784V90.616C177.168 90.556 177.186 90.508 177.222 90.472C177.27 90.424 177.324 90.4 177.384 90.4H179.49C179.55 90.4 179.598 90.424 179.634 90.472C179.682 90.508 179.706 90.556 179.706 90.616V95.458C179.706 95.518 179.736 95.548 179.796 95.548H183.774C183.834 95.548 183.864 95.518 183.864 95.458V90.616ZM196.534 103C196.414 103 196.336 102.94 196.3 102.82L195.76 101.056C195.736 101.008 195.706 100.984 195.67 100.984H191.242C191.206 100.984 191.176 101.008 191.152 101.056L190.63 102.82C190.594 102.94 190.516 103 190.396 103H188.11C188.038 103 187.984 102.982 187.948 102.946C187.912 102.898 187.906 102.832 187.93 102.748L191.818 90.58C191.854 90.46 191.932 90.4 192.052 90.4H194.878C194.998 90.4 195.076 90.46 195.112 90.58L199 102.748C199.012 102.772 199.018 102.802 199.018 102.838C199.018 102.946 198.952 103 198.82 103H196.534ZM191.8 98.914C191.788 98.986 191.812 99.022 191.872 99.022H195.04C195.112 99.022 195.136 98.986 195.112 98.914L193.492 93.568C193.48 93.52 193.462 93.502 193.438 93.514C193.414 93.514 193.396 93.532 193.384 93.568L191.8 98.914ZM59.828 115.362C59.828 115.422 59.804 115.476 59.756 115.524C59.72 115.56 59.672 115.578 59.612 115.578H53.726C53.666 115.578 53.636 115.608 53.636 115.668V118.458C53.636 118.518 53.666 118.548 53.726 118.548H57.596C57.656 118.548 57.704 118.572 57.74 118.62C57.788 118.656 57.812 118.704 57.812 118.764V120.51C57.812 120.57 57.788 120.624 57.74 120.672C57.704 120.708 57.656 120.726 57.596 120.726H53.726C53.666 120.726 53.636 120.756 53.636 120.816V125.784C53.636 125.844 53.612 125.898 53.564 125.946C53.528 125.982 53.48 126 53.42 126H51.314C51.254 126 51.2 125.982 51.152 125.946C51.116 125.898 51.098 125.844 51.098 125.784V113.616C51.098 113.556 51.116 113.508 51.152 113.472C51.2 113.424 51.254 113.4 51.314 113.4H59.612C59.672 113.4 59.72 113.424 59.756 113.472C59.804 113.508 59.828 113.556 59.828 113.616V115.362ZM65.7423 126.144C64.8183 126.144 64.0023 125.964 63.2943 125.604C62.5983 125.244 62.0523 124.74 61.6563 124.092C61.2723 123.432 61.0803 122.676 61.0803 121.824V113.616C61.0803 113.556 61.0983 113.508 61.1343 113.472C61.1823 113.424 61.2363 113.4 61.2963 113.4H63.4023C63.4623 113.4 63.5103 113.424 63.5463 113.472C63.5943 113.508 63.6183 113.556 63.6183 113.616V121.842C63.6183 122.478 63.8103 122.994 64.1943 123.39C64.5903 123.774 65.1063 123.966 65.7423 123.966C66.3783 123.966 66.8883 123.774 67.2723 123.39C67.6683 122.994 67.8663 122.478 67.8663 121.842V113.616C67.8663 113.556 67.8843 113.508 67.9203 113.472C67.9683 113.424 68.0223 113.4 68.0823 113.4H70.1883C70.2483 113.4 70.2963 113.424 70.3323 113.472C70.3803 113.508 70.4043 113.556 70.4043 113.616V121.824C70.4043 122.676 70.2063 123.432 69.8103 124.092C69.4263 124.74 68.8803 125.244 68.1723 125.604C67.4763 125.964 66.6663 126.144 65.7423 126.144ZM64.7343 112.284C64.6503 112.284 64.5963 112.26 64.5723 112.212C64.5483 112.164 64.5543 112.104 64.5903 112.032L65.5443 110.214C65.5923 110.106 65.6823 110.052 65.8143 110.052H67.6323C67.7163 110.052 67.7703 110.082 67.7943 110.142C67.8303 110.19 67.8243 110.25 67.7763 110.322L66.4983 112.14C66.4383 112.236 66.3543 112.284 66.2463 112.284H64.7343ZM79.4026 126C79.2826 126 79.1986 125.946 79.1506 125.838L76.9006 120.852C76.8766 120.804 76.8406 120.78 76.7926 120.78H75.1186C75.0586 120.78 75.0286 120.81 75.0286 120.87V125.784C75.0286 125.844 75.0046 125.898 74.9566 125.946C74.9206 125.982 74.8726 126 74.8126 126H72.7066C72.6466 126 72.5926 125.982 72.5446 125.946C72.5086 125.898 72.4906 125.844 72.4906 125.784V113.616C72.4906 113.556 72.5086 113.508 72.5446 113.472C72.5926 113.424 72.6466 113.4 72.7066 113.4H77.8546C78.6226 113.4 79.2946 113.556 79.8706 113.868C80.4586 114.18 80.9086 114.624 81.2206 115.2C81.5446 115.776 81.7066 116.442 81.7066 117.198C81.7066 118.014 81.5026 118.716 81.0946 119.304C80.6866 119.88 80.1166 120.288 79.3846 120.528C79.3246 120.552 79.3066 120.594 79.3306 120.654L81.7786 125.748C81.8026 125.796 81.8146 125.832 81.8146 125.856C81.8146 125.952 81.7486 126 81.6166 126H79.4026ZM75.1186 115.578C75.0586 115.578 75.0286 115.608 75.0286 115.668V118.746C75.0286 118.806 75.0586 118.836 75.1186 118.836H77.4766C77.9806 118.836 78.3886 118.686 78.7006 118.386C79.0246 118.086 79.1866 117.696 79.1866 117.216C79.1866 116.736 79.0246 116.346 78.7006 116.046C78.3886 115.734 77.9806 115.578 77.4766 115.578H75.1186ZM83.7632 126C83.7032 126 83.6492 125.982 83.6012 125.946C83.5652 125.898 83.5472 125.844 83.5472 125.784V113.616C83.5472 113.556 83.5652 113.508 83.6012 113.472C83.6492 113.424 83.7032 113.4 83.7632 113.4H85.8692C85.9292 113.4 85.9772 113.424 86.0132 113.472C86.0612 113.508 86.0852 113.556 86.0852 113.616V125.784C86.0852 125.844 86.0612 125.898 86.0132 125.946C85.9772 125.982 85.9292 126 85.8692 126H83.7632ZM96.2857 126C96.1657 126 96.0877 125.94 96.0517 125.82L95.5117 124.056C95.4877 124.008 95.4577 123.984 95.4217 123.984H90.9937C90.9577 123.984 90.9277 124.008 90.9037 124.056L90.3817 125.82C90.3457 125.94 90.2677 126 90.1477 126H87.8617C87.7897 126 87.7357 125.982 87.6997 125.946C87.6637 125.898 87.6577 125.832 87.6817 125.748L91.5697 113.58C91.6057 113.46 91.6837 113.4 91.8037 113.4H94.6297C94.7497 113.4 94.8277 113.46 94.8637 113.58L98.7517 125.748C98.7637 125.772 98.7697 125.802 98.7697 125.838C98.7697 125.946 98.7037 126 98.5717 126H96.2857ZM91.5517 121.914C91.5397 121.986 91.5637 122.022 91.6237 122.022H94.7917C94.8637 122.022 94.8877 121.986 94.8637 121.914L93.2437 116.568C93.2317 116.52 93.2137 116.502 93.1897 116.514C93.1657 116.514 93.1477 116.532 93.1357 116.568L91.5517 121.914ZM104.171 126C104.111 126 104.057 125.982 104.009 125.946C103.973 125.898 103.955 125.844 103.955 125.784V113.616C103.955 113.556 103.973 113.508 104.009 113.472C104.057 113.424 104.111 113.4 104.171 113.4H106.277C106.337 113.4 106.385 113.424 106.421 113.472C106.469 113.508 106.493 113.556 106.493 113.616V125.784C106.493 125.844 106.469 125.898 106.421 125.946C106.385 125.982 106.337 126 106.277 126H104.171ZM116.784 113.544C116.844 113.448 116.928 113.4 117.036 113.4H119.142C119.202 113.4 119.25 113.424 119.286 113.472C119.334 113.508 119.358 113.556 119.358 113.616V125.784C119.358 125.844 119.334 125.898 119.286 125.946C119.25 125.982 119.202 126 119.142 126H117.036C116.976 126 116.922 125.982 116.874 125.946C116.838 125.898 116.82 125.844 116.82 125.784V117.846C116.82 117.798 116.808 117.774 116.784 117.774C116.76 117.774 116.736 117.792 116.712 117.828L114.804 120.816C114.744 120.912 114.66 120.96 114.552 120.96H113.49C113.382 120.96 113.298 120.912 113.238 120.816L111.33 117.828C111.306 117.792 111.282 117.78 111.258 117.792C111.234 117.792 111.222 117.816 111.222 117.864V125.784C111.222 125.844 111.198 125.898 111.15 125.946C111.114 125.982 111.066 126 111.006 126H108.9C108.84 126 108.786 125.982 108.738 125.946C108.702 125.898 108.684 125.844 108.684 125.784V113.616C108.684 113.556 108.702 113.508 108.738 113.472C108.786 113.424 108.84 113.4 108.9 113.4H111.006C111.114 113.4 111.198 113.448 111.258 113.544L113.958 117.738C113.994 117.81 114.03 117.81 114.066 117.738L116.784 113.544ZM126.753 113.382C127.545 113.382 128.241 113.544 128.841 113.868C129.441 114.192 129.903 114.654 130.227 115.254C130.563 115.842 130.731 116.52 130.731 117.288C130.731 118.044 130.557 118.71 130.209 119.286C129.873 119.862 129.393 120.312 128.769 120.636C128.157 120.948 127.449 121.104 126.645 121.104H124.089C124.029 121.104 123.999 121.134 123.999 121.194V125.784C123.999 125.844 123.975 125.898 123.927 125.946C123.891 125.982 123.843 126 123.783 126H121.677C121.617 126 121.563 125.982 121.515 125.946C121.479 125.898 121.461 125.844 121.461 125.784V113.598C121.461 113.538 121.479 113.49 121.515 113.454C121.563 113.406 121.617 113.382 121.677 113.382H126.753ZM126.375 119.07C126.927 119.07 127.371 118.914 127.707 118.602C128.043 118.278 128.211 117.858 128.211 117.342C128.211 116.814 128.043 116.388 127.707 116.064C127.371 115.74 126.927 115.578 126.375 115.578H124.089C124.029 115.578 123.999 115.608 123.999 115.668V118.98C123.999 119.04 124.029 119.07 124.089 119.07H126.375ZM132.507 126C132.447 126 132.393 125.982 132.345 125.946C132.309 125.898 132.291 125.844 132.291 125.784V113.616C132.291 113.556 132.309 113.508 132.345 113.472C132.393 113.424 132.447 113.4 132.507 113.4H134.613C134.673 113.4 134.721 113.424 134.757 113.472C134.805 113.508 134.829 113.556 134.829 113.616V123.732C134.829 123.792 134.859 123.822 134.919 123.822H140.805C140.865 123.822 140.913 123.846 140.949 123.894C140.997 123.93 141.021 123.978 141.021 124.038V125.784C141.021 125.844 140.997 125.898 140.949 125.946C140.913 125.982 140.865 126 140.805 126H132.507ZM150.901 126C150.781 126 150.703 125.94 150.667 125.82L150.127 124.056C150.103 124.008 150.073 123.984 150.037 123.984H145.609C145.573 123.984 145.543 124.008 145.519 124.056L144.997 125.82C144.961 125.94 144.883 126 144.763 126H142.477C142.405 126 142.351 125.982 142.315 125.946C142.279 125.898 142.273 125.832 142.297 125.748L146.185 113.58C146.221 113.46 146.299 113.4 146.419 113.4H149.245C149.365 113.4 149.443 113.46 149.479 113.58L153.367 125.748C153.379 125.772 153.385 125.802 153.385 125.838C153.385 125.946 153.319 126 153.187 126H150.901ZM146.167 121.914C146.155 121.986 146.179 122.022 146.239 122.022H149.407C149.479 122.022 149.503 121.986 149.479 121.914L147.859 116.568C147.847 116.52 147.829 116.502 147.805 116.514C147.781 116.514 147.763 116.532 147.751 116.568L146.167 121.914ZM159.008 126.144C158.072 126.144 157.25 125.964 156.542 125.604C155.834 125.232 155.288 124.716 154.904 124.056C154.52 123.396 154.328 122.634 154.328 121.77V117.612C154.328 116.748 154.52 115.986 154.904 115.326C155.288 114.666 155.834 114.156 156.542 113.796C157.25 113.436 158.072 113.256 159.008 113.256C159.932 113.256 160.742 113.43 161.438 113.778C162.146 114.114 162.692 114.6 163.076 115.236C163.472 115.86 163.67 116.586 163.67 117.414C163.67 117.522 163.598 117.588 163.454 117.612L161.348 117.738H161.312C161.192 117.738 161.132 117.672 161.132 117.54C161.132 116.904 160.934 116.394 160.538 116.01C160.154 115.626 159.644 115.434 159.008 115.434C158.36 115.434 157.838 115.626 157.442 116.01C157.058 116.394 156.866 116.904 156.866 117.54V121.878C156.866 122.502 157.058 123.006 157.442 123.39C157.838 123.774 158.36 123.966 159.008 123.966C159.644 123.966 160.154 123.774 160.538 123.39C160.934 123.006 161.132 122.502 161.132 121.878C161.132 121.746 161.204 121.68 161.348 121.68L163.454 121.77C163.514 121.77 163.562 121.788 163.598 121.824C163.646 121.86 163.67 121.902 163.67 121.95C163.67 122.778 163.472 123.51 163.076 124.146C162.692 124.782 162.146 125.274 161.438 125.622C160.742 125.97 159.932 126.144 159.008 126.144ZM173.26 126C173.14 126 173.062 125.94 173.026 125.82L172.486 124.056C172.462 124.008 172.432 123.984 172.396 123.984H167.968C167.932 123.984 167.902 124.008 167.878 124.056L167.356 125.82C167.32 125.94 167.242 126 167.122 126H164.836C164.764 126 164.71 125.982 164.674 125.946C164.638 125.898 164.632 125.832 164.656 125.748L168.544 113.58C168.58 113.46 168.658 113.4 168.778 113.4H171.604C171.724 113.4 171.802 113.46 171.838 113.58L175.726 125.748C175.738 125.772 175.744 125.802 175.744 125.838C175.744 125.946 175.678 126 175.546 126H173.26ZM168.526 121.914C168.514 121.986 168.538 122.022 168.598 122.022H171.766C171.838 122.022 171.862 121.986 171.838 121.914L170.218 116.568C170.206 116.52 170.188 116.502 170.164 116.514C170.14 116.514 170.122 116.532 170.11 116.568L168.526 121.914ZM169.156 112.284C169.072 112.284 169.018 112.26 168.994 112.212C168.97 112.164 168.976 112.104 169.012 112.032L169.966 110.214C170.014 110.106 170.104 110.052 170.236 110.052H172.054C172.138 110.052 172.192 110.082 172.216 110.142C172.252 110.19 172.246 110.25 172.198 110.322L170.92 112.14C170.86 112.236 170.776 112.284 170.668 112.284H169.156ZM180.341 126C180.221 126 180.143 125.94 180.107 125.82L176.399 113.652L176.381 113.58C176.381 113.46 176.447 113.4 176.579 113.4H178.847C178.979 113.4 179.063 113.46 179.099 113.58L181.493 122.364C181.505 122.4 181.523 122.418 181.547 122.418C181.571 122.418 181.589 122.4 181.601 122.364L183.959 113.58C183.995 113.46 184.079 113.4 184.211 113.4H186.425C186.497 113.4 186.551 113.424 186.587 113.472C186.623 113.52 186.629 113.58 186.605 113.652L182.843 125.82C182.807 125.94 182.729 126 182.609 126H180.341ZM196.832 115.362C196.832 115.422 196.808 115.476 196.76 115.524C196.724 115.56 196.676 115.578 196.616 115.578H190.712C190.652 115.578 190.622 115.608 190.622 115.668V118.458C190.622 118.518 190.652 118.548 190.712 118.548H194.582C194.642 118.548 194.69 118.572 194.726 118.62C194.774 118.656 194.798 118.704 194.798 118.764V120.51C194.798 120.57 194.774 120.624 194.726 120.672C194.69 120.708 194.642 120.726 194.582 120.726H190.712C190.652 120.726 190.622 120.756 190.622 120.816V123.732C190.622 123.792 190.652 123.822 190.712 123.822H196.616C196.676 123.822 196.724 123.846 196.76 123.894C196.808 123.93 196.832 123.978 196.832 124.038V125.784C196.832 125.844 196.808 125.898 196.76 125.946C196.724 125.982 196.676 126 196.616 126H188.3C188.24 126 188.186 125.982 188.138 125.946C188.102 125.898 188.084 125.844 188.084 125.784V113.616C188.084 113.556 188.102 113.508 188.138 113.472C188.186 113.424 188.24 113.4 188.3 113.4H196.616C196.676 113.4 196.724 113.424 196.76 113.472C196.808 113.508 196.832 113.556 196.832 113.616V115.362ZM198.812 126C198.752 126 198.698 125.982 198.65 125.946C198.614 125.898 198.596 125.844 198.596 125.784V113.616C198.596 113.556 198.614 113.508 198.65 113.472C198.698 113.424 198.752 113.4 198.812 113.4H200.918C200.978 113.4 201.026 113.424 201.062 113.472C201.11 113.508 201.134 113.556 201.134 113.616V123.732C201.134 123.792 201.164 123.822 201.224 123.822H207.11C207.17 123.822 207.218 123.846 207.254 123.894C207.302 123.93 207.326 123.978 207.326 124.038V125.784C207.326 125.844 207.302 125.898 207.254 125.946C207.218 125.982 207.17 126 207.11 126H198.812ZM210.139 126.072C209.731 126.072 209.389 125.94 209.113 125.676C208.849 125.4 208.717 125.058 208.717 124.65C208.717 124.23 208.849 123.888 209.113 123.624C209.377 123.36 209.719 123.228 210.139 123.228C210.559 123.228 210.901 123.36 211.165 123.624C211.429 123.888 211.561 124.23 211.561 124.65C211.561 125.058 211.423 125.4 211.147 125.676C210.883 125.94 210.547 126.072 210.139 126.072Z" fill="white"/>
<defs>
<filter id="filter0_d_388_459" x="0" y="0" width="261" height="182.057" filterUnits="userSpaceOnUse" color-interpolation-filters="sRGB">
<feFlood flood-opacity="0" result="BackgroundImageFix"/>
<feColorMatrix in="SourceAlpha" type="matrix" values="0 0 0 0 0 0 0 0 0 0 0 0 0 0 0 0 0 0 127 0" result="hardAlpha"/>
<feOffset dy="4"/>
<feGaussianBlur stdDeviation="2"/>
<feComposite in2="hardAlpha" operator="out"/>
<feColorMatrix type="matrix" values="0 0 0 0 0 0 0 0 0 0 0 0 0 0 0 0 0 0 0.45 0"/>
<feBlend mode="normal" in2="BackgroundImageFix" result="effect1_dropShadow_388_459"/>
<feBlend mode="normal" in="SourceGraphic" in2="effect1_dropShadow_388_459" result="shape"/>
</filter>
</defs>
</svg>
