<svg width="32" height="25" viewBox="0 0 32 25" fill="none" xmlns="http://www.w3.org/2000/svg" role="img" aria-labelledby="svg-carrinho"><title id="svg-carrinho">Ãcone de carrinho</title>
<path d="M31.9502 17.4798L25.4627 5.23489C25.4538 5.21827 25.4416 5.20389 25.4307 5.18876C25.4233 5.1781 25.4173 5.16669 25.4086 5.15702C25.4002 5.1471 25.3895 5.13891 25.3799 5.12973C25.3719 5.12229 25.3645 5.1151 25.3563 5.1084C25.3541 5.10667 25.3521 5.10444 25.3498 5.1027C25.3441 5.09799 25.3399 5.09228 25.3337 5.08856C25.3059 5.06872 25.2757 5.05235 25.2437 5.03946L25.2412 5.03797L12.4515 0.029336C12.2955 -0.0319229 12.1177 0.00453498 11.9979 0.12209L9.52476 2.5526C9.4945 2.58236 9.47118 2.61658 9.45109 2.65279C9.44514 2.6642 9.44068 2.67586 9.43547 2.68752C9.42406 2.7138 9.41513 2.74084 9.40918 2.76936C9.40645 2.78276 9.40372 2.79565 9.40199 2.80929C9.39851 2.83955 9.39926 2.87006 9.40223 2.90056C9.40323 2.91123 9.40248 2.92164 9.40471 2.93231C9.40546 2.93553 9.40471 2.93876 9.40546 2.94148C9.41339 2.97993 9.42704 3.01589 9.44415 3.04961C9.44415 3.04961 9.44514 3.05358 9.44638 3.05557L10.9759 5.94296L0.400786 9.54215C0.397314 9.5424 0.39409 9.54389 0.39037 9.54438C0.366312 9.54661 0.342751 9.55232 0.318942 9.55827C0.307286 9.56149 0.295381 9.56249 0.28422 9.56645C0.25049 9.57861 0.217999 9.59423 0.187745 9.61457L0.186009 9.61531C0.166168 9.6292 0.149303 9.64631 0.131943 9.66268C0.124006 9.67012 0.11483 9.67583 0.107885 9.68376C0.0865558 9.70757 0.0686989 9.73436 0.0535702 9.76189C0.0525782 9.76412 0.0508421 9.76586 0.049354 9.76784C0.0347212 9.79562 0.023809 9.82538 0.0156243 9.85613C0.0148803 9.85861 0.0133922 9.86109 0.0128962 9.86407C0.00421565 9.8978 0 9.93227 0 9.96749V19.3845C0 19.5599 0.107389 19.7168 0.27058 19.7808L11.6279 24.2267C11.6321 24.2284 11.6371 24.2277 11.6418 24.2292C11.6877 24.2455 11.735 24.2559 11.7834 24.2559C11.8318 24.2559 11.8791 24.2455 11.925 24.2292C11.9297 24.2277 11.9342 24.2284 11.9389 24.2267L23.2962 19.7808C23.4594 19.7168 23.5668 19.5596 23.5668 19.3845V18.3996L28.9462 20.5063C28.9512 20.508 28.9566 20.508 28.9616 20.5097C28.9856 20.5182 29.0102 20.5264 29.0362 20.5303C29.0434 20.5313 29.0504 20.5313 29.0576 20.5321C29.0635 20.5328 29.0697 20.5331 29.0757 20.5336C29.0839 20.5338 29.092 20.5353 29.0997 20.5353L29.1012 20.5355C29.1151 20.5355 29.128 20.5308 29.1414 20.5296C29.1635 20.5274 29.1848 20.5254 29.2061 20.5199C29.22 20.5164 29.2332 20.512 29.2466 20.507C29.257 20.5035 29.2661 20.4991 29.2758 20.4949C29.2905 20.4882 29.3043 20.4815 29.3182 20.4728C29.3356 20.4624 29.3512 20.45 29.3673 20.4368C29.3778 20.4284 29.3902 20.4227 29.3996 20.413L31.8728 17.9825C32.0067 17.8508 32.0383 17.646 31.9502 17.4798ZM24.3192 5.59095L22.5856 7.2948L22.5112 7.36772L10.5907 2.69965L12.3982 0.922912L24.3192 5.59095ZM11.5899 6.63411L21.8812 10.0029L11.7835 13.956L1.68777 10.0042L11.5899 6.63411ZM22.7148 19.0941L12.2089 23.2065V14.7037L22.7142 10.5912L22.7148 19.0941ZM29.2093 19.4059L23.138 7.94573L24.9774 6.13821L31.0488 17.5977L29.2093 19.4059Z" fill="currentColor"/>
</svg>
