<svg width="356" height="57" viewBox="0 0 356 57" fill="none" xmlns="http://www.w3.org/2000/svg"  role="img" aria-labelledby="svg-carrinho"><title id="svg-carrinho">Logo Gama Zone</title>
<path d="M89.1916 13.0739C89.1916 12.7951 89.2718 12.5761 89.4321 12.4168C89.5925 12.2575 89.813 12.1779 90.0936 12.1779H99.5945C99.8752 12.1779 100.096 12.2575 100.256 12.4168C100.416 12.5761 100.497 12.7951 100.497 13.0739V39.1773C100.497 44.8719 98.8329 48.9139 95.5055 51.3032C92.2183 53.7324 88.0691 54.9469 83.0581 54.9469C80.8131 54.9469 78.7085 54.7677 76.7442 54.4093C76.223 54.2899 75.9624 53.9514 75.9624 53.3939L76.3232 45.3299C76.3232 44.6529 76.684 44.414 77.4056 44.6131C79.0893 45.0511 80.6728 45.2701 82.1561 45.2701C84.0803 45.2701 85.6638 44.8719 86.9066 44.0755C88.1493 43.279 88.8909 42.0645 89.1315 40.4317C89.1716 40.2725 89.1315 40.1729 89.0112 40.1331C88.931 40.0933 88.8308 40.1331 88.7105 40.2525C87.3475 41.5269 85.3832 42.164 82.8176 42.164C76.4034 42.164 72.3144 39.5756 70.5505 34.3987C69.869 32.4076 69.5283 30.078 69.5283 27.4099C69.5283 24.463 69.9492 21.9542 70.791 19.8835C71.7532 17.3747 73.2565 15.3836 75.301 13.9101C77.3856 12.4367 79.7708 11.7 82.4568 11.7C85.2229 11.7 87.3475 12.5363 88.8308 14.2088C88.911 14.2885 88.9912 14.3283 89.0713 14.3283C89.1515 14.2885 89.1916 14.2088 89.1916 14.0893V13.0739ZM88.5903 31.4717C88.9912 30.4364 89.1916 29.0625 89.1916 27.3501C89.1916 25.7573 88.9711 24.463 88.5301 23.4675C87.8486 22.0339 86.7061 21.3171 85.1026 21.3171C83.6995 21.3171 82.6372 22.014 81.9156 23.4077C81.2742 24.5228 80.9534 25.8966 80.9534 27.5293C80.9534 29.1222 81.214 30.4165 81.7352 31.412C82.4568 32.8058 83.6193 33.5027 85.2229 33.5027C86.8264 33.5027 87.9489 32.8257 88.5903 31.4717Z" fill="black"/>
<path d="M118.075 11.7C120.801 11.7 123.307 12.158 125.592 13.0739C127.877 13.9898 129.681 15.2442 131.004 16.8371C132.327 18.43 132.988 20.1622 132.988 22.0339V42.3432C132.988 42.622 132.908 42.841 132.748 43.0003C132.587 43.1596 132.367 43.2392 132.086 43.2392H122.585C122.305 43.2392 122.084 43.1596 121.924 43.0003C121.764 42.841 121.683 42.622 121.683 42.3432V40.2525C121.683 40.0933 121.643 40.0136 121.563 40.0136C121.523 39.9738 121.463 40.0136 121.383 40.1331C120.701 41.3676 119.759 42.2835 118.556 42.8808C117.354 43.4383 115.77 43.7171 113.806 43.7171C110.519 43.7171 107.933 42.9804 106.049 41.5069C104.165 39.9937 103.223 37.8035 103.223 34.9363C103.223 31.9098 104.285 29.5802 106.41 27.9475C108.574 26.3148 111.701 25.4984 115.79 25.4984H121.383C121.583 25.4984 121.683 25.3989 121.683 25.1997V24.1245C121.683 23.2883 121.363 22.6113 120.721 22.0936C120.12 21.5759 119.298 21.3171 118.256 21.3171C117.534 21.3171 116.893 21.4365 116.332 21.6755C115.77 21.9144 115.369 22.233 115.129 22.6312C114.969 22.91 114.808 23.1091 114.648 23.2285C114.528 23.3082 114.347 23.3281 114.107 23.2883L104.425 22.0936C103.864 22.014 103.583 21.775 103.583 21.3768C103.744 19.5848 104.465 17.9521 105.748 16.4787C107.031 15.0053 108.735 13.8504 110.86 13.0141C113.024 12.1381 115.43 11.7 118.075 11.7ZM117.294 35.9517C118.577 35.9517 119.619 35.6133 120.421 34.9363C121.262 34.2593 121.683 33.3434 121.683 32.1885V31.412C121.683 31.2129 121.583 31.1133 121.383 31.1133H118.376C115.851 31.1133 114.588 31.9297 114.588 33.5624C114.588 34.2792 114.808 34.8566 115.249 35.2947C115.73 35.7327 116.412 35.9517 117.294 35.9517Z" fill="black"/>
<path d="M173.941 11.7C177.108 11.7 179.573 12.6757 181.337 14.6269C183.101 16.5782 183.983 19.326 183.983 22.8701V42.3432C183.983 42.622 183.903 42.841 183.743 43.0003C183.582 43.1596 183.362 43.2392 183.081 43.2392H173.58C173.299 43.2392 173.079 43.1596 172.919 43.0003C172.758 42.841 172.678 42.622 172.678 42.3432V25.3192C172.678 24.1245 172.377 23.1688 171.776 22.452C171.215 21.6954 170.473 21.3171 169.551 21.3171C168.589 21.3171 167.807 21.6954 167.206 22.452C166.605 23.1688 166.304 24.1245 166.304 25.3192V42.3432C166.304 42.622 166.224 42.841 166.064 43.0003C165.903 43.1596 165.683 43.2392 165.402 43.2392H155.901C155.621 43.2392 155.4 43.1596 155.24 43.0003C155.079 42.841 154.999 42.622 154.999 42.3432V25.3192C154.999 24.1245 154.678 23.1688 154.037 22.452C153.436 21.6954 152.634 21.3171 151.632 21.3171C150.75 21.3171 150.008 21.5958 149.407 22.1533C148.846 22.671 148.485 23.3878 148.324 24.3037C148.284 24.3834 148.264 24.5029 148.264 24.6621V42.3432C148.264 42.622 148.184 42.841 148.024 43.0003C147.863 43.1596 147.643 43.2392 147.362 43.2392H137.861C137.581 43.2392 137.36 43.1596 137.2 43.0003C137.04 42.841 136.959 42.622 136.959 42.3432V13.0739C136.959 12.7951 137.04 12.5761 137.2 12.4168C137.36 12.2575 137.581 12.1779 137.861 12.1779H147.362C147.643 12.1779 147.863 12.2575 148.024 12.4168C148.184 12.5761 148.264 12.7951 148.264 13.0739V16.0605C148.264 16.2198 148.304 16.2995 148.385 16.2995C148.465 16.2995 148.545 16.2397 148.625 16.1203C150.148 13.1734 152.714 11.7 156.322 11.7C158.367 11.7 160.151 12.1779 161.674 13.1336C163.237 14.0495 164.42 15.3836 165.222 17.1357C165.342 17.3349 165.462 17.3149 165.582 17.076C166.384 15.284 167.487 13.95 168.89 13.0739C170.333 12.158 172.017 11.7 173.941 11.7Z" fill="black"/>
<path d="M201.345 11.7C204.071 11.7 206.576 12.158 208.861 13.0739C211.147 13.9898 212.951 15.2442 214.273 16.8371C215.596 18.43 216.258 20.1622 216.258 22.0339V42.3432C216.258 42.622 216.178 42.841 216.017 43.0003C215.857 43.1596 215.636 43.2392 215.356 43.2392H205.855C205.574 43.2392 205.354 43.1596 205.193 43.0003C205.033 42.841 204.953 42.622 204.953 42.3432V40.2525C204.953 40.0933 204.913 40.0136 204.833 40.0136C204.793 39.9738 204.732 40.0136 204.652 40.1331C203.971 41.3676 203.029 42.2835 201.826 42.8808C200.623 43.4383 199.04 43.7171 197.076 43.7171C193.788 43.7171 191.203 42.9804 189.318 41.5069C187.434 39.9937 186.492 37.8035 186.492 34.9363C186.492 31.9098 187.555 29.5802 189.679 27.9475C191.844 26.3148 194.971 25.4984 199.06 25.4984H204.652C204.853 25.4984 204.953 25.3989 204.953 25.1997V24.1245C204.953 23.2883 204.632 22.6113 203.991 22.0936C203.389 21.5759 202.568 21.3171 201.525 21.3171C200.804 21.3171 200.162 21.4365 199.601 21.6755C199.04 21.9144 198.639 22.233 198.398 22.6312C198.238 22.91 198.078 23.1091 197.917 23.2285C197.797 23.3082 197.617 23.3281 197.376 23.2883L187.695 22.0936C187.134 22.014 186.853 21.775 186.853 21.3768C187.013 19.5848 187.735 17.9521 189.018 16.4787C190.301 15.0053 192.004 13.8504 194.129 13.0141C196.294 12.1381 198.699 11.7 201.345 11.7ZM200.563 35.9517C201.846 35.9517 202.888 35.6133 203.69 34.9363C204.532 34.2593 204.953 33.3434 204.953 32.1885V31.412C204.953 31.2129 204.853 31.1133 204.652 31.1133H201.646C199.12 31.1133 197.857 31.9297 197.857 33.5624C197.857 34.2792 198.078 34.8566 198.519 35.2947C199 35.7327 199.681 35.9517 200.563 35.9517Z" fill="black"/>
<path d="M225.761 43.7171C224.117 43.7171 222.754 43.1994 221.672 42.164C220.63 41.0888 220.109 39.7349 220.109 38.1021C220.109 36.4296 220.63 35.0757 221.672 34.0403C222.754 33.0049 224.117 32.4872 225.761 32.4872C227.405 32.4872 228.748 33.0049 229.79 34.0403C230.872 35.0757 231.414 36.4296 231.414 38.1021C231.414 39.695 230.872 41.0291 229.79 42.1043C228.708 43.1795 227.365 43.7171 225.761 43.7171Z" fill="#49D13A"/>
<path d="M236.505 43.2392C236.104 43.2392 235.904 43.0401 235.904 42.6419V38.4605C235.904 38.1818 235.984 37.9429 236.144 37.7437L252.079 18.3901C252.16 18.3105 252.18 18.2508 252.14 18.2109C252.099 18.1313 252.039 18.0915 251.959 18.0915H236.806C236.405 18.0915 236.204 17.8924 236.204 17.4941V13.4323C236.204 13.0341 236.405 12.8349 236.806 12.8349H258.514C258.914 12.8349 259.115 13.0341 259.115 13.4323V17.6733C259.115 17.9521 259.035 18.191 258.874 18.3901L242.699 37.7437C242.619 37.8234 242.599 37.903 242.639 37.9827C242.679 38.0225 242.739 38.0424 242.819 38.0424H258.574C258.975 38.0424 259.175 38.2415 259.175 38.6397V42.6419C259.175 43.0401 258.975 43.2392 258.574 43.2392H236.505Z" fill="black"/>
<path d="M277.947 43.7171C274.98 43.7171 272.395 42.9804 270.19 41.5069C267.985 39.9937 266.441 37.903 265.559 35.2349C264.838 33.0845 264.477 30.6554 264.477 27.9475C264.477 25.1201 264.818 22.7308 265.499 20.7795C266.381 18.1512 267.925 16.1004 270.13 14.6269C272.334 13.1137 274.96 12.3571 278.007 12.3571C280.893 12.3571 283.399 13.1137 285.523 14.6269C287.688 16.1004 289.232 18.1313 290.154 20.7197C290.875 22.7507 291.236 25.14 291.236 27.8877C291.236 30.6753 290.875 33.1244 290.154 35.2349C289.272 37.903 287.748 39.9937 285.584 41.5069C283.419 42.9804 280.873 43.7171 277.947 43.7171ZM277.947 38.7592C279.55 38.7592 280.953 38.3212 282.156 37.4451C283.359 36.5292 284.221 35.2549 284.742 33.6221C285.183 32.1089 285.403 30.2373 285.403 28.0072C285.403 25.7772 285.203 23.9254 284.802 22.452C284.281 20.8193 283.419 19.5649 282.216 18.6888C281.014 17.7729 279.55 17.3149 277.826 17.3149C276.183 17.3149 274.76 17.7729 273.557 18.6888C272.354 19.5649 271.493 20.8193 270.971 22.452C270.53 23.8458 270.31 25.6975 270.31 28.0072C270.31 30.3169 270.53 32.1885 270.971 33.6221C271.452 35.2549 272.294 36.5292 273.497 37.4451C274.74 38.3212 276.223 38.7592 277.947 38.7592Z" fill="black"/>
<path d="M312.444 12.4168C315.731 12.4168 318.337 13.3725 320.261 15.284C322.186 17.1557 323.148 19.7043 323.148 22.9299V42.6419C323.148 43.0401 322.947 43.2392 322.546 43.2392H317.976C317.575 43.2392 317.375 43.0401 317.375 42.6419V24.0648C317.375 22.0737 316.794 20.4609 315.631 19.2264C314.468 17.9919 312.925 17.3747 311.001 17.3747C309.117 17.3747 307.573 17.9919 306.371 19.2264C305.168 20.4609 304.567 22.0538 304.567 24.0051V42.6419C304.567 43.0401 304.366 43.2392 303.965 43.2392H299.395C298.994 43.2392 298.794 43.0401 298.794 42.6419V13.4323C298.794 13.0341 298.994 12.8349 299.395 12.8349H303.965C304.366 12.8349 304.567 13.0341 304.567 13.4323V15.5827C304.567 15.6623 304.587 15.7221 304.627 15.7619C304.707 15.8017 304.767 15.7818 304.807 15.7021C306.531 13.5119 309.077 12.4168 312.444 12.4168Z" fill="black"/>
<path d="M355.808 24.244C355.968 25.8767 356.028 27.7085 355.988 29.7395C355.988 30.1377 355.788 30.3368 355.387 30.3368H336.204C336.044 30.3368 335.964 30.4165 335.964 30.5757C335.964 31.9297 336.084 32.9651 336.325 33.6819C336.766 35.2748 337.648 36.5292 338.97 37.4451C340.333 38.3212 342.037 38.7592 344.082 38.7592C347.048 38.7592 349.333 37.5446 350.937 35.1155C351.137 34.7173 351.398 34.6575 351.719 34.9363L355.146 37.2061C355.427 37.4451 355.487 37.7039 355.327 37.9827C354.204 39.7747 352.601 41.1884 350.516 42.2237C348.471 43.2591 346.146 43.7768 343.541 43.7768C340.614 43.7768 338.149 43.1397 336.144 41.8653C334.14 40.591 332.637 38.7791 331.634 36.4296C330.672 34.0801 330.191 31.2328 330.191 27.8877C330.191 24.9807 330.412 22.7706 330.853 21.2573C331.574 18.5096 333.017 16.3393 335.182 14.7464C337.347 13.1535 339.973 12.3571 343.059 12.3571C347.108 12.3571 350.135 13.3725 352.139 15.4035C354.144 17.3946 355.367 20.3414 355.808 24.244ZM343.059 17.3149C341.336 17.3149 339.913 17.753 338.79 18.6291C337.668 19.4653 336.906 20.6003 336.505 22.0339C336.224 22.91 336.044 24.025 335.964 25.3789C335.964 25.5382 336.044 25.6179 336.204 25.6179H349.975C350.135 25.6179 350.215 25.5382 350.215 25.3789C350.135 24.0648 350.015 23.0892 349.854 22.452C349.454 20.8989 348.652 19.6645 347.449 18.7485C346.287 17.7928 344.823 17.3149 343.059 17.3149Z" fill="black"/>
<ellipse cx="28.1871" cy="28.5" rx="28.1871" ry="28" fill="black"/>
<path d="M38.0525 15.4333H18.3215C16.5053 15.4333 15.0331 16.8957 15.0331 18.6999V38.2999C15.0331 40.1041 16.5053 41.5664 18.3215 41.5664H38.0525C39.8687 41.5664 41.3409 40.1041 41.3409 38.2999L41.3411 18.7005C41.3411 16.8961 39.869 15.4333 38.0525 15.4333ZM21.61 18.7001C23.4262 18.7001 24.8984 20.1625 24.8984 21.9667C24.8984 23.7709 23.4262 25.2332 21.61 25.2332C19.7938 25.2332 18.3216 23.7709 18.3216 21.9667C18.3216 20.1625 19.7938 18.7001 21.61 18.7001ZM21.61 38.3001C19.7938 38.3001 18.3216 36.8378 18.3216 35.0336C18.3216 33.2294 19.7938 31.7671 21.61 31.7671C23.4262 31.7671 24.8984 33.2294 24.8984 35.0336C24.8986 36.8378 23.4264 38.3001 21.61 38.3001ZM28.187 31.7668C26.3708 31.7668 24.8986 30.3045 24.8986 28.5003C24.8986 26.6961 26.3708 25.2337 28.187 25.2337C30.0032 25.2337 31.4754 26.6961 31.4754 28.5003C31.4754 30.3045 30.0032 31.7668 28.187 31.7668ZM34.764 38.3001C32.9478 38.3001 31.4756 36.8378 31.4756 35.0336C31.4756 33.2294 32.9478 31.7671 34.764 31.7671C36.5802 31.7671 38.0524 33.2294 38.0524 35.0336C38.0524 36.8378 36.5802 38.3001 34.764 38.3001ZM34.764 25.2335C32.9478 25.2335 31.4756 23.7711 31.4756 21.9669C31.4756 20.1628 32.9478 18.7004 34.764 18.7004C36.5802 18.7004 38.0524 20.1628 38.0524 21.9669C38.0524 23.7711 36.5802 25.2335 34.764 25.2335Z" fill="#49D13A"/>
</svg>
