<svg width="284" height="198" viewBox="0 0 284 198" fill="none" xmlns="http://www.w3.org/2000/svg" role="img" aria-labelledby="logo-gama-zone-admin-sidebar"><title id="svg-carrinho">Logo Gama Zone</title>
<path d="M230.581 161.451H263.541V148.064H252.232V144.534H261.012V134.779H252.232V131.185H263.28V117.378H230.581V161.451Z" stroke="white" stroke-width="4.869"/>
<path d="M186.077 161.451H204.064L201.114 139.736H202.089L205.491 157.111L206.46 161.451H228.92V117.378H210.71L213.17 135.136L212.232 135.2L209.506 121.947L208.505 117.378H186.077V161.451Z" stroke="white" stroke-width="4.869"/>
<path d="M138.709 141.552C138.741 155.423 146.52 162.617 161.685 162.617C176.887 162.617 184.698 155.423 184.698 141.552V137.111C184.698 123.31 176.887 116.18 161.685 116.18C146.52 116.18 138.709 123.31 138.709 137.079V141.552ZM160.78 144.438V134.231C160.78 133.613 161.104 133.288 161.685 133.288C162.271 133.288 162.595 133.613 162.595 134.231V144.438C162.595 145.05 162.271 145.375 161.685 145.375C161.104 145.375 160.78 145.05 160.78 144.438Z" stroke="white" stroke-width="4.869"/>
<path d="M101.361 161.451H137.692V146.77H126.542L137.335 129.012L137.367 117.378H102.043V132.026H112.218L101.361 149.555V161.451Z" stroke="white" stroke-width="4.869"/>
<path d="M230.581 161.451H263.541V148.065H252.231V144.534H261.011V134.779H252.231V131.18H263.28V117.378H230.581V161.451Z" fill="black"/>
<path d="M186.077 161.451H204.064L201.114 139.737H202.088L205.491 157.106L206.46 161.451H228.919V117.378H210.709L213.169 135.136L212.232 135.2L209.511 121.947L208.504 117.378H186.077V161.451Z" fill="#00BF63"/>
<path d="M138.708 141.552C138.745 155.423 146.519 162.617 161.69 162.617C176.886 162.617 184.698 155.423 184.698 141.552V137.112C184.698 123.305 176.886 116.18 161.69 116.18C146.519 116.18 138.708 123.305 138.708 137.08V141.552ZM160.779 144.438V134.231C160.779 133.613 161.104 133.288 161.69 133.288C162.27 133.288 162.595 133.613 162.595 134.231V144.438C162.595 145.051 162.27 145.376 161.69 145.376C161.104 145.376 160.779 145.051 160.779 144.438Z" fill="black"/>
<path d="M101.361 161.451H137.691V146.771H126.541L137.334 129.013L137.366 117.378H102.042V132.027H112.218L101.361 149.555V161.451Z" fill="#00BF63"/>
<path d="M258.706 114.423H280L268.238 70.3501H246.071L234.303 114.423H255.693L255.826 111.313H258.547L258.706 114.423ZM256.278 100.424L256.731 89.2102H257.381L257.961 100.424H256.278Z" stroke="white" stroke-width="4.869"/>
<path d="M178.362 114.423H196.349L193.431 92.6766H194.405L198.585 114.423H213.526L217.674 92.6766H218.643L215.731 114.423H233.712V70.3501H207.754L206.492 91.5744H205.619L204.32 70.3501H178.362V114.423Z" stroke="white" stroke-width="4.869"/>
<path d="M156.472 114.423H177.766L166.003 70.3501H143.836L132.069 114.423H153.458L153.591 111.313H156.312L156.472 114.423ZM154.044 100.424L154.497 89.2102H155.146L155.727 100.424H154.044Z" stroke="white" stroke-width="4.869"/>
<path d="M108.874 115.589C118.177 115.589 125.892 114.066 131.531 111.052V90.0515H109.008L108.976 99.5135H109.913V102.985C109.588 103.145 109.231 103.241 108.874 103.241C108.23 103.273 107.873 102.953 107.873 102.304V84.8972C107.873 84.2849 108.198 83.9601 108.842 83.9601C109.46 83.9601 109.785 84.2849 109.785 84.8972V88.5287L131.435 88.5606V86.4573C131.366 75.0465 123.688 69.152 108.874 69.152C93.7097 69.152 85.8983 76.1807 85.8983 89.8918V94.881C85.8983 108.555 93.7097 115.589 108.874 115.589Z" stroke="white" stroke-width="4.869"/>
<path d="M258.706 114.423H279.999L268.237 70.3504H246.07L234.303 114.423H255.692L255.825 111.313H258.546L258.706 114.423ZM256.278 100.424L256.73 89.2105H257.38L257.96 100.424H256.278Z" fill="#00BF63"/>
<path d="M178.361 114.423H196.348L193.43 92.6769H194.405L198.584 114.423H213.526L217.674 92.6769H218.643L215.73 114.423H233.717V70.3504H207.754L206.492 91.5747H205.618L204.319 70.3504H178.361V114.423Z" fill="black"/>
<path d="M156.471 114.423H177.765L166.002 70.3504H143.836L132.068 114.423H153.457L153.591 111.313H156.312L156.471 114.423ZM154.043 100.424L154.496 89.2105H155.145L155.726 100.424H154.043Z" fill="#00BF63"/>
<path d="M108.879 115.589C118.176 115.589 125.892 114.066 131.53 111.052V90.0518H109.007L108.975 99.5138H109.912V102.986C109.593 103.145 109.236 103.241 108.879 103.241C108.23 103.273 107.873 102.948 107.873 102.304V84.8975C107.873 84.2852 108.198 83.9604 108.847 83.9604C109.46 83.9604 109.784 84.2852 109.784 84.8975V88.529L131.435 88.5609V86.4577C131.365 75.0468 123.687 69.1523 108.879 69.1523C93.7091 69.1523 85.8977 76.181 85.8977 89.8921V94.8813C85.8977 108.555 93.7091 115.589 108.879 115.589Z" fill="black"/>
<mask id="mask0_198_646" style="mask-type:luminance" maskUnits="userSpaceOnUse" x="0" y="162" width="82" height="36">
<path d="M0 162.212H81.7876V197.653H0V162.212Z" fill="white"/>
</mask>
<g mask="url(#mask0_198_646)">
<mask id="mask1_198_646" style="mask-type:luminance" maskUnits="userSpaceOnUse" x="-3" y="-7" width="113" height="216">
<path d="M30.1112 -6.1554L109.838 6.77833L77.0964 208.606L-2.62512 195.678L30.1112 -6.1554Z" fill="white"/>
</mask>
<g mask="url(#mask1_198_646)">
<mask id="mask2_198_646" style="mask-type:luminance" maskUnits="userSpaceOnUse" x="-3" y="-7" width="113" height="216">
<path d="M30.1112 -6.1554L109.838 6.77833L77.0964 208.606L-2.62512 195.678L30.1112 -6.1554Z" fill="white"/>
</mask>
<g mask="url(#mask2_198_646)">
<path d="M3.18411 163.197C2.16177 185.257 77.7993 195.369 81.1006 175.832L79.1358 187.92C74.8174 204.426 5.45777 196.961 1.22462 175.284L3.18411 163.197Z" fill="#00BF63" stroke="#2B2B2B" stroke-width="1.01962" stroke-linecap="round" stroke-linejoin="round"/>
</g>
</g>
</g>
<mask id="mask3_198_646" style="mask-type:luminance" maskUnits="userSpaceOnUse" x="2" y="137" width="80" height="50">
<path d="M2.72632 137.676H81.7876V186.748H2.72632V137.676Z" fill="white"/>
</mask>
<g mask="url(#mask3_198_646)">
<mask id="mask4_198_646" style="mask-type:luminance" maskUnits="userSpaceOnUse" x="-3" y="-7" width="113" height="216">
<path d="M30.1113 -6.1554L109.838 6.77833L77.0966 208.606L-2.625 195.678L30.1113 -6.1554Z" fill="white"/>
</mask>
<g mask="url(#mask4_198_646)">
<mask id="mask5_198_646" style="mask-type:luminance" maskUnits="userSpaceOnUse" x="-3" y="-7" width="113" height="216">
<path d="M30.1113 -6.1554L109.838 6.77833L77.0966 208.606L-2.625 195.678L30.1113 -6.1554Z" fill="white"/>
</mask>
<g mask="url(#mask5_198_646)">
<path d="M21.7036 137.835C26.9538 149.678 63.6783 155.668 70.2011 145.7C67.2192 160.801 78.907 159.321 81.1487 174.816C79.1945 195.582 -0.159671 185.614 3.49841 161.988C7.1831 148.267 21.9485 155.348 21.7036 137.835Z" fill="#00BF63"/>
</g>
</g>
</g>
<mask id="mask6_198_646" style="mask-type:luminance" maskUnits="userSpaceOnUse" x="2" y="136" width="80" height="51">
<path d="M2.72632 136.313H81.7876V186.748H2.72632V136.313Z" fill="white"/>
</mask>
<g mask="url(#mask6_198_646)">
<mask id="mask7_198_646" style="mask-type:luminance" maskUnits="userSpaceOnUse" x="-3" y="-7" width="113" height="216">
<path d="M30.1113 -6.1554L109.838 6.77833L77.0966 208.606L-2.625 195.678L30.1113 -6.1554Z" fill="white"/>
</mask>
<g mask="url(#mask7_198_646)">
<mask id="mask8_198_646" style="mask-type:luminance" maskUnits="userSpaceOnUse" x="-3" y="-7" width="113" height="216">
<path d="M30.1113 -6.1554L109.838 6.77833L77.0966 208.606L-2.625 195.678L30.1113 -6.1554Z" fill="white"/>
</mask>
<g mask="url(#mask8_198_646)">
<path d="M21.7036 137.835C26.9538 149.678 63.6783 155.668 70.2011 145.7C67.2192 160.801 78.907 159.321 81.1487 174.815C79.1945 195.582 -0.159646 185.614 3.49843 161.988C7.18313 148.266 21.9486 155.348 21.7036 137.835Z" stroke="#2B2B2B" stroke-width="1.01962" stroke-linecap="round" stroke-linejoin="round"/>
</g>
</g>
</g>
<mask id="mask9_198_646" style="mask-type:luminance" maskUnits="userSpaceOnUse" x="21" y="129" width="50" height="23">
<path d="M21.8101 129.497H70.8826V151.307H21.8101V129.497Z" fill="white"/>
</mask>
<g mask="url(#mask9_198_646)">
<mask id="mask10_198_646" style="mask-type:luminance" maskUnits="userSpaceOnUse" x="-3" y="-7" width="113" height="216">
<path d="M30.1113 -6.1554L109.838 6.77833L77.0966 208.606L-2.625 195.678L30.1113 -6.1554Z" fill="white"/>
</mask>
<g mask="url(#mask10_198_646)">
<mask id="mask11_198_646" style="mask-type:luminance" maskUnits="userSpaceOnUse" x="-3" y="-7" width="113" height="216">
<path d="M30.1113 -6.1554L109.838 6.77833L77.0966 208.606L-2.625 195.678L30.1113 -6.1554Z" fill="white"/>
</mask>
<g mask="url(#mask11_198_646)">
<path d="M70.7283 144.576C70.6431 145.178 70.3982 145.753 69.9988 146.291C69.5995 146.834 69.051 147.335 68.3535 147.793C67.6559 148.251 66.8253 148.661 65.8562 149.017C64.8871 149.374 63.8062 149.678 62.6028 149.922C61.3994 150.162 60.1055 150.343 58.7211 150.466C57.3313 150.583 55.8777 150.636 54.3548 150.631C52.8319 150.62 51.2771 150.545 49.6797 150.407C48.0876 150.269 46.4849 150.072 44.8768 149.811C43.2688 149.55 41.6873 149.23 40.1325 148.858C38.5724 148.485 37.0708 148.064 35.6278 147.59C34.1795 147.122 32.8164 146.605 31.5384 146.057C30.2605 145.503 29.0891 144.923 28.0241 144.31C26.9645 143.703 26.0273 143.075 25.2233 142.425C24.4193 141.781 23.759 141.131 23.2372 140.476C22.7207 139.822 22.3586 139.172 22.151 138.533C21.9433 137.894 21.8954 137.271 22.0072 136.675C22.0924 136.068 22.332 135.498 22.7314 134.955C23.1307 134.412 23.6792 133.911 24.3767 133.453C25.0742 132.995 25.9102 132.585 26.8793 132.228C27.8431 131.872 28.9293 131.568 30.1327 131.329C31.3308 131.084 32.63 130.903 34.0144 130.785C35.4042 130.663 36.8578 130.61 38.3807 130.62C39.9035 130.626 41.4584 130.7 43.0558 130.839C44.6479 130.977 46.2506 131.174 47.8587 131.435C49.4667 131.696 51.0482 132.015 52.603 132.388C54.1578 132.761 55.6594 133.187 57.1077 133.655C58.556 134.129 59.9138 134.641 61.1971 135.194C62.475 135.743 63.6464 136.323 64.7114 136.936C65.771 137.548 66.7081 138.176 67.5122 138.82C68.3162 139.465 68.9765 140.114 69.493 140.775C70.0095 141.43 70.3715 142.074 70.5792 142.713C70.7869 143.357 70.8401 143.975 70.7283 144.576Z" fill="#00BF63"/>
</g>
</g>
</g>
<mask id="mask12_198_646" style="mask-type:luminance" maskUnits="userSpaceOnUse" x="20" y="129" width="53" height="23">
<path d="M20.4469 129.497H72.2457V151.307H20.4469V129.497Z" fill="white"/>
</mask>
<g mask="url(#mask12_198_646)">
<mask id="mask13_198_646" style="mask-type:luminance" maskUnits="userSpaceOnUse" x="-3" y="-7" width="113" height="216">
<path d="M30.1112 -6.1554L109.838 6.77833L77.0964 208.606L-2.62512 195.678L30.1112 -6.1554Z" fill="white"/>
</mask>
<g mask="url(#mask13_198_646)">
<mask id="mask14_198_646" style="mask-type:luminance" maskUnits="userSpaceOnUse" x="-3" y="-7" width="113" height="216">
<path d="M30.1112 -6.1554L109.838 6.77833L77.0964 208.606L-2.62512 195.678L30.1112 -6.1554Z" fill="white"/>
</mask>
<g mask="url(#mask14_198_646)">
<path d="M70.7281 144.576C70.6429 145.178 70.398 145.753 69.9986 146.291C69.5993 146.834 69.0508 147.335 68.3533 147.793C67.6558 148.25 66.8251 148.66 65.856 149.017C64.8869 149.374 63.806 149.677 62.6026 149.922C61.3992 150.162 60.1053 150.343 58.7209 150.466C57.3312 150.583 55.8775 150.636 54.3546 150.631C52.8318 150.62 51.277 150.545 49.6795 150.407C48.0875 150.269 46.4847 150.072 44.8767 149.811C43.2686 149.55 41.6872 149.23 40.1323 148.857C38.5722 148.485 37.0706 148.064 35.6276 147.59C34.1793 147.122 32.8162 146.605 31.5383 146.057C30.2603 145.503 29.0889 144.923 28.024 144.31C26.9643 143.703 26.0272 143.075 25.2232 142.425C24.4191 141.781 23.7589 141.131 23.237 140.476C22.7205 139.821 22.3585 139.172 22.1508 138.533C21.9431 137.894 21.8952 137.271 22.007 136.675C22.0922 136.068 22.3318 135.498 22.7312 134.955C23.1305 134.412 23.679 133.911 24.3765 133.453C25.0741 132.995 25.91 132.585 26.8791 132.228C27.8429 131.872 28.9291 131.568 30.1325 131.329C31.3306 131.084 32.6298 130.903 34.0142 130.785C35.404 130.663 36.8576 130.61 38.3805 130.62C39.9034 130.626 41.4582 130.7 43.0556 130.839C44.6477 130.977 46.2504 131.174 47.8585 131.435C49.4666 131.696 51.048 132.015 52.6028 132.388C54.1576 132.761 55.6592 133.187 57.1075 133.655C58.5558 134.129 59.9136 134.641 61.1969 135.194C62.4748 135.743 63.6463 136.323 64.7112 136.935C65.7708 137.548 66.708 138.176 67.512 138.82C68.316 139.465 68.9763 140.114 69.4928 140.775C70.0093 141.43 70.3714 142.074 70.579 142.713C70.7867 143.357 70.8399 143.975 70.7281 144.576Z" stroke="#2B2B2B" stroke-width="1.01962" stroke-linecap="round" stroke-linejoin="round"/>
</g>
</g>
</g>
<mask id="mask15_198_646" style="mask-type:luminance" maskUnits="userSpaceOnUse" x="27" y="85" width="40" height="61">
<path d="M27.2626 85.877H66.7932V145.854H27.2626V85.877Z" fill="white"/>
</mask>
<g mask="url(#mask15_198_646)">
<mask id="mask16_198_646" style="mask-type:luminance" maskUnits="userSpaceOnUse" x="-3" y="-7" width="113" height="216">
<path d="M30.1113 -6.1554L109.838 6.77833L77.0966 208.606L-2.625 195.678L30.1113 -6.1554Z" fill="white"/>
</mask>
<g mask="url(#mask16_198_646)">
<mask id="mask17_198_646" style="mask-type:luminance" maskUnits="userSpaceOnUse" x="-3" y="-7" width="113" height="216">
<path d="M30.1113 -6.1554L109.838 6.77833L77.0966 208.606L-2.625 195.678L30.1113 -6.1554Z" fill="white"/>
</mask>
<g mask="url(#mask17_198_646)">
<path d="M42.5126 86.239C46.9214 88.651 60.7284 90.946 66.7613 90.1739C61.7987 108.725 62.4909 125.908 65.084 143.144C60.148 147.585 32.9281 145.956 27.5874 137.063C35.6863 120.615 40.4679 104.279 42.5126 86.239Z" fill="#00BF63"/>
</g>
</g>
</g>
<mask id="mask18_198_646" style="mask-type:luminance" maskUnits="userSpaceOnUse" x="25" y="84" width="44" height="64">
<path d="M25.8994 84.5138H68.1563V147.218H25.8994V84.5138Z" fill="white"/>
</mask>
<g mask="url(#mask18_198_646)">
<mask id="mask19_198_646" style="mask-type:luminance" maskUnits="userSpaceOnUse" x="-3" y="-7" width="113" height="216">
<path d="M30.1113 -6.1554L109.838 6.77833L77.0966 208.606L-2.625 195.678L30.1113 -6.1554Z" fill="white"/>
</mask>
<g mask="url(#mask19_198_646)">
<mask id="mask20_198_646" style="mask-type:luminance" maskUnits="userSpaceOnUse" x="-3" y="-7" width="113" height="216">
<path d="M30.1113 -6.1554L109.838 6.77833L77.0966 208.606L-2.625 195.678L30.1113 -6.1554Z" fill="white"/>
</mask>
<g mask="url(#mask20_198_646)">
<path d="M42.5126 86.2389C46.9215 88.651 60.7285 90.946 66.7614 90.1739C61.7987 108.725 62.4909 125.908 65.0841 143.144C60.1481 147.585 32.9281 145.956 27.5875 137.063C35.6863 120.615 40.4679 104.279 42.5126 86.2389Z" stroke="#2B2B2B" stroke-width="1.01962" stroke-linecap="round" stroke-linejoin="round"/>
</g>
</g>
</g>
<mask id="mask21_198_646" style="mask-type:luminance" maskUnits="userSpaceOnUse" x="28" y="65" width="57" height="27">
<path d="M28.6256 65.4301H84.5138V91.3294H28.6256V65.4301Z" fill="white"/>
</mask>
<g mask="url(#mask21_198_646)">
<mask id="mask22_198_646" style="mask-type:luminance" maskUnits="userSpaceOnUse" x="-3" y="-7" width="113" height="216">
<path d="M30.1112 -6.1554L109.838 6.77833L77.0964 208.606L-2.62512 195.678L30.1112 -6.1554Z" fill="white"/>
</mask>
<g mask="url(#mask22_198_646)">
<mask id="mask23_198_646" style="mask-type:luminance" maskUnits="userSpaceOnUse" x="-3" y="-7" width="113" height="216">
<path d="M30.1112 -6.1554L109.838 6.77833L77.0964 208.606L-2.62512 195.678L30.1112 -6.1554Z" fill="white"/>
</mask>
<g mask="url(#mask23_198_646)">
<path d="M83.5127 82.6022C83.3902 83.3423 83.0974 84.0452 82.6288 84.7161C82.1602 85.3817 81.5319 85.9993 80.7332 86.5691C79.9345 87.1441 78.9867 87.6553 77.8898 88.1079C76.7929 88.5605 75.5682 88.9439 74.2158 89.2581C72.858 89.5775 71.4043 89.8171 69.8442 89.9875C68.284 90.1526 66.6547 90.2431 64.9508 90.2591C63.2469 90.2697 61.5004 90.2059 59.7166 90.0674C57.9328 89.9236 56.1437 89.7107 54.3493 89.4178C52.5548 89.1249 50.787 88.7682 49.0512 88.3369C47.3153 87.9056 45.6381 87.4157 44.03 86.8619C42.4166 86.3135 40.8991 85.7118 39.472 85.0569C38.045 84.4072 36.7405 83.715 35.553 82.9855C34.371 82.2614 33.3273 81.5106 32.4328 80.7332C31.5329 79.9558 30.7981 79.1731 30.223 78.3797C29.6426 77.5863 29.2379 76.7982 29.009 76.0155C28.7747 75.2328 28.7161 74.4767 28.8386 73.7365C28.9557 72.9964 29.2539 72.2935 29.7172 71.6279C30.1857 70.9624 30.8194 70.3394 31.6181 69.7696C32.4168 69.1999 33.3646 68.6887 34.4615 68.2361C35.553 67.7835 36.7831 67.4001 38.1355 67.0806C39.488 66.7665 40.947 66.5215 42.5018 66.3565C44.0619 66.1861 45.6966 66.0956 47.4005 66.0849C49.1044 66.0689 50.8456 66.1328 52.6294 66.2766C54.4132 66.415 56.2023 66.6334 57.9967 66.9262C59.7965 67.2138 61.5589 67.5758 63.2948 68.0071C65.036 68.4331 66.7079 68.923 68.3213 69.4768C69.9347 70.0305 71.4522 70.6322 72.8793 71.2818C74.3063 71.9368 75.6108 72.6237 76.7929 73.3531C77.9803 74.0826 79.0187 74.8334 79.9185 75.6108C80.8131 76.3829 81.5532 77.171 82.1283 77.9643C82.7034 78.7577 83.108 79.5458 83.3423 80.3232C83.5766 81.1059 83.6299 81.8674 83.5127 82.6022Z" fill="#00BF63"/>
</g>
</g>
</g>
<mask id="mask24_198_646" style="mask-type:luminance" maskUnits="userSpaceOnUse" x="27" y="65" width="58" height="27">
<path d="M27.2626 65.4301H84.5139V91.3294H27.2626V65.4301Z" fill="white"/>
</mask>
<g mask="url(#mask24_198_646)">
<mask id="mask25_198_646" style="mask-type:luminance" maskUnits="userSpaceOnUse" x="-3" y="-7" width="113" height="216">
<path d="M30.1113 -6.1554L109.838 6.77833L77.0966 208.606L-2.625 195.678L30.1113 -6.1554Z" fill="white"/>
</mask>
<g mask="url(#mask25_198_646)">
<mask id="mask26_198_646" style="mask-type:luminance" maskUnits="userSpaceOnUse" x="-3" y="-7" width="113" height="216">
<path d="M30.1113 -6.1554L109.838 6.77833L77.0966 208.606L-2.625 195.678L30.1113 -6.1554Z" fill="white"/>
</mask>
<g mask="url(#mask26_198_646)">
<path d="M83.5128 82.6022C83.3903 83.3423 83.0974 84.0452 82.6289 84.7161C82.1603 85.3817 81.532 85.9993 80.7333 86.5691C79.9346 87.1441 78.9868 87.6553 77.8899 88.1079C76.793 88.5605 75.5683 88.9439 74.2158 89.2581C72.858 89.5775 71.4044 89.8172 69.8442 89.9875C68.2841 90.1526 66.6547 90.2431 64.9508 90.2591C63.2469 90.2697 61.5004 90.2059 59.7166 90.0674C57.9329 89.9236 56.1438 89.7107 54.3493 89.4178C52.5549 89.1249 50.7871 88.7682 49.0512 88.3369C47.3154 87.9056 45.6381 87.4157 44.03 86.8619C42.4167 86.3135 40.8991 85.7118 39.4721 85.0569C38.0451 84.4072 36.7405 83.715 35.5531 82.9856C34.371 82.2614 33.3274 81.5106 32.4328 80.7332C31.5329 79.9558 30.7981 79.1731 30.2231 78.3797C29.6427 77.5863 29.238 76.7982 29.009 76.0155C28.7747 75.2328 28.7162 74.4767 28.8386 73.7365C28.9558 72.9964 29.254 72.2935 29.7172 71.628C30.1858 70.9624 30.8194 70.3394 31.6181 69.7696C32.4168 69.1999 33.3646 68.6887 34.4615 68.2361C35.5531 67.7835 36.7831 67.4001 38.1356 67.0806C39.4881 66.7665 40.947 66.5216 42.5018 66.3565C44.062 66.1861 45.6967 66.0956 47.4006 66.0849C49.1045 66.069 50.8457 66.1329 52.6294 66.2766C54.4132 66.4151 56.2023 66.6334 57.9968 66.9262C59.7965 67.2138 61.559 67.5758 63.2948 68.0071C65.036 68.4331 66.708 68.923 68.3214 69.4768C69.9348 70.0305 71.4523 70.6322 72.8793 71.2818C74.3063 71.9368 75.6109 72.6237 76.793 73.3532C77.9804 74.0826 79.0187 74.8334 79.9186 75.6108C80.8131 76.3829 81.5533 77.171 82.1283 77.9643C82.7034 78.7577 83.1081 79.5458 83.3424 80.3232C83.5767 81.1059 83.6299 81.8674 83.5128 82.6022Z" stroke="#2B2B2B" stroke-width="1.01962" stroke-linecap="round" stroke-linejoin="round"/>
</g>
</g>
</g>
<mask id="mask27_198_646" style="mask-type:luminance" maskUnits="userSpaceOnUse" x="35" y="61" width="45" height="23">
<path d="M35.4414 61.3406H79.0614V83.1507H35.4414V61.3406Z" fill="white"/>
</mask>
<g mask="url(#mask27_198_646)">
<mask id="mask28_198_646" style="mask-type:luminance" maskUnits="userSpaceOnUse" x="-3" y="-7" width="113" height="216">
<path d="M30.1113 -6.1554L109.838 6.77833L77.0966 208.606L-2.625 195.678L30.1113 -6.1554Z" fill="white"/>
</mask>
<g mask="url(#mask28_198_646)">
<mask id="mask29_198_646" style="mask-type:luminance" maskUnits="userSpaceOnUse" x="-3" y="-7" width="113" height="216">
<path d="M30.1113 -6.1554L109.838 6.77833L77.0966 208.606L-2.625 195.678L30.1113 -6.1554Z" fill="white"/>
</mask>
<g mask="url(#mask29_198_646)">
<path d="M77.9275 75.6801C77.8263 76.3031 77.592 76.8941 77.2299 77.4585C76.8678 78.0229 76.3726 78.5501 75.7603 79.0346C75.1426 79.5245 74.4185 79.9665 73.5718 80.3552C72.7305 80.7492 71.7934 81.0847 70.7551 81.3669C69.7167 81.6491 68.6039 81.8674 67.4111 82.0271C66.2184 82.1869 64.9724 82.288 63.6732 82.32C62.3739 82.3519 61.0428 82.32 59.685 82.2241C58.3218 82.1283 56.9587 81.9686 55.5956 81.7449C54.2271 81.5213 52.8853 81.2444 51.5648 80.9036C50.2442 80.5682 48.9716 80.1795 47.7469 79.7375C46.5222 79.2956 45.3721 78.8057 44.2912 78.2785C43.2103 77.7514 42.2252 77.187 41.3306 76.5959C40.4361 75.9996 39.6533 75.3819 38.9771 74.7429C38.3009 74.104 37.7471 73.4597 37.3211 72.7994C36.8898 72.1445 36.5916 71.4895 36.4212 70.8399C36.2562 70.1903 36.2242 69.5513 36.3254 68.9337C36.4212 68.316 36.6555 67.7196 37.0229 67.1552C37.385 66.5908 37.8749 66.069 38.4926 65.5791C39.1049 65.0892 39.8344 64.6526 40.6757 64.2586C41.517 63.8645 42.4595 63.5291 43.4978 63.2469C44.5308 62.9647 45.649 62.7464 46.8364 62.5866C48.0291 62.4269 49.2751 62.331 50.5744 62.2991C51.8789 62.2671 53.2101 62.2991 54.5679 62.3949C55.9257 62.4908 57.2888 62.6505 58.6573 62.8688C60.0204 63.0925 61.3676 63.3693 62.6881 63.7101C64.0086 64.0509 65.2759 64.4396 66.5006 64.8816C67.7253 65.3235 68.8754 65.8081 69.9564 66.3352C71.0373 66.8623 72.0224 67.4268 72.9222 68.0231C73.8168 68.6142 74.5995 69.2318 75.2757 69.8708C75.952 70.5098 76.5004 71.1594 76.9317 71.8143C77.363 72.4693 77.6612 73.1242 77.8263 73.7738C77.9967 74.4288 78.0286 75.0624 77.9275 75.6801Z" fill="#00BF63" stroke="#2B2B2B" stroke-width="1.01965" stroke-linecap="round" stroke-linejoin="round"/>
</g>
</g>
</g>
<mask id="mask30_198_646" style="mask-type:luminance" maskUnits="userSpaceOnUse" x="42" y="57" width="33" height="18">
<path d="M42.257 57.2513H74.972V74.9719H42.257V57.2513Z" fill="white"/>
</mask>
<g mask="url(#mask30_198_646)">
<mask id="mask31_198_646" style="mask-type:luminance" maskUnits="userSpaceOnUse" x="-3" y="-7" width="113" height="216">
<path d="M30.1113 -6.1554L109.838 6.77833L77.0966 208.606L-2.625 195.678L30.1113 -6.1554Z" fill="white"/>
</mask>
<g mask="url(#mask31_198_646)">
<mask id="mask32_198_646" style="mask-type:luminance" maskUnits="userSpaceOnUse" x="-3" y="-7" width="113" height="216">
<path d="M30.1113 -6.1554L109.838 6.77833L77.0966 208.606L-2.625 195.678L30.1113 -6.1554Z" fill="white"/>
</mask>
<g mask="url(#mask32_198_646)">
<path d="M44.0673 57.5015C45.7179 61.3886 70.4938 67.5493 74.3755 62.4162L72.6131 73.2733C68.0977 76.3563 47.4059 74.9346 42.3048 68.3533L44.0673 57.5015Z" fill="#00BF63"/>
</g>
</g>
</g>
<mask id="mask33_198_646" style="mask-type:luminance" maskUnits="userSpaceOnUse" x="40" y="55" width="35" height="22">
<path d="M40.8938 55.8881H74.9719V76.335H40.8938V55.8881Z" fill="white"/>
</mask>
<g mask="url(#mask33_198_646)">
<mask id="mask34_198_646" style="mask-type:luminance" maskUnits="userSpaceOnUse" x="-3" y="-7" width="113" height="216">
<path d="M30.1112 -6.1554L109.838 6.77833L77.0964 208.606L-2.62512 195.678L30.1112 -6.1554Z" fill="white"/>
</mask>
<g mask="url(#mask34_198_646)">
<mask id="mask35_198_646" style="mask-type:luminance" maskUnits="userSpaceOnUse" x="-3" y="-7" width="113" height="216">
<path d="M30.1112 -6.1554L109.838 6.77833L77.0964 208.606L-2.62512 195.678L30.1112 -6.1554Z" fill="white"/>
</mask>
<g mask="url(#mask35_198_646)">
<path d="M44.0673 57.5015C45.718 61.3885 70.4938 67.5492 74.3755 62.4162L72.6131 73.2733C68.0977 76.3563 47.4059 74.9346 42.3048 68.3533L44.0673 57.5015Z" stroke="#2B2B2B" stroke-width="1.01962" stroke-linecap="round" stroke-linejoin="round"/>
</g>
</g>
</g>
<mask id="mask36_198_646" style="mask-type:luminance" maskUnits="userSpaceOnUse" x="39" y="53" width="39" height="17">
<path d="M39.5308 53.1619H77.6983V69.5194H39.5308V53.1619Z" fill="white"/>
</mask>
<g mask="url(#mask36_198_646)">
<mask id="mask37_198_646" style="mask-type:luminance" maskUnits="userSpaceOnUse" x="-3" y="-7" width="113" height="216">
<path d="M30.1113 -6.1554L109.838 6.77833L77.0966 208.606L-2.625 195.678L30.1113 -6.1554Z" fill="white"/>
</mask>
<g mask="url(#mask37_198_646)">
<mask id="mask38_198_646" style="mask-type:luminance" maskUnits="userSpaceOnUse" x="-3" y="-7" width="113" height="216">
<path d="M30.1113 -6.1554L109.838 6.77833L77.0966 208.606L-2.625 195.678L30.1113 -6.1554Z" fill="white"/>
</mask>
<g mask="url(#mask38_198_646)">
<path d="M76.7505 64.4662C76.676 64.9348 76.4843 65.3768 76.1808 65.7974C75.8773 66.2181 75.4619 66.6068 74.9401 66.9635C74.4236 67.3203 73.8006 67.6398 73.0818 67.922C72.363 68.2042 71.5642 68.4438 70.675 68.6355C69.7858 68.8325 68.8327 68.9816 67.8103 69.0774C66.788 69.1786 65.7177 69.2318 64.5995 69.2318C63.476 69.2372 62.3312 69.1892 61.1598 69.0934C59.9883 68.9922 58.8169 68.8485 57.6348 68.6568C56.458 68.4651 55.2973 68.2308 54.1524 67.9539C53.013 67.677 51.9107 67.3575 50.8511 67.0008C49.7862 66.6494 48.7905 66.2607 47.848 65.84C46.9108 65.4247 46.0536 64.9827 45.2708 64.5195C44.4934 64.0509 43.8065 63.5717 43.2102 63.0765C42.6191 62.5813 42.1346 62.0861 41.7512 61.5802C41.3731 61.0744 41.1016 60.5739 40.9472 60.0787C40.7927 59.5888 40.7501 59.1042 40.8247 58.641C40.8992 58.1724 41.0909 57.7305 41.3944 57.3098C41.6979 56.8892 42.1133 56.5005 42.6351 56.1384C43.1569 55.7816 43.7746 55.4621 44.4934 55.1799C45.2123 54.8977 46.0163 54.6634 46.9002 54.4664C47.7894 54.2747 48.7425 54.1256 49.7649 54.0245C50.7926 53.9233 51.8628 53.8754 52.981 53.8701C54.0992 53.8701 55.244 53.918 56.4154 54.0138C57.5869 54.1097 58.7636 54.2534 59.9404 54.4451C61.1225 54.6368 62.2833 54.8711 63.4228 55.1533C64.5676 55.4302 65.6645 55.7444 66.7294 56.1011C67.789 56.4579 68.7901 56.8412 69.7272 57.2619C70.6644 57.6825 71.527 58.1245 72.3044 58.5877C73.0871 59.051 73.774 59.5302 74.365 60.0254C74.9561 60.5206 75.4406 61.0211 75.824 61.527C76.2074 62.0275 76.4736 62.528 76.628 63.0232C76.7878 63.5184 76.8251 63.9977 76.7505 64.4662Z" fill="#00BF63"/>
</g>
</g>
</g>
<mask id="mask39_198_646" style="mask-type:luminance" maskUnits="userSpaceOnUse" x="39" y="53" width="39" height="18">
<path d="M39.5308 53.1619H77.6983V70.8826H39.5308V53.1619Z" fill="white"/>
</mask>
<g mask="url(#mask39_198_646)">
<mask id="mask40_198_646" style="mask-type:luminance" maskUnits="userSpaceOnUse" x="-3" y="-7" width="113" height="216">
<path d="M30.1113 -6.1554L109.838 6.77833L77.0966 208.606L-2.625 195.678L30.1113 -6.1554Z" fill="white"/>
</mask>
<g mask="url(#mask40_198_646)">
<mask id="mask41_198_646" style="mask-type:luminance" maskUnits="userSpaceOnUse" x="-3" y="-7" width="113" height="216">
<path d="M30.1113 -6.1554L109.838 6.77833L77.0966 208.606L-2.625 195.678L30.1113 -6.1554Z" fill="white"/>
</mask>
<g mask="url(#mask41_198_646)">
<path d="M76.7505 64.4662C76.676 64.9348 76.4843 65.3767 76.1808 65.7974C75.8773 66.218 75.462 66.6067 74.9401 66.9635C74.4236 67.3203 73.8007 67.6397 73.0818 67.9219C72.363 68.2042 71.5643 68.4438 70.675 68.6355C69.7858 68.8325 68.8327 68.9816 67.8104 69.0774C66.788 69.1786 65.7177 69.2318 64.5996 69.2318C63.476 69.2372 62.3312 69.1892 61.1598 69.0934C59.9884 68.9922 58.8169 68.8484 57.6348 68.6568C56.4581 68.4651 55.2973 68.2308 54.1525 67.9539C53.013 67.677 51.9108 67.3575 50.8512 67.0008C49.7862 66.6493 48.7905 66.2606 47.848 65.84C46.9109 65.4247 46.0536 64.9827 45.2709 64.5195C44.4935 64.0509 43.8066 63.5717 43.2102 63.0765C42.6192 62.5813 42.1346 62.0861 41.7512 61.5802C41.3732 61.0744 41.1016 60.5739 40.9472 60.0787C40.7928 59.5888 40.7502 59.1042 40.8247 58.641C40.8993 58.1724 41.091 57.7305 41.3945 57.3098C41.698 56.8892 42.1133 56.5004 42.6351 56.1384C43.1569 55.7816 43.7746 55.4621 44.4935 55.1799C45.2123 54.8977 46.0163 54.6634 46.9002 54.4664C47.7894 54.2747 48.7426 54.1256 49.7649 54.0245C50.7926 53.9233 51.8629 53.8754 52.981 53.87C54.0992 53.87 55.244 53.918 56.4155 54.0138C57.5869 54.1097 58.7637 54.2534 59.9404 54.4451C61.1225 54.6368 62.2833 54.8711 63.4228 55.1533C64.5676 55.4302 65.6645 55.7443 66.7294 56.1011C67.7891 56.4578 68.7901 56.8412 69.7273 57.2619C70.6644 57.6825 71.527 58.1245 72.3044 58.5877C73.0871 59.051 73.774 59.5302 74.3651 60.0254C74.9561 60.5206 75.4407 61.0211 75.824 61.527C76.2074 62.0275 76.4737 62.528 76.6281 63.0232C76.7878 63.5184 76.8251 63.9976 76.7505 64.4662Z" stroke="#2B2B2B" stroke-width="1.01962" stroke-linecap="round" stroke-linejoin="round"/>
</g>
</g>
</g>
<mask id="mask42_198_646" style="mask-type:luminance" maskUnits="userSpaceOnUse" x="36" y="25" width="54" height="41">
<path d="M36.8044 25.8994H89.9663V65.43H36.8044V25.8994Z" fill="white"/>
</mask>
<g mask="url(#mask42_198_646)">
<mask id="mask43_198_646" style="mask-type:luminance" maskUnits="userSpaceOnUse" x="-3" y="-7" width="113" height="216">
<path d="M30.1112 -6.1554L109.838 6.77833L77.0964 208.606L-2.62512 195.678L30.1112 -6.1554Z" fill="white"/>
</mask>
<g mask="url(#mask43_198_646)">
<mask id="mask44_198_646" style="mask-type:luminance" maskUnits="userSpaceOnUse" x="-3" y="-7" width="113" height="216">
<path d="M30.1112 -6.1554L109.838 6.77833L77.0964 208.606L-2.62512 195.678L30.1112 -6.1554Z" fill="white"/>
</mask>
<g mask="url(#mask44_198_646)">
<path d="M38.8384 26.8471C37.6883 39.0087 87.7033 46.2131 89.1995 34.9566C85.4935 44.9032 78.4489 54.0297 74.2584 62.7995C70.9517 66.1754 48.1087 63.1989 44.0353 57.3204C41.9747 46.7083 36.0163 29.9993 38.8384 26.8471Z" fill="#00BF63" stroke="#2B2B2B" stroke-width="0.764716" stroke-linecap="round" stroke-linejoin="round"/>
</g>
</g>
</g>
<mask id="mask45_198_646" style="mask-type:luminance" maskUnits="userSpaceOnUse" x="38" y="21" width="52" height="20">
<path d="M38.1676 21.81H89.9664V40.8938H38.1676V21.81Z" fill="white"/>
</mask>
<g mask="url(#mask45_198_646)">
<mask id="mask46_198_646" style="mask-type:luminance" maskUnits="userSpaceOnUse" x="-3" y="-7" width="113" height="216">
<path d="M30.1113 -6.1554L109.838 6.77833L77.0966 208.606L-2.625 195.678L30.1113 -6.1554Z" fill="white"/>
</mask>
<g mask="url(#mask46_198_646)">
<mask id="mask47_198_646" style="mask-type:luminance" maskUnits="userSpaceOnUse" x="-3" y="-7" width="113" height="216">
<path d="M30.1113 -6.1554L109.838 6.77833L77.0966 208.606L-2.625 195.678L30.1113 -6.1554Z" fill="white"/>
</mask>
<g mask="url(#mask47_198_646)">
<path d="M89.3061 35.372C89.2156 35.9205 88.9654 36.4423 88.5554 36.9269C88.1454 37.4114 87.5863 37.8587 86.8674 38.2634C86.1539 38.668 85.2966 39.0248 84.3009 39.3336C83.3105 39.6425 82.1923 39.8927 80.957 40.0897C79.727 40.2921 78.3958 40.4305 76.9688 40.5104C75.5364 40.5956 74.0455 40.6169 72.4801 40.5796C70.9146 40.537 69.3065 40.4412 67.6665 40.2867C66.0265 40.127 64.3758 39.9193 62.7145 39.6478C61.0586 39.3815 59.4292 39.0621 57.8211 38.6893C56.2131 38.3166 54.6582 37.9013 53.162 37.4433C51.6658 36.9854 50.2547 36.4902 48.9235 35.9631C47.5977 35.4359 46.3783 34.8822 45.2708 34.3018C44.1632 33.7214 43.1835 33.1303 42.3369 32.5233C41.4902 31.9216 40.7927 31.3093 40.2443 30.7023C39.6905 30.0899 39.2965 29.4882 39.0622 28.8972C38.8279 28.3061 38.7533 27.7364 38.8439 27.188C38.9291 26.6395 39.1793 26.1177 39.5893 25.6331C39.9993 25.1486 40.5637 24.7013 41.2826 24.2966C41.9961 23.892 42.8534 23.5352 43.8438 23.2264C44.8395 22.9229 45.9577 22.6673 47.1877 22.4703C48.423 22.2679 49.7542 22.1295 51.1812 22.0496C52.6082 21.9644 54.1045 21.9431 55.6699 21.9804C57.2354 22.023 58.8381 22.1188 60.4835 22.2732C62.1235 22.433 63.7742 22.6407 65.4301 22.9122C67.0861 23.1784 68.7208 23.5033 70.3289 23.8707C71.9369 24.2434 73.4918 24.6587 74.988 25.1166C76.4842 25.5746 77.8953 26.0698 79.2211 26.5969C80.5523 27.1241 81.7717 27.6778 82.8792 28.2582C83.9868 28.8386 84.9665 29.4297 85.8131 30.0367C86.6544 30.6384 87.3573 31.2507 87.9057 31.8577C88.4595 32.4701 88.8535 33.0718 89.0878 33.6628C89.3221 34.2538 89.3967 34.8236 89.3061 35.372Z" fill="#00BF63"/>
</g>
</g>
</g>
<mask id="mask48_198_646" style="mask-type:luminance" maskUnits="userSpaceOnUse" x="38" y="20" width="52" height="23">
<path d="M38.1676 20.4469H89.9664V42.2569H38.1676V20.4469Z" fill="white"/>
</mask>
<g mask="url(#mask48_198_646)">
<mask id="mask49_198_646" style="mask-type:luminance" maskUnits="userSpaceOnUse" x="-3" y="-7" width="113" height="216">
<path d="M30.1113 -6.1554L109.838 6.77833L77.0966 208.606L-2.625 195.678L30.1113 -6.1554Z" fill="white"/>
</mask>
<g mask="url(#mask49_198_646)">
<mask id="mask50_198_646" style="mask-type:luminance" maskUnits="userSpaceOnUse" x="-3" y="-7" width="113" height="216">
<path d="M30.1113 -6.1554L109.838 6.77833L77.0966 208.606L-2.625 195.678L30.1113 -6.1554Z" fill="white"/>
</mask>
<g mask="url(#mask50_198_646)">
<path d="M89.3062 35.372C89.2156 35.9204 88.9654 36.4423 88.5554 36.9268C88.1454 37.4114 87.5863 37.8586 86.8675 38.2633C86.1539 38.668 85.2967 39.0248 84.3009 39.3336C83.3105 39.6424 82.1924 39.8927 80.957 40.0897C79.727 40.292 78.3958 40.4305 76.9688 40.5103C75.5365 40.5955 74.0455 40.6168 72.4801 40.5796C70.9146 40.537 69.3066 40.4411 67.6665 40.2867C66.0265 40.127 64.3759 39.9193 62.7146 39.6477C61.0586 39.3815 59.4292 39.062 57.8212 38.6893C56.2131 38.3166 54.6583 37.9012 53.162 37.4433C51.6658 36.9854 50.2547 36.4902 48.9236 35.963C47.5977 35.4359 46.3784 34.8821 45.2708 34.3017C44.1633 33.7213 43.1835 33.1303 42.3369 32.5233C41.4903 31.9216 40.7927 31.3093 40.2443 30.7022C39.6905 30.0899 39.2965 29.4882 39.0622 28.8972C38.8279 28.3061 38.7534 27.7364 38.8439 27.1879C38.9291 26.6395 39.1793 26.1177 39.5893 25.6331C39.9994 25.1486 40.5638 24.7013 41.2826 24.2966C41.9961 23.8919 42.8534 23.5352 43.8438 23.2263C44.8395 22.9228 45.9577 22.6672 47.1877 22.4702C48.423 22.2679 49.7542 22.1295 51.1812 22.0496C52.6083 21.9644 54.1045 21.9431 55.67 21.9804C57.2354 22.023 58.8382 22.1188 60.4835 22.2732C62.1235 22.433 63.7742 22.6406 65.4302 22.9122C67.0862 23.1784 68.7208 23.5032 70.3289 23.8706C71.937 24.2434 73.4918 24.6587 74.988 25.1166C76.4843 25.5745 77.8953 26.0697 79.2212 26.5969C80.5523 27.124 81.7717 27.6778 82.8792 28.2582C83.9868 28.8386 84.9665 29.4296 85.8132 30.0366C86.6545 30.6383 87.3573 31.2507 87.9058 31.8577C88.4595 32.47 88.8536 33.0717 89.0879 33.6628C89.3221 34.2538 89.3967 34.8236 89.3062 35.372Z" stroke="#2B2B2B" stroke-width="1.01962" stroke-linecap="round" stroke-linejoin="round"/>
</g>
</g>
</g>
<mask id="mask51_198_646" style="mask-type:luminance" maskUnits="userSpaceOnUse" x="51" y="21" width="26" height="12">
<path d="M51.7988 21.81H76.3351V32.715H51.7988V21.81Z" fill="white"/>
</mask>
<g mask="url(#mask51_198_646)">
<mask id="mask52_198_646" style="mask-type:luminance" maskUnits="userSpaceOnUse" x="-3" y="-7" width="113" height="216">
<path d="M30.1113 -6.1554L109.838 6.77833L77.0966 208.606L-2.625 195.678L30.1113 -6.1554Z" fill="white"/>
</mask>
<g mask="url(#mask52_198_646)">
<mask id="mask53_198_646" style="mask-type:luminance" maskUnits="userSpaceOnUse" x="-3" y="-7" width="113" height="216">
<path d="M30.1113 -6.1554L109.838 6.77833L77.0966 208.606L-2.625 195.678L30.1113 -6.1554Z" fill="white"/>
</mask>
<g mask="url(#mask53_198_646)">
<path d="M76.2659 29.6905C76.2287 29.9781 76.1115 30.2496 75.9145 30.5052C75.7175 30.7608 75.4512 31.0004 75.1105 31.2134C74.7697 31.4317 74.365 31.6234 73.8911 31.7938C73.4172 31.9589 72.8901 32.0973 72.3043 32.2144C71.7133 32.3263 71.0797 32.4115 70.4034 32.4647C69.7219 32.518 69.0137 32.5393 68.2682 32.5286C67.5227 32.5233 66.7613 32.486 65.9839 32.4168C65.2012 32.3476 64.4184 32.2464 63.6304 32.1186C62.8477 31.9908 62.0702 31.8364 61.3088 31.6554C60.5474 31.4743 59.8126 31.272 59.1044 31.043C58.3962 30.814 57.7253 30.5691 57.1023 30.3029C56.474 30.0366 55.8989 29.7598 55.3771 29.4669C54.8553 29.174 54.3973 28.8759 54.0033 28.567C53.6093 28.2582 53.2791 27.944 53.0289 27.6299C52.7733 27.321 52.5923 27.0122 52.4911 26.7034C52.3846 26.3999 52.3633 26.107 52.4112 25.8195C52.4538 25.5319 52.571 25.2604 52.768 25.0048C52.9597 24.7492 53.2259 24.5149 53.5667 24.2966C53.9075 24.0783 54.3175 23.8866 54.786 23.7215C55.2599 23.5511 55.7924 23.4127 56.3781 23.2956C56.9638 23.1837 57.5975 23.1039 58.2791 23.0506C58.9553 22.992 59.6688 22.9707 60.4089 22.9814C61.1544 22.9867 61.9158 23.024 62.6986 23.0932C63.476 23.1624 64.264 23.2636 65.0468 23.3914C65.8348 23.5192 66.6069 23.6736 67.3737 23.8547C68.1351 24.0357 68.8699 24.238 69.5781 24.467C70.2863 24.696 70.9519 24.9409 71.5802 25.2071C72.2085 25.4734 72.7836 25.7502 73.3054 26.0431C73.8219 26.336 74.2851 26.6341 74.6792 26.943C75.0732 27.2518 75.398 27.566 75.6536 27.8801C75.9092 28.189 76.0849 28.4978 76.1914 28.8066C76.2925 29.1101 76.3192 29.403 76.2659 29.6905Z" fill="#00BF63"/>
</g>
</g>
</g>
<mask id="mask54_198_646" style="mask-type:luminance" maskUnits="userSpaceOnUse" x="51" y="21" width="27" height="14">
<path d="M51.7988 21.81H77.6982V34.0781H51.7988V21.81Z" fill="white"/>
</mask>
<g mask="url(#mask54_198_646)">
<mask id="mask55_198_646" style="mask-type:luminance" maskUnits="userSpaceOnUse" x="-3" y="-7" width="113" height="216">
<path d="M30.1113 -6.1554L109.838 6.77833L77.0966 208.606L-2.625 195.678L30.1113 -6.1554Z" fill="white"/>
</mask>
<g mask="url(#mask55_198_646)">
<mask id="mask56_198_646" style="mask-type:luminance" maskUnits="userSpaceOnUse" x="-3" y="-7" width="113" height="216">
<path d="M30.1113 -6.1554L109.838 6.77833L77.0966 208.606L-2.625 195.678L30.1113 -6.1554Z" fill="white"/>
</mask>
<g mask="url(#mask56_198_646)">
<path d="M76.266 29.6905C76.2287 29.9781 76.1115 30.2496 75.9145 30.5052C75.7175 30.7608 75.4513 31.0004 75.1105 31.2134C74.7697 31.4317 74.365 31.6234 73.8911 31.7938C73.4172 31.9589 72.8901 32.0973 72.3044 32.2144C71.7133 32.3263 71.0797 32.4115 70.4034 32.4647C69.7219 32.518 69.0137 32.5393 68.2682 32.5286C67.5228 32.5233 66.7614 32.486 65.9839 32.4168C65.2012 32.3476 64.4185 32.2464 63.6304 32.1186C62.8477 31.9908 62.0703 31.8364 61.3088 31.6554C60.5474 31.4743 59.8126 31.272 59.1044 31.043C58.3962 30.814 57.7253 30.5691 57.1023 30.3029C56.474 30.0366 55.8989 29.7598 55.3771 29.4669C54.8553 29.174 54.3974 28.8759 54.0033 28.567C53.6093 28.2582 53.2792 27.944 53.0289 27.6299C52.7733 27.321 52.5923 27.0122 52.4911 26.7034C52.3846 26.3999 52.3633 26.107 52.4113 25.8195C52.4539 25.5319 52.571 25.2604 52.768 25.0048C52.9597 24.7492 53.2259 24.5149 53.5667 24.2966C53.9075 24.0783 54.3175 23.8866 54.7861 23.7215C55.26 23.5511 55.7924 23.4127 56.3782 23.2956C56.9639 23.1837 57.5975 23.1039 58.2791 23.0506C58.9553 22.9921 59.6688 22.9708 60.409 22.9814C61.1544 22.9867 61.9159 23.024 62.6986 23.0932C63.476 23.1624 64.2641 23.2636 65.0468 23.3914C65.8349 23.5192 66.6069 23.6736 67.3737 23.8547C68.1351 24.0357 68.8699 24.238 69.5781 24.467C70.2863 24.696 70.9519 24.9409 71.5802 25.2071C72.2085 25.4734 72.7836 25.7503 73.3054 26.0431C73.8219 26.336 74.2852 26.6341 74.6792 26.943C75.0732 27.2518 75.398 27.566 75.6536 27.8801C75.9092 28.189 76.0849 28.4978 76.1914 28.8066C76.2926 29.1101 76.3192 29.403 76.266 29.6905Z" stroke="#2B2B2B" stroke-width="0.764716" stroke-linecap="round" stroke-linejoin="round"/>
</g>
</g>
</g>
<mask id="mask57_198_646" style="mask-type:luminance" maskUnits="userSpaceOnUse" x="51" y="24" width="26" height="11">
<path d="M51.7988 24.5363H76.3351V34.0781H51.7988V24.5363Z" fill="white"/>
</mask>
<g mask="url(#mask57_198_646)">
<mask id="mask58_198_646" style="mask-type:luminance" maskUnits="userSpaceOnUse" x="-3" y="-7" width="113" height="216">
<path d="M30.1113 -6.1554L109.838 6.77833L77.0966 208.606L-2.625 195.678L30.1113 -6.1554Z" fill="white"/>
</mask>
<g mask="url(#mask58_198_646)">
<mask id="mask59_198_646" style="mask-type:luminance" maskUnits="userSpaceOnUse" x="-3" y="-7" width="113" height="216">
<path d="M30.1113 -6.1554L109.838 6.77833L77.0966 208.606L-2.625 195.678L30.1113 -6.1554Z" fill="white"/>
</mask>
<g mask="url(#mask59_198_646)">
<path d="M52.3419 25.6491C52.0438 31.4264 74.4608 35.5797 76.2552 29.5308L75.0252 32.8321C73.0231 35.5211 55.1534 33.4924 52.7519 29.1634L52.3419 25.6491Z" fill="#00BF63"/>
</g>
</g>
</g>
<mask id="mask60_198_646" style="mask-type:luminance" maskUnits="userSpaceOnUse" x="51" y="24" width="27" height="12">
<path d="M51.7988 24.5363H77.6982V35.4413H51.7988V24.5363Z" fill="white"/>
</mask>
<g mask="url(#mask60_198_646)">
<mask id="mask61_198_646" style="mask-type:luminance" maskUnits="userSpaceOnUse" x="-3" y="-7" width="113" height="216">
<path d="M30.1113 -6.1554L109.838 6.77833L77.0966 208.606L-2.625 195.678L30.1113 -6.1554Z" fill="white"/>
</mask>
<g mask="url(#mask61_198_646)">
<mask id="mask62_198_646" style="mask-type:luminance" maskUnits="userSpaceOnUse" x="-3" y="-7" width="113" height="216">
<path d="M30.1113 -6.1554L109.838 6.77833L77.0966 208.606L-2.625 195.678L30.1113 -6.1554Z" fill="white"/>
</mask>
<g mask="url(#mask62_198_646)">
<path d="M52.342 25.6491C52.0439 31.4264 74.4609 35.5797 76.2553 29.5308L75.0253 32.8321C73.0232 35.5211 55.1535 33.4924 52.752 29.1634L52.342 25.6491Z" stroke="#2B2B2B" stroke-width="0.764716" stroke-linecap="round" stroke-linejoin="round"/>
</g>
</g>
</g>
<mask id="mask63_198_646" style="mask-type:luminance" maskUnits="userSpaceOnUse" x="51" y="0" width="29" height="29">
<path d="M51.7988 0H79.0613V28.6256H51.7988V0Z" fill="white"/>
</mask>
<g mask="url(#mask63_198_646)">
<mask id="mask64_198_646" style="mask-type:luminance" maskUnits="userSpaceOnUse" x="-3" y="-7" width="113" height="216">
<path d="M30.1113 -6.1554L109.838 6.77833L77.0966 208.606L-2.625 195.678L30.1113 -6.1554Z" fill="white"/>
</mask>
<g mask="url(#mask64_198_646)">
<mask id="mask65_198_646" style="mask-type:luminance" maskUnits="userSpaceOnUse" x="-3" y="-7" width="113" height="216">
<path d="M30.1113 -6.1554L109.838 6.77833L77.0966 208.606L-2.625 195.678L30.1113 -6.1554Z" fill="white"/>
</mask>
<g mask="url(#mask65_198_646)">
<path d="M54.344 6.0009L63.2256 7.44389L63.0819 2.32685L68.3374 0.175663L72.9752 3.92958L70.8293 8.67922L78.646 9.9465L76.8463 20.9793L71.0476 20.0422L71.3032 27.8801L56.426 25.4627L59.3705 18.1466L52.6508 17.055L54.344 6.0009Z" fill="#00BF63" fill-opacity="0.3882" stroke="#2B2B2B" stroke-width="1.02" stroke-linecap="round" stroke-linejoin="round"/>
</g>
</g>
</g>
<mask id="mask66_198_646" style="mask-type:luminance" maskUnits="userSpaceOnUse" x="69" y="8" width="12" height="6">
<path d="M69.5194 8.17877H80.4244V13.6313H69.5194V8.17877Z" fill="white"/>
</mask>
<g mask="url(#mask66_198_646)">
<mask id="mask67_198_646" style="mask-type:luminance" maskUnits="userSpaceOnUse" x="-3" y="-7" width="113" height="216">
<path d="M30.1112 -6.1554L109.838 6.77833L77.0964 208.606L-2.62512 195.678L30.1112 -6.1554Z" fill="white"/>
</mask>
<g mask="url(#mask67_198_646)">
<mask id="mask68_198_646" style="mask-type:luminance" maskUnits="userSpaceOnUse" x="-3" y="-7" width="113" height="216">
<path d="M30.1112 -6.1554L109.838 6.77833L77.0964 208.606L-2.62512 195.678L30.1112 -6.1554Z" fill="white"/>
</mask>
<g mask="url(#mask68_198_646)">
<path d="M70.8293 8.63666L78.6247 9.95718L80.0784 12.4332L72.267 11.1233L70.8293 8.63666Z" fill="#00BF63" stroke="#2B2B2B" stroke-width="1.02" stroke-linecap="round" stroke-linejoin="round"/>
</g>
</g>
</g>
<mask id="mask69_198_646" style="mask-type:luminance" maskUnits="userSpaceOnUse" x="51" y="5" width="5" height="16">
<path d="M51.7988 5.45245H55.8882V20.4468H51.7988V5.45245Z" fill="white"/>
</mask>
<g mask="url(#mask69_198_646)">
<mask id="mask70_198_646" style="mask-type:luminance" maskUnits="userSpaceOnUse" x="-3" y="-7" width="113" height="216">
<path d="M30.1113 -6.1554L109.838 6.77833L77.0966 208.606L-2.625 195.678L30.1113 -6.1554Z" fill="white"/>
</mask>
<g mask="url(#mask70_198_646)">
<mask id="mask71_198_646" style="mask-type:luminance" maskUnits="userSpaceOnUse" x="-3" y="-7" width="113" height="216">
<path d="M30.1113 -6.1554L109.838 6.77833L77.0966 208.606L-2.625 195.678L30.1113 -6.1554Z" fill="white"/>
</mask>
<g mask="url(#mask71_198_646)">
<path d="M54.5357 6.08075L55.7817 8.34908L54.0299 19.4937L52.6934 17.0923L54.5357 6.08075Z" fill="#00BF63"/>
</g>
</g>
</g>
<mask id="mask72_198_646" style="mask-type:luminance" maskUnits="userSpaceOnUse" x="51" y="5" width="7" height="16">
<path d="M51.7988 5.45245H57.2513V20.4468H51.7988V5.45245Z" fill="white"/>
</mask>
<g mask="url(#mask72_198_646)">
<mask id="mask73_198_646" style="mask-type:luminance" maskUnits="userSpaceOnUse" x="-3" y="-7" width="113" height="216">
<path d="M30.1113 -6.1554L109.838 6.77833L77.0966 208.606L-2.625 195.678L30.1113 -6.1554Z" fill="white"/>
</mask>
<g mask="url(#mask73_198_646)">
<mask id="mask74_198_646" style="mask-type:luminance" maskUnits="userSpaceOnUse" x="-3" y="-7" width="113" height="216">
<path d="M30.1113 -6.1554L109.838 6.77833L77.0966 208.606L-2.625 195.678L30.1113 -6.1554Z" fill="white"/>
</mask>
<g mask="url(#mask74_198_646)">
<path d="M54.5357 6.08079L55.7817 8.34911L54.0299 19.4937L52.6934 17.0923L54.5357 6.08079Z" stroke="#2B2B2B" stroke-width="1.02" stroke-linecap="round" stroke-linejoin="round"/>
</g>
</g>
</g>
<mask id="mask75_198_646" style="mask-type:luminance" maskUnits="userSpaceOnUse" x="53" y="5" width="13" height="6">
<path d="M53.1619 5.45245H65.43V10.905H53.1619V5.45245Z" fill="white"/>
</mask>
<g mask="url(#mask75_198_646)">
<mask id="mask76_198_646" style="mask-type:luminance" maskUnits="userSpaceOnUse" x="-3" y="-7" width="113" height="216">
<path d="M30.1112 -6.1554L109.838 6.77833L77.0964 208.606L-2.62512 195.678L30.1112 -6.1554Z" fill="white"/>
</mask>
<g mask="url(#mask76_198_646)">
<mask id="mask77_198_646" style="mask-type:luminance" maskUnits="userSpaceOnUse" x="-3" y="-7" width="113" height="216">
<path d="M30.1112 -6.1554L109.838 6.77833L77.0964 208.606L-2.62512 195.678L30.1112 -6.1554Z" fill="white"/>
</mask>
<g mask="url(#mask77_198_646)">
<path d="M54.4717 6.03815L63.1563 7.45984L64.6472 9.88791L55.8827 8.42362L54.4717 6.03815Z" fill="#00BF63" stroke="#2B2B2B" stroke-width="1.02" stroke-linecap="round" stroke-linejoin="round"/>
</g>
</g>
</g>
<mask id="mask78_198_646" style="mask-type:luminance" maskUnits="userSpaceOnUse" x="55" y="17" width="7" height="12">
<path d="M55.8882 17.7206H61.3407V28.6256H55.8882V17.7206Z" fill="white"/>
</mask>
<g mask="url(#mask78_198_646)">
<mask id="mask79_198_646" style="mask-type:luminance" maskUnits="userSpaceOnUse" x="-3" y="-7" width="113" height="216">
<path d="M30.1113 -6.1554L109.838 6.77833L77.0966 208.606L-2.625 195.678L30.1113 -6.1554Z" fill="white"/>
</mask>
<g mask="url(#mask79_198_646)">
<mask id="mask80_198_646" style="mask-type:luminance" maskUnits="userSpaceOnUse" x="-3" y="-7" width="113" height="216">
<path d="M30.1113 -6.1554L109.838 6.77833L77.0966 208.606L-2.625 195.678L30.1113 -6.1554Z" fill="white"/>
</mask>
<g mask="url(#mask80_198_646)">
<path d="M59.376 18.1466L60.7977 20.5906L57.8478 27.9227L56.4741 25.3722L59.376 18.1466Z" fill="#00BF63" stroke="#2B2B2B" stroke-width="1.02" stroke-linecap="round" stroke-linejoin="round"/>
</g>
</g>
</g>
<mask id="mask81_198_646" style="mask-type:luminance" maskUnits="userSpaceOnUse" x="62" y="1" width="4" height="10">
<path d="M62.7039 1.3631H65.4301V10.905H62.7039V1.3631Z" fill="white"/>
</mask>
<g mask="url(#mask81_198_646)">
<mask id="mask82_198_646" style="mask-type:luminance" maskUnits="userSpaceOnUse" x="-3" y="-7" width="113" height="216">
<path d="M30.1113 -6.1554L109.838 6.77833L77.0966 208.606L-2.625 195.678L30.1113 -6.1554Z" fill="white"/>
</mask>
<g mask="url(#mask82_198_646)">
<mask id="mask83_198_646" style="mask-type:luminance" maskUnits="userSpaceOnUse" x="-3" y="-7" width="113" height="216">
<path d="M30.1113 -6.1554L109.838 6.77833L77.0966 208.606L-2.625 195.678L30.1113 -6.1554Z" fill="white"/>
</mask>
<g mask="url(#mask83_198_646)">
<path d="M63.0978 2.41205L64.5195 4.81349L64.6313 9.89859L63.2096 7.4865L63.0978 2.41205Z" fill="#00BF63" stroke="#2B2B2B" stroke-width="1.02" stroke-linecap="round" stroke-linejoin="round"/>
</g>
</g>
</g>
<mask id="mask84_198_646" style="mask-type:luminance" maskUnits="userSpaceOnUse" x="62" y="0" width="9" height="6">
<path d="M62.7039 0H70.8826V5.4525H62.7039V0Z" fill="white"/>
</mask>
<g mask="url(#mask84_198_646)">
<mask id="mask85_198_646" style="mask-type:luminance" maskUnits="userSpaceOnUse" x="-3" y="-7" width="113" height="216">
<path d="M30.1113 -6.1554L109.838 6.77833L77.0966 208.606L-2.625 195.678L30.1113 -6.1554Z" fill="white"/>
</mask>
<g mask="url(#mask85_198_646)">
<mask id="mask86_198_646" style="mask-type:luminance" maskUnits="userSpaceOnUse" x="-3" y="-7" width="113" height="216">
<path d="M30.1113 -6.1554L109.838 6.77833L77.0966 208.606L-2.625 195.678L30.1113 -6.1554Z" fill="white"/>
</mask>
<g mask="url(#mask86_198_646)">
<path d="M63.0659 2.33748L68.3427 0.175651L69.7165 2.62502L64.5462 4.76023L63.0659 2.33748Z" fill="#00BF63" stroke="#2B2B2B" stroke-width="1.02" stroke-linecap="round" stroke-linejoin="round"/>
</g>
</g>
</g>
<mask id="mask87_198_646" style="mask-type:luminance" maskUnits="userSpaceOnUse" x="53" y="1" width="28" height="31">
<path d="M53.1619 1.3631H80.4244V31.3519H53.1619V1.3631Z" fill="white"/>
</mask>
<g mask="url(#mask87_198_646)">
<mask id="mask88_198_646" style="mask-type:luminance" maskUnits="userSpaceOnUse" x="-3" y="-7" width="113" height="216">
<path d="M30.1112 -6.1554L109.838 6.77833L77.0964 208.606L-2.62512 195.678L30.1112 -6.1554Z" fill="white"/>
</mask>
<g mask="url(#mask88_198_646)">
<mask id="mask89_198_646" style="mask-type:luminance" maskUnits="userSpaceOnUse" x="-3" y="-7" width="113" height="216">
<path d="M30.1112 -6.1554L109.838 6.77833L77.0964 208.606L-2.62512 195.678L30.1112 -6.1554Z" fill="white"/>
</mask>
<g mask="url(#mask89_198_646)">
<path d="M55.7658 8.46086L64.6474 9.89853L64.5036 4.78148L69.7591 2.6303L74.3969 6.38422L72.2511 11.1339L80.0678 12.4011L78.2627 23.4393L72.4694 22.4968L72.725 30.3348L57.8478 27.9227L60.7923 20.6012L54.0725 19.515L55.7658 8.46086Z" fill="#00BF63" stroke="#2B2B2B" stroke-width="1.02" stroke-linecap="round" stroke-linejoin="round"/>
</g>
</g>
</g>
<mask id="mask90_198_646" style="mask-type:luminance" maskUnits="userSpaceOnUse" x="68" y="0" width="7" height="7">
<path d="M68.1564 0H74.972V6.81563H68.1564V0Z" fill="white"/>
</mask>
<g mask="url(#mask90_198_646)">
<mask id="mask91_198_646" style="mask-type:luminance" maskUnits="userSpaceOnUse" x="-3" y="-7" width="113" height="216">
<path d="M30.1113 -6.1554L109.838 6.77833L77.0966 208.606L-2.625 195.678L30.1113 -6.1554Z" fill="white"/>
</mask>
<g mask="url(#mask91_198_646)">
<mask id="mask92_198_646" style="mask-type:luminance" maskUnits="userSpaceOnUse" x="-3" y="-7" width="113" height="216">
<path d="M30.1113 -6.1554L109.838 6.77833L77.0966 208.606L-2.625 195.678L30.1113 -6.1554Z" fill="white"/>
</mask>
<g mask="url(#mask92_198_646)">
<path d="M68.3641 0.19696L72.9647 3.89763L74.3544 6.33635L69.7273 2.65698L68.3641 0.19696Z" fill="#00BF63" stroke="#2B2B2B" stroke-width="1.05" stroke-linecap="round" stroke-linejoin="round"/>
</g>
</g>
</g>
<path d="M103.371 173.364C104.391 173.364 105.213 173.682 105.837 174.318C106.461 174.942 106.773 175.77 106.773 176.802C106.773 177.822 106.455 178.644 105.819 179.268C105.195 179.892 104.367 180.204 103.335 180.204H99.5911C99.5431 180.204 99.5191 180.228 99.5191 180.276V185.82C99.5191 185.94 99.4591 186 99.3391 186H98.7451C98.6251 186 98.5651 185.94 98.5651 185.82V173.544C98.5651 173.424 98.6251 173.364 98.7451 173.364H103.371ZM103.299 179.394C104.055 179.394 104.661 179.16 105.117 178.692C105.585 178.212 105.819 177.588 105.819 176.82C105.819 176.04 105.585 175.416 105.117 174.948C104.661 174.468 104.055 174.228 103.299 174.228H99.5911C99.5431 174.228 99.5191 174.252 99.5191 174.3V179.322C99.5191 179.37 99.5431 179.394 99.5911 179.394H103.299ZM112.369 176.784C113.425 176.784 114.229 177.06 114.781 177.612C115.333 178.152 115.609 178.884 115.609 179.808V185.82C115.609 185.94 115.549 186 115.429 186H114.835C114.715 186 114.655 185.94 114.655 185.82V184.974C114.655 184.95 114.643 184.932 114.619 184.92C114.607 184.908 114.589 184.914 114.565 184.938C114.253 185.334 113.845 185.634 113.341 185.838C112.849 186.042 112.297 186.144 111.685 186.144C110.857 186.144 110.155 185.934 109.579 185.514C109.003 185.094 108.715 184.452 108.715 183.588C108.715 182.7 109.045 181.998 109.705 181.482C110.365 180.966 111.271 180.708 112.423 180.708H114.583C114.631 180.708 114.655 180.684 114.655 180.636V179.826C114.655 179.154 114.463 178.62 114.079 178.224C113.707 177.828 113.131 177.63 112.351 177.63C111.739 177.63 111.235 177.756 110.839 178.008C110.443 178.26 110.197 178.596 110.101 179.016C110.065 179.136 109.993 179.19 109.885 179.178L109.255 179.088C109.123 179.064 109.069 179.016 109.093 178.944C109.201 178.296 109.549 177.774 110.137 177.378C110.737 176.982 111.481 176.784 112.369 176.784ZM111.847 185.316C112.603 185.316 113.257 185.13 113.809 184.758C114.373 184.386 114.655 183.87 114.655 183.21V181.572C114.655 181.524 114.631 181.5 114.583 181.5H112.513C111.661 181.5 110.971 181.68 110.443 182.04C109.927 182.4 109.669 182.898 109.669 183.534C109.669 184.122 109.873 184.566 110.281 184.866C110.689 185.166 111.211 185.316 111.847 185.316ZM119.567 175.11C119.303 175.11 119.087 175.026 118.919 174.858C118.751 174.69 118.667 174.474 118.667 174.21C118.667 173.946 118.751 173.73 118.919 173.562C119.087 173.394 119.303 173.31 119.567 173.31C119.831 173.31 120.047 173.394 120.215 173.562C120.383 173.73 120.467 173.946 120.467 174.21C120.467 174.474 120.383 174.69 120.215 174.858C120.047 175.026 119.831 175.11 119.567 175.11ZM119.225 185.982C119.105 185.982 119.045 185.922 119.045 185.802V177.09C119.045 176.97 119.105 176.91 119.225 176.91H119.819C119.939 176.91 119.999 176.97 119.999 177.09V185.802C119.999 185.922 119.939 185.982 119.819 185.982H119.225ZM127.358 176.802C128.282 176.802 129.026 177.084 129.59 177.648C130.166 178.212 130.454 178.956 130.454 179.88V185.82C130.454 185.94 130.394 186 130.274 186H129.68C129.56 186 129.5 185.94 129.5 185.82V180.06C129.5 179.352 129.284 178.776 128.852 178.332C128.42 177.876 127.856 177.648 127.16 177.648C126.44 177.648 125.858 177.87 125.414 178.314C124.97 178.746 124.748 179.316 124.748 180.024V185.82C124.748 185.94 124.688 186 124.568 186H123.974C123.854 186 123.794 185.94 123.794 185.82V177.108C123.794 176.988 123.854 176.928 123.974 176.928H124.568C124.688 176.928 124.748 176.988 124.748 177.108V177.99C124.748 178.026 124.754 178.05 124.766 178.062C124.79 178.062 124.808 178.05 124.82 178.026C125.084 177.63 125.432 177.33 125.864 177.126C126.296 176.91 126.794 176.802 127.358 176.802ZM137.065 185.298C137.629 185.298 138.109 185.172 138.505 184.92C138.913 184.656 139.231 184.296 139.459 183.84C139.519 183.732 139.597 183.702 139.693 183.75L140.161 183.984C140.269 184.044 140.299 184.122 140.251 184.218C139.987 184.806 139.567 185.274 138.991 185.622C138.427 185.97 137.761 186.144 136.993 186.144C136.153 186.144 135.439 185.94 134.851 185.532C134.263 185.124 133.861 184.566 133.645 183.858C133.549 183.558 133.483 183.222 133.447 182.85C133.411 182.478 133.393 182.01 133.393 181.446C133.393 180.858 133.399 180.414 133.411 180.114C133.435 179.814 133.477 179.538 133.537 179.286C133.729 178.53 134.119 177.924 134.707 177.468C135.307 177.012 136.039 176.784 136.903 176.784C137.887 176.784 138.673 177.042 139.261 177.558C139.849 178.062 140.215 178.764 140.359 179.664C140.395 179.892 140.419 180.162 140.431 180.474C140.443 180.774 140.449 181.152 140.449 181.608C140.449 181.728 140.389 181.788 140.269 181.788H134.401C134.353 181.788 134.329 181.812 134.329 181.86C134.329 182.628 134.359 183.138 134.419 183.39C134.551 183.978 134.845 184.446 135.301 184.794C135.769 185.13 136.357 185.298 137.065 185.298ZM134.455 179.502C134.395 179.73 134.353 180.198 134.329 180.906C134.329 180.954 134.353 180.978 134.401 180.978H139.423C139.471 180.978 139.495 180.954 139.495 180.906C139.495 180.306 139.465 179.856 139.405 179.556C139.273 178.98 138.985 178.518 138.541 178.17C138.097 177.81 137.551 177.63 136.903 177.63C136.255 177.63 135.715 177.804 135.283 178.152C134.851 178.488 134.575 178.938 134.455 179.502ZM143.766 186C143.646 186 143.586 185.94 143.586 185.82V173.58C143.586 173.46 143.646 173.4 143.766 173.4H144.36C144.48 173.4 144.54 173.46 144.54 173.58V185.82C144.54 185.94 144.48 186 144.36 186H143.766ZM154.976 176.784C156.032 176.784 156.836 177.06 157.388 177.612C157.94 178.152 158.216 178.884 158.216 179.808V185.82C158.216 185.94 158.156 186 158.036 186H157.442C157.322 186 157.262 185.94 157.262 185.82V184.974C157.262 184.95 157.25 184.932 157.226 184.92C157.214 184.908 157.196 184.914 157.172 184.938C156.86 185.334 156.452 185.634 155.948 185.838C155.456 186.042 154.904 186.144 154.292 186.144C153.464 186.144 152.762 185.934 152.186 185.514C151.61 185.094 151.322 184.452 151.322 183.588C151.322 182.7 151.652 181.998 152.312 181.482C152.972 180.966 153.878 180.708 155.03 180.708H157.19C157.238 180.708 157.262 180.684 157.262 180.636V179.826C157.262 179.154 157.07 178.62 156.686 178.224C156.314 177.828 155.738 177.63 154.958 177.63C154.346 177.63 153.842 177.756 153.446 178.008C153.05 178.26 152.804 178.596 152.708 179.016C152.672 179.136 152.6 179.19 152.492 179.178L151.862 179.088C151.73 179.064 151.676 179.016 151.7 178.944C151.808 178.296 152.156 177.774 152.744 177.378C153.344 176.982 154.088 176.784 154.976 176.784ZM154.454 185.316C155.21 185.316 155.864 185.13 156.416 184.758C156.98 184.386 157.262 183.87 157.262 183.21V181.572C157.262 181.524 157.238 181.5 157.19 181.5H155.12C154.268 181.5 153.578 181.68 153.05 182.04C152.534 182.4 152.276 182.898 152.276 183.534C152.276 184.122 152.48 184.566 152.888 184.866C153.296 185.166 153.818 185.316 154.454 185.316ZM167.088 173.58C167.088 173.46 167.148 173.4 167.268 173.4H167.862C167.982 173.4 168.042 173.46 168.042 173.58V185.82C168.042 185.94 167.982 186 167.862 186H167.268C167.148 186 167.088 185.94 167.088 185.82V184.938C167.088 184.902 167.076 184.884 167.052 184.884C167.04 184.872 167.022 184.878 166.998 184.902C166.746 185.298 166.41 185.604 165.99 185.82C165.57 186.036 165.096 186.144 164.568 186.144C163.752 186.144 163.062 185.928 162.498 185.496C161.934 185.064 161.55 184.482 161.346 183.75C161.262 183.474 161.208 183.168 161.184 182.832C161.16 182.484 161.148 182.034 161.148 181.482C161.148 180.942 161.16 180.498 161.184 180.15C161.208 179.802 161.256 179.49 161.328 179.214C161.508 178.47 161.88 177.882 162.444 177.45C163.02 177.006 163.728 176.784 164.568 176.784C165.096 176.784 165.57 176.892 165.99 177.108C166.41 177.324 166.746 177.63 166.998 178.026C167.01 178.062 167.028 178.08 167.052 178.08C167.076 178.068 167.088 178.044 167.088 178.008V173.58ZM166.854 183.606C166.938 183.378 166.992 183.12 167.016 182.832C167.052 182.544 167.07 182.094 167.07 181.482C167.07 180.846 167.052 180.384 167.016 180.096C166.98 179.796 166.92 179.526 166.836 179.286C166.704 178.794 166.446 178.398 166.062 178.098C165.69 177.786 165.228 177.63 164.676 177.63C164.112 177.63 163.626 177.786 163.218 178.098C162.81 178.398 162.534 178.788 162.39 179.268C162.282 179.496 162.204 179.76 162.156 180.06C162.12 180.348 162.102 180.816 162.102 181.464C162.102 182.088 162.12 182.544 162.156 182.832C162.192 183.108 162.252 183.366 162.336 183.606C162.456 184.11 162.726 184.518 163.146 184.83C163.566 185.142 164.07 185.298 164.658 185.298C165.222 185.298 165.69 185.142 166.062 184.83C166.446 184.518 166.71 184.11 166.854 183.606ZM180.534 176.802C181.41 176.802 182.112 177.066 182.64 177.594C183.168 178.122 183.432 178.848 183.432 179.772V185.82C183.432 185.94 183.372 186 183.252 186H182.676C182.556 186 182.496 185.94 182.496 185.82V179.952C182.496 179.244 182.286 178.686 181.866 178.278C181.458 177.858 180.924 177.648 180.264 177.648C179.568 177.648 179.004 177.852 178.572 178.26C178.152 178.668 177.942 179.22 177.942 179.916V185.82C177.942 185.94 177.882 186 177.762 186H177.186C177.066 186 177.006 185.94 177.006 185.82V179.952C177.006 179.244 176.802 178.686 176.394 178.278C175.986 177.858 175.452 177.648 174.792 177.648C174.084 177.648 173.52 177.852 173.1 178.26C172.692 178.668 172.488 179.22 172.488 179.916V185.82C172.488 185.94 172.428 186 172.308 186H171.714C171.594 186 171.534 185.94 171.534 185.82V177.108C171.534 176.988 171.594 176.928 171.714 176.928H172.308C172.428 176.928 172.488 176.988 172.488 177.108V177.918C172.488 177.942 172.5 177.96 172.524 177.972C172.548 177.984 172.566 177.978 172.578 177.954C172.83 177.57 173.166 177.282 173.586 177.09C174.018 176.898 174.504 176.802 175.044 176.802C175.668 176.802 176.202 176.94 176.646 177.216C177.102 177.48 177.444 177.858 177.672 178.35C177.696 178.398 177.726 178.404 177.762 178.368C178.014 177.852 178.38 177.462 178.86 177.198C179.34 176.934 179.898 176.802 180.534 176.802ZM187.521 175.11C187.257 175.11 187.041 175.026 186.873 174.858C186.705 174.69 186.621 174.474 186.621 174.21C186.621 173.946 186.705 173.73 186.873 173.562C187.041 173.394 187.257 173.31 187.521 173.31C187.785 173.31 188.001 173.394 188.169 173.562C188.337 173.73 188.421 173.946 188.421 174.21C188.421 174.474 188.337 174.69 188.169 174.858C188.001 175.026 187.785 175.11 187.521 175.11ZM187.179 185.982C187.059 185.982 186.999 185.922 186.999 185.802V177.09C186.999 176.97 187.059 176.91 187.179 176.91H187.773C187.893 176.91 187.953 176.97 187.953 177.09V185.802C187.953 185.922 187.893 185.982 187.773 185.982H187.179ZM195.312 176.802C196.236 176.802 196.98 177.084 197.544 177.648C198.12 178.212 198.408 178.956 198.408 179.88V185.82C198.408 185.94 198.348 186 198.228 186H197.634C197.514 186 197.454 185.94 197.454 185.82V180.06C197.454 179.352 197.238 178.776 196.806 178.332C196.374 177.876 195.81 177.648 195.114 177.648C194.394 177.648 193.812 177.87 193.368 178.314C192.924 178.746 192.702 179.316 192.702 180.024V185.82C192.702 185.94 192.642 186 192.522 186H191.928C191.808 186 191.748 185.94 191.748 185.82V177.108C191.748 176.988 191.808 176.928 191.928 176.928H192.522C192.642 176.928 192.702 176.988 192.702 177.108V177.99C192.702 178.026 192.708 178.05 192.72 178.062C192.744 178.062 192.762 178.05 192.774 178.026C193.038 177.63 193.386 177.33 193.818 177.126C194.25 176.91 194.748 176.802 195.312 176.802ZM202.514 175.11C202.25 175.11 202.034 175.026 201.866 174.858C201.698 174.69 201.614 174.474 201.614 174.21C201.614 173.946 201.698 173.73 201.866 173.562C202.034 173.394 202.25 173.31 202.514 173.31C202.778 173.31 202.994 173.394 203.162 173.562C203.33 173.73 203.414 173.946 203.414 174.21C203.414 174.474 203.33 174.69 203.162 174.858C202.994 175.026 202.778 175.11 202.514 175.11ZM202.172 185.982C202.052 185.982 201.992 185.922 201.992 185.802V177.09C201.992 176.97 202.052 176.91 202.172 176.91H202.766C202.886 176.91 202.946 176.97 202.946 177.09V185.802C202.946 185.922 202.886 185.982 202.766 185.982H202.172ZM209.568 186.09C208.92 186.09 208.344 185.988 207.84 185.784C207.348 185.568 206.964 185.28 206.688 184.92C206.412 184.56 206.274 184.164 206.274 183.732V183.498C206.274 183.378 206.334 183.318 206.454 183.318H207.012C207.132 183.318 207.192 183.378 207.192 183.498V183.696C207.192 184.14 207.414 184.524 207.858 184.848C208.302 185.16 208.866 185.316 209.55 185.316C210.222 185.316 210.768 185.154 211.188 184.83C211.608 184.506 211.818 184.104 211.818 183.624C211.818 183.288 211.71 183.012 211.494 182.796C211.278 182.58 211.02 182.418 210.72 182.31C210.432 182.19 209.994 182.04 209.406 181.86C208.734 181.656 208.194 181.464 207.786 181.284C207.378 181.104 207.03 180.852 206.742 180.528C206.466 180.192 206.328 179.772 206.328 179.268C206.328 178.536 206.616 177.954 207.192 177.522C207.78 177.078 208.548 176.856 209.496 176.856C210.132 176.856 210.69 176.964 211.17 177.18C211.662 177.384 212.04 177.666 212.304 178.026C212.58 178.386 212.718 178.794 212.718 179.25V179.304C212.718 179.424 212.658 179.484 212.538 179.484H211.98C211.86 179.484 211.8 179.424 211.8 179.304V179.25C211.8 178.794 211.584 178.416 211.152 178.116C210.732 177.804 210.174 177.648 209.478 177.648C208.806 177.648 208.266 177.792 207.858 178.08C207.45 178.356 207.246 178.734 207.246 179.214C207.246 179.67 207.432 180.012 207.804 180.24C208.188 180.468 208.782 180.702 209.586 180.942C210.282 181.146 210.834 181.338 211.242 181.518C211.662 181.698 212.022 181.956 212.322 182.292C212.622 182.616 212.772 183.042 212.772 183.57C212.772 184.326 212.478 184.938 211.89 185.406C211.314 185.862 210.54 186.09 209.568 186.09ZM219.46 177.558C219.46 177.678 219.4 177.738 219.28 177.738H217.174C217.126 177.738 217.102 177.762 217.102 177.81V183.498C217.102 184.11 217.24 184.542 217.516 184.794C217.792 185.034 218.236 185.154 218.848 185.154H219.262C219.382 185.154 219.442 185.214 219.442 185.334V185.82C219.442 185.94 219.382 186 219.262 186L218.722 186.018C217.882 186.018 217.246 185.856 216.814 185.532C216.394 185.208 216.178 184.614 216.166 183.75V177.81C216.166 177.762 216.142 177.738 216.094 177.738H215.014C214.894 177.738 214.834 177.678 214.834 177.558V177.108C214.834 176.988 214.894 176.928 215.014 176.928H216.094C216.142 176.928 216.166 176.904 216.166 176.856V174.804C216.166 174.684 216.226 174.624 216.346 174.624H216.922C217.042 174.624 217.102 174.684 217.102 174.804V176.856C217.102 176.904 217.126 176.928 217.174 176.928H219.28C219.4 176.928 219.46 176.988 219.46 177.108V177.558ZM225.929 176.856C226.337 176.856 226.685 176.928 226.973 177.072C227.069 177.108 227.105 177.186 227.081 177.306L226.919 177.882C226.883 178.002 226.805 178.038 226.685 177.99C226.445 177.894 226.145 177.852 225.785 177.864C225.113 177.876 224.555 178.134 224.111 178.638C223.679 179.13 223.463 179.736 223.463 180.456V185.82C223.463 185.94 223.403 186 223.283 186H222.689C222.569 186 222.509 185.94 222.509 185.82V177.108C222.509 176.988 222.569 176.928 222.689 176.928H223.283C223.403 176.928 223.463 176.988 223.463 177.108V178.332C223.463 178.368 223.469 178.392 223.481 178.404C223.505 178.404 223.523 178.386 223.535 178.35C223.787 177.882 224.111 177.516 224.507 177.252C224.915 176.988 225.389 176.856 225.929 176.856ZM232.326 176.784C233.382 176.784 234.186 177.06 234.738 177.612C235.29 178.152 235.566 178.884 235.566 179.808V185.82C235.566 185.94 235.506 186 235.386 186H234.792C234.672 186 234.612 185.94 234.612 185.82V184.974C234.612 184.95 234.6 184.932 234.576 184.92C234.564 184.908 234.546 184.914 234.522 184.938C234.21 185.334 233.802 185.634 233.298 185.838C232.806 186.042 232.254 186.144 231.642 186.144C230.814 186.144 230.112 185.934 229.536 185.514C228.96 185.094 228.672 184.452 228.672 183.588C228.672 182.7 229.002 181.998 229.662 181.482C230.322 180.966 231.228 180.708 232.38 180.708H234.54C234.588 180.708 234.612 180.684 234.612 180.636V179.826C234.612 179.154 234.42 178.62 234.036 178.224C233.664 177.828 233.088 177.63 232.308 177.63C231.696 177.63 231.192 177.756 230.796 178.008C230.4 178.26 230.154 178.596 230.058 179.016C230.022 179.136 229.95 179.19 229.842 179.178L229.212 179.088C229.08 179.064 229.026 179.016 229.05 178.944C229.158 178.296 229.506 177.774 230.094 177.378C230.694 176.982 231.438 176.784 232.326 176.784ZM231.804 185.316C232.56 185.316 233.214 185.13 233.766 184.758C234.33 184.386 234.612 183.87 234.612 183.21V181.572C234.612 181.524 234.588 181.5 234.54 181.5H232.47C231.618 181.5 230.928 181.68 230.4 182.04C229.884 182.4 229.626 182.898 229.626 183.534C229.626 184.122 229.83 184.566 230.238 184.866C230.646 185.166 231.168 185.316 231.804 185.316ZM242.512 177.558C242.512 177.678 242.452 177.738 242.332 177.738H240.226C240.178 177.738 240.154 177.762 240.154 177.81V183.498C240.154 184.11 240.292 184.542 240.568 184.794C240.844 185.034 241.288 185.154 241.9 185.154H242.314C242.434 185.154 242.494 185.214 242.494 185.334V185.82C242.494 185.94 242.434 186 242.314 186L241.774 186.018C240.934 186.018 240.298 185.856 239.866 185.532C239.446 185.208 239.23 184.614 239.218 183.75V177.81C239.218 177.762 239.194 177.738 239.146 177.738H238.066C237.946 177.738 237.886 177.678 237.886 177.558V177.108C237.886 176.988 237.946 176.928 238.066 176.928H239.146C239.194 176.928 239.218 176.904 239.218 176.856V174.804C239.218 174.684 239.278 174.624 239.398 174.624H239.974C240.094 174.624 240.154 174.684 240.154 174.804V176.856C240.154 176.904 240.178 176.928 240.226 176.928H242.332C242.452 176.928 242.512 176.988 242.512 177.108V177.558ZM246.299 175.11C246.035 175.11 245.819 175.026 245.651 174.858C245.483 174.69 245.399 174.474 245.399 174.21C245.399 173.946 245.483 173.73 245.651 173.562C245.819 173.394 246.035 173.31 246.299 173.31C246.563 173.31 246.779 173.394 246.947 173.562C247.115 173.73 247.199 173.946 247.199 174.21C247.199 174.474 247.115 174.69 246.947 174.858C246.779 175.026 246.563 175.11 246.299 175.11ZM245.957 185.982C245.837 185.982 245.777 185.922 245.777 185.802V177.09C245.777 176.97 245.837 176.91 245.957 176.91H246.551C246.671 176.91 246.731 176.97 246.731 177.09V185.802C246.731 185.922 246.671 185.982 246.551 185.982H245.957ZM252.795 186C252.687 186 252.615 185.952 252.579 185.856L249.591 177.126L249.573 177.054C249.573 176.97 249.627 176.928 249.735 176.928H250.419C250.527 176.928 250.599 176.976 250.635 177.072L253.083 184.524C253.095 184.548 253.113 184.56 253.137 184.56C253.161 184.56 253.179 184.548 253.191 184.524L255.639 177.072C255.675 176.976 255.747 176.928 255.855 176.928L256.521 176.946C256.653 176.946 256.701 177.012 256.665 177.144L253.695 185.856C253.659 185.952 253.587 186 253.479 186H252.795ZM262.284 186.144C261.444 186.144 260.724 185.922 260.124 185.478C259.524 185.034 259.116 184.44 258.9 183.696C258.768 183.216 258.702 182.466 258.702 181.446C258.702 180.426 258.768 179.682 258.9 179.214C259.116 178.47 259.518 177.882 260.106 177.45C260.706 177.006 261.438 176.784 262.302 176.784C263.142 176.784 263.862 177.006 264.462 177.45C265.074 177.894 265.482 178.482 265.686 179.214C265.758 179.49 265.806 179.802 265.83 180.15C265.854 180.486 265.866 180.918 265.866 181.446C265.866 181.998 265.854 182.442 265.83 182.778C265.806 183.114 265.758 183.42 265.686 183.696C265.482 184.44 265.074 185.034 264.462 185.478C263.862 185.922 263.136 186.144 262.284 186.144ZM262.284 185.298C262.92 185.298 263.46 185.124 263.904 184.776C264.36 184.416 264.654 183.948 264.786 183.372C264.87 183.048 264.912 182.412 264.912 181.464C264.912 180.504 264.876 179.868 264.804 179.556C264.672 178.968 264.378 178.5 263.922 178.152C263.478 177.804 262.932 177.63 262.284 177.63C261.636 177.63 261.09 177.804 260.646 178.152C260.202 178.5 259.914 178.968 259.782 179.556C259.698 179.928 259.656 180.564 259.656 181.464C259.656 182.364 259.698 183 259.782 183.372C259.914 183.96 260.202 184.428 260.646 184.776C261.09 185.124 261.636 185.298 262.284 185.298Z" fill="#ADB5BD"/>
</svg>
