<svg width="190" height="30" viewBox="0 0 190 30" fill="none" xmlns="http://www.w3.org/2000/svg" role="img" aria-labelledby="svg-carrinho"><title id="svg-carrinho">Logo Gama Zone</title>
<g clip-path="url(#clip0_140_133)">
<path d="M47.464 6.736C47.464 6.58667 47.5067 6.46933 47.592 6.384C47.6773 6.29867 47.7947 6.256 47.944 6.256H53C53.1493 6.256 53.2667 6.29867 53.352 6.384C53.4373 6.46933 53.48 6.58667 53.48 6.736V20.72C53.48 23.7707 52.5947 25.936 50.824 27.216C49.0747 28.5173 46.8667 29.168 44.2 29.168C43.0053 29.168 41.8853 29.072 40.84 28.88C40.5627 28.816 40.424 28.6347 40.424 28.336L40.616 24.016C40.616 23.6533 40.808 23.5253 41.192 23.632C42.088 23.8667 42.9307 23.984 43.72 23.984C44.744 23.984 45.5867 23.7707 46.248 23.344C46.9093 22.9173 47.304 22.2667 47.432 21.392C47.4533 21.3067 47.432 21.2533 47.368 21.232C47.3253 21.2107 47.272 21.232 47.208 21.296C46.4827 21.9787 45.4373 22.32 44.072 22.32C40.6587 22.32 38.4827 20.9333 37.544 18.16C37.1813 17.0933 37 15.8453 37 14.416C37 12.8373 37.224 11.4933 37.672 10.384C38.184 9.04 38.984 7.97333 40.072 7.184C41.1813 6.39467 42.4507 6 43.88 6C45.352 6 46.4827 6.448 47.272 7.344C47.3147 7.38667 47.3573 7.408 47.4 7.408C47.4427 7.38667 47.464 7.344 47.464 7.28V6.736ZM47.144 16.592C47.3573 16.0373 47.464 15.3013 47.464 14.384C47.464 13.5307 47.3467 12.8373 47.112 12.304C46.7493 11.536 46.1413 11.152 45.288 11.152C44.5413 11.152 43.976 11.5253 43.592 12.272C43.2507 12.8693 43.08 13.6053 43.08 14.48C43.08 15.3333 43.2187 16.0267 43.496 16.56C43.88 17.3067 44.4987 17.68 45.352 17.68C46.2053 17.68 46.8027 17.3173 47.144 16.592Z" fill="white"/>
<path d="M62.8347 6C64.2854 6 65.6187 6.24533 66.8347 6.736C68.0507 7.22667 69.0107 7.89867 69.7147 8.752C70.4187 9.60533 70.7707 10.5333 70.7707 11.536V22.416C70.7707 22.5653 70.7281 22.6827 70.6427 22.768C70.5574 22.8533 70.4401 22.896 70.2907 22.896H65.2347C65.0854 22.896 64.9681 22.8533 64.8827 22.768C64.7974 22.6827 64.7547 22.5653 64.7547 22.416V21.296C64.7547 21.2107 64.7334 21.168 64.6908 21.168C64.6694 21.1467 64.6374 21.168 64.5947 21.232C64.2321 21.8933 63.7307 22.384 63.0907 22.704C62.4508 23.0027 61.6081 23.152 60.5627 23.152C58.8134 23.152 57.4374 22.7573 56.4347 21.968C55.4321 21.1573 54.9307 19.984 54.9307 18.448C54.9307 16.8267 55.4961 15.5787 56.6267 14.704C57.7787 13.8293 59.4427 13.392 61.6187 13.392H64.5947C64.7014 13.392 64.7547 13.3387 64.7547 13.232V12.656C64.7547 12.208 64.5841 11.8453 64.2427 11.568C63.9227 11.2907 63.4854 11.152 62.9307 11.152C62.5467 11.152 62.2054 11.216 61.9067 11.344C61.6081 11.472 61.3948 11.6427 61.2668 11.856C61.1814 12.0053 61.0961 12.112 61.0107 12.176C60.9468 12.2187 60.8507 12.2293 60.7227 12.208L55.5707 11.568C55.2721 11.5253 55.1227 11.3973 55.1227 11.184C55.2081 10.224 55.5921 9.34933 56.2747 8.56C56.9574 7.77067 57.8641 7.152 58.9947 6.704C60.1467 6.23467 61.4268 6 62.8347 6ZM62.4187 18.992C63.1014 18.992 63.6561 18.8107 64.0827 18.448C64.5307 18.0853 64.7547 17.5947 64.7547 16.976V16.56C64.7547 16.4533 64.7014 16.4 64.5947 16.4H62.9947C61.6507 16.4 60.9787 16.8373 60.9787 17.712C60.9787 18.096 61.0961 18.4053 61.3307 18.64C61.5868 18.8747 61.9494 18.992 62.4187 18.992Z" fill="white"/>
<path d="M92.564 6C94.2493 6 95.5613 6.52267 96.5 7.568C97.4387 8.61333 97.908 10.0853 97.908 11.984V22.416C97.908 22.5653 97.8653 22.6827 97.78 22.768C97.6947 22.8533 97.5773 22.896 97.428 22.896H92.372C92.2227 22.896 92.1053 22.8533 92.02 22.768C91.9347 22.6827 91.892 22.5653 91.892 22.416V13.296C91.892 12.656 91.732 12.144 91.412 11.76C91.1133 11.3547 90.7187 11.152 90.228 11.152C89.716 11.152 89.3 11.3547 88.98 11.76C88.66 12.144 88.5 12.656 88.5 13.296V22.416C88.5 22.5653 88.4573 22.6827 88.372 22.768C88.2867 22.8533 88.1693 22.896 88.02 22.896H82.964C82.8147 22.896 82.6973 22.8533 82.612 22.768C82.5267 22.6827 82.484 22.5653 82.484 22.416V13.296C82.484 12.656 82.3133 12.144 81.972 11.76C81.652 11.3547 81.2253 11.152 80.692 11.152C80.2227 11.152 79.828 11.3013 79.508 11.6C79.2093 11.8773 79.0173 12.2613 78.932 12.752C78.9107 12.7947 78.9 12.8587 78.9 12.944V22.416C78.9 22.5653 78.8573 22.6827 78.772 22.768C78.6867 22.8533 78.5693 22.896 78.42 22.896H73.364C73.2147 22.896 73.0973 22.8533 73.012 22.768C72.9267 22.6827 72.884 22.5653 72.884 22.416V6.736C72.884 6.58667 72.9267 6.46933 73.012 6.384C73.0973 6.29867 73.2147 6.256 73.364 6.256H78.42C78.5693 6.256 78.6867 6.29867 78.772 6.384C78.8573 6.46933 78.9 6.58667 78.9 6.736V8.336C78.9 8.42133 78.9213 8.464 78.964 8.464C79.0067 8.464 79.0493 8.432 79.092 8.368C79.9027 6.78933 81.268 6 83.188 6C84.276 6 85.2253 6.256 86.036 6.768C86.868 7.25867 87.4973 7.97333 87.924 8.912C87.988 9.01867 88.052 9.008 88.116 8.88C88.5427 7.92 89.1293 7.20533 89.876 6.736C90.644 6.24533 91.54 6 92.564 6Z" fill="white"/>
<path d="M107.147 6C108.598 6 109.931 6.24533 111.147 6.736C112.363 7.22667 113.323 7.89867 114.027 8.752C114.731 9.60533 115.083 10.5333 115.083 11.536V22.416C115.083 22.5653 115.041 22.6827 114.955 22.768C114.87 22.8533 114.753 22.896 114.603 22.896H109.547C109.398 22.896 109.281 22.8533 109.195 22.768C109.11 22.6827 109.067 22.5653 109.067 22.416V21.296C109.067 21.2107 109.046 21.168 109.003 21.168C108.982 21.1467 108.95 21.168 108.907 21.232C108.545 21.8933 108.043 22.384 107.403 22.704C106.763 23.0027 105.921 23.152 104.875 23.152C103.126 23.152 101.75 22.7573 100.747 21.968C99.7446 21.1573 99.2432 19.984 99.2432 18.448C99.2432 16.8267 99.8086 15.5787 100.939 14.704C102.091 13.8293 103.755 13.392 105.931 13.392H108.907C109.014 13.392 109.067 13.3387 109.067 13.232V12.656C109.067 12.208 108.897 11.8453 108.555 11.568C108.235 11.2907 107.798 11.152 107.243 11.152C106.859 11.152 106.518 11.216 106.219 11.344C105.921 11.472 105.707 11.6427 105.579 11.856C105.494 12.0053 105.409 12.112 105.323 12.176C105.259 12.2187 105.163 12.2293 105.035 12.208L99.8832 11.568C99.5846 11.5253 99.4352 11.3973 99.4352 11.184C99.5206 10.224 99.9046 9.34933 100.587 8.56C101.27 7.77067 102.177 7.152 103.307 6.704C104.459 6.23467 105.739 6 107.147 6ZM106.731 18.992C107.414 18.992 107.969 18.8107 108.395 18.448C108.843 18.0853 109.067 17.5947 109.067 16.976V16.56C109.067 16.4533 109.014 16.4 108.907 16.4H107.307C105.963 16.4 105.291 16.8373 105.291 17.712C105.291 18.096 105.409 18.4053 105.643 18.64C105.899 18.8747 106.262 18.992 106.731 18.992Z" fill="white"/>
<path d="M120.141 23.152C119.266 23.152 118.54 22.8747 117.965 22.32C117.41 21.744 117.132 21.0187 117.132 20.144C117.132 19.248 117.41 18.5227 117.965 17.968C118.54 17.4133 119.266 17.136 120.141 17.136C121.015 17.136 121.73 17.4133 122.285 17.968C122.861 18.5227 123.149 19.248 123.149 20.144C123.149 20.9973 122.861 21.712 122.285 22.288C121.709 22.864 120.994 23.152 120.141 23.152Z" fill="#49D13A"/>
<path d="M125.858 22.896C125.645 22.896 125.538 22.7893 125.538 22.576V20.336C125.538 20.1867 125.581 20.0587 125.666 19.952L134.146 9.584C134.189 9.54133 134.199 9.50933 134.178 9.488C134.157 9.44533 134.125 9.424 134.082 9.424H126.018C125.805 9.424 125.698 9.31733 125.698 9.104V6.928C125.698 6.71467 125.805 6.608 126.018 6.608H137.57C137.783 6.608 137.89 6.71467 137.89 6.928V9.2C137.89 9.34933 137.847 9.47733 137.762 9.584L129.154 19.952C129.111 19.9947 129.101 20.0373 129.122 20.08C129.143 20.1013 129.175 20.112 129.218 20.112H137.602C137.815 20.112 137.922 20.2187 137.922 20.432V22.576C137.922 22.7893 137.815 22.896 137.602 22.896H125.858Z" fill="white"/>
<path d="M147.912 23.152C146.333 23.152 144.957 22.7573 143.784 21.968C142.61 21.1573 141.789 20.0373 141.32 18.608C140.936 17.456 140.743 16.1547 140.743 14.704C140.743 13.1893 140.925 11.9093 141.288 10.864C141.757 9.456 142.578 8.35733 143.752 7.568C144.925 6.75733 146.322 6.352 147.944 6.352C149.48 6.352 150.813 6.75733 151.944 7.568C153.096 8.35733 153.917 9.44533 154.408 10.832C154.792 11.92 154.984 13.2 154.984 14.672C154.984 16.1653 154.792 17.4773 154.408 18.608C153.938 20.0373 153.128 21.1573 151.976 21.968C150.824 22.7573 149.469 23.152 147.912 23.152ZM147.912 20.496C148.765 20.496 149.512 20.2613 150.152 19.792C150.792 19.3013 151.25 18.6187 151.528 17.744C151.762 16.9333 151.88 15.9307 151.88 14.736C151.88 13.5413 151.773 12.5493 151.56 11.76C151.282 10.8853 150.824 10.2133 150.184 9.744C149.544 9.25333 148.765 9.008 147.848 9.008C146.973 9.008 146.215 9.25333 145.576 9.744C144.936 10.2133 144.477 10.8853 144.2 11.76C143.965 12.5067 143.848 13.4987 143.848 14.736C143.848 15.9733 143.965 16.976 144.2 17.744C144.455 18.6187 144.904 19.3013 145.544 19.792C146.205 20.2613 146.994 20.496 147.912 20.496Z" fill="white"/>
<path d="M166.27 6.384C168.019 6.384 169.406 6.896 170.43 7.92C171.454 8.92267 171.965 10.288 171.965 12.016V22.576C171.965 22.7893 171.859 22.896 171.646 22.896H169.214C169 22.896 168.894 22.7893 168.894 22.576V12.624C168.894 11.5573 168.584 10.6933 167.965 10.032C167.347 9.37067 166.525 9.04 165.501 9.04C164.499 9.04 163.678 9.37067 163.038 10.032C162.398 10.6933 162.077 11.5467 162.077 12.592V22.576C162.077 22.7893 161.971 22.896 161.757 22.896H159.326C159.112 22.896 159.006 22.7893 159.006 22.576V6.928C159.006 6.71467 159.112 6.608 159.326 6.608H161.757C161.971 6.608 162.077 6.71467 162.077 6.928V8.08C162.077 8.12267 162.088 8.15467 162.11 8.176C162.152 8.19733 162.184 8.18667 162.206 8.144C163.123 6.97067 164.478 6.384 166.27 6.384Z" fill="white"/>
<path d="M189.346 12.72C189.431 13.5947 189.463 14.576 189.442 15.664C189.442 15.8773 189.335 15.984 189.122 15.984H178.914C178.828 15.984 178.786 16.0267 178.786 16.112C178.786 16.8373 178.85 17.392 178.978 17.776C179.212 18.6293 179.682 19.3013 180.386 19.792C181.111 20.2613 182.018 20.496 183.106 20.496C184.684 20.496 185.9 19.8453 186.754 18.544C186.86 18.3307 186.999 18.2987 187.17 18.448L188.994 19.664C189.143 19.792 189.175 19.9307 189.09 20.08C188.492 21.04 187.639 21.7973 186.53 22.352C185.442 22.9067 184.204 23.184 182.818 23.184C181.26 23.184 179.948 22.8427 178.882 22.16C177.815 21.4773 177.015 20.5067 176.482 19.248C175.97 17.9893 175.714 16.464 175.714 14.672C175.714 13.1147 175.831 11.9307 176.066 11.12C176.45 9.648 177.218 8.48533 178.37 7.632C179.522 6.77867 180.919 6.352 182.562 6.352C184.716 6.352 186.327 6.896 187.394 7.984C188.46 9.05067 189.111 10.6293 189.346 12.72ZM182.562 9.008C181.644 9.008 180.887 9.24267 180.29 9.712C179.692 10.16 179.287 10.768 179.074 11.536C178.924 12.0053 178.828 12.6027 178.786 13.328C178.786 13.4133 178.828 13.456 178.914 13.456H186.242C186.327 13.456 186.37 13.4133 186.37 13.328C186.327 12.624 186.263 12.1013 186.178 11.76C185.964 10.928 185.538 10.2667 184.898 9.776C184.279 9.264 183.5 9.008 182.562 9.008Z" fill="white"/>
<circle cx="15" cy="15" r="15" fill="#49D13A"/>
<path d="M20.2499 8H9.74993C8.7834 8 8 8.7834 8 9.74993V20.2499C8 21.2165 8.7834 21.9999 9.74993 21.9999H20.2499C21.2165 21.9999 21.9999 21.2165 21.9999 20.2499L22 9.75028C22 8.78361 21.2166 8 20.2499 8ZM11.4999 9.75007C12.4665 9.75007 13.2499 10.5335 13.2499 11.5C13.2499 12.4665 12.4665 13.2499 11.4999 13.2499C10.5334 13.2499 9.75 12.4665 9.75 11.5C9.75 10.5335 10.5334 9.75007 11.4999 9.75007ZM11.4999 20.2501C10.5334 20.2501 9.75 19.4667 9.75 18.5001C9.75 17.5336 10.5334 16.7502 11.4999 16.7502C12.4665 16.7502 13.2499 17.5336 13.2499 18.5001C13.25 19.4667 12.4666 20.2501 11.4999 20.2501ZM14.9999 16.7501C14.0334 16.7501 13.25 15.9667 13.25 15.0001C13.25 14.0336 14.0334 13.2502 14.9999 13.2502C15.9665 13.2502 16.7499 14.0336 16.7499 15.0001C16.7499 15.9667 15.9665 16.7501 14.9999 16.7501ZM18.4999 20.2501C17.5334 20.2501 16.75 19.4667 16.75 18.5001C16.75 17.5336 17.5334 16.7502 18.4999 16.7502C19.4665 16.7502 20.2499 17.5336 20.2499 18.5001C20.2499 19.4667 19.4665 20.2501 18.4999 20.2501ZM18.4999 13.2501C17.5334 13.2501 16.75 12.4667 16.75 11.5001C16.75 10.5336 17.5334 9.75021 18.4999 9.75021C19.4665 9.75021 20.2499 10.5336 20.2499 11.5001C20.2499 12.4667 19.4665 13.2501 18.4999 13.2501Z" fill="black"/>
</g>
<defs>
<clipPath id="clip0_140_133">
<rect width="189.448" height="30" fill="white"/>
</clipPath>
</defs>
</svg>
