<svg width="287" height="203" viewBox="0 0 287 203" fill="none" xmlns="http://www.w3.org/2000/svg" role="img" aria-labelledby="svg-logo-rodape"><title id="svg-logo-rodape">Logo Gama Zone</title>
<path d="M236.084 165.304H269.83V151.598H258.251V147.984H267.241V137.996H258.251V134.311H269.563V120.18H236.084V165.304Z" fill="black"/>
<path d="M190.518 165.304H208.934L205.913 143.072H206.911L210.395 160.855L211.387 165.304H234.383V120.18H215.738L218.256 138.361L217.297 138.427L214.511 124.857L213.481 120.18H190.518V165.304Z" fill="black"/>
<path d="M142.019 144.931C142.057 159.133 150.016 166.498 165.548 166.498C181.108 166.498 189.106 159.133 189.106 144.931V140.384C189.106 126.247 181.108 118.953 165.548 118.953C150.016 118.953 142.019 126.247 142.019 140.351V144.931ZM164.616 147.886V137.435C164.616 136.802 164.949 136.47 165.548 136.47C166.143 136.47 166.475 136.802 166.475 137.435V147.886C166.475 148.513 166.143 148.845 165.548 148.845C164.949 148.845 164.616 148.513 164.616 147.886Z" fill="black"/>
<path d="M103.78 165.304H140.977V150.274H129.561L140.612 132.092L140.645 120.18H104.478V135.177H114.896L103.78 153.125V165.304Z" fill="black"/>
<path d="M264.88 117.154H286.682L274.639 72.0295H251.943L239.894 117.154H261.794L261.93 113.97H264.716L264.88 117.154ZM262.394 102.821L262.857 91.3397H263.522L264.117 102.821H262.394Z" fill="black"/>
<path d="M182.618 117.154H201.034L198.046 94.8888H199.044L203.324 117.154H218.621L222.868 94.8888H223.861L220.878 117.154H239.295V72.0295H212.712L211.42 93.7603H210.526L209.195 72.0295H182.618V117.154Z" fill="black"/>
<path d="M160.206 117.154H182.007L169.964 72.0295H147.268L135.22 117.154H157.12L157.256 113.97H160.042L160.206 117.154ZM157.72 102.821L158.183 91.3397H158.848L159.442 102.821H157.72Z" fill="black"/>
<path d="M111.478 118.348C120.996 118.348 128.896 116.789 134.669 113.703V92.201H111.608L111.576 101.889H112.535V105.443C112.208 105.607 111.843 105.705 111.478 105.705C110.812 105.738 110.447 105.405 110.447 104.746V86.9237C110.447 86.2967 110.78 85.9642 111.445 85.9642C112.072 85.9642 112.404 86.2967 112.404 86.9237V90.6418L134.571 90.6745V88.5211C134.5 76.8379 126.639 70.8027 111.478 70.8027C95.9454 70.8027 87.9476 77.9991 87.9476 92.0375V97.1458C87.9476 111.146 95.9454 118.348 111.478 118.348Z" fill="black"/>
<mask id="mask0_198_642" style="mask-type:luminance" maskUnits="userSpaceOnUse" x="0" y="166" width="84" height="37">
<path d="M0 166.083H83.7395V202.37H0V166.083Z" fill="white"/>
</mask>
<g mask="url(#mask0_198_642)">
<mask id="mask1_198_642" style="mask-type:luminance" maskUnits="userSpaceOnUse" x="-3" y="-7" width="116" height="221">
<path d="M30.8299 -6.30237L112.46 6.94003L78.9364 213.585L-2.68774 200.348L30.8299 -6.30237Z" fill="white"/>
</mask>
<g mask="url(#mask1_198_642)">
<mask id="mask2_198_642" style="mask-type:luminance" maskUnits="userSpaceOnUse" x="-3" y="-7" width="116" height="221">
<path d="M30.8299 -6.30237L112.46 6.94003L78.9364 213.585L-2.68774 200.348L30.8299 -6.30237Z" fill="white"/>
</mask>
<g mask="url(#mask2_198_642)">
<path d="M3.26003 167.092C2.21329 189.679 79.656 200.031 83.0361 180.029L81.0244 192.404C76.603 209.305 5.58795 201.662 1.25377 179.467L3.26003 167.092Z" fill="black" stroke="#2BAF1D" stroke-width="1.01962" stroke-linecap="round" stroke-linejoin="round"/>
</g>
</g>
</g>
<mask id="mask3_198_642" style="mask-type:luminance" maskUnits="userSpaceOnUse" x="2" y="140" width="82" height="52">
<path d="M2.79138 140.961H83.7396V191.205H2.79138V140.961Z" fill="white"/>
</mask>
<g mask="url(#mask3_198_642)">
<mask id="mask4_198_642" style="mask-type:luminance" maskUnits="userSpaceOnUse" x="-3" y="-7" width="116" height="221">
<path d="M30.83 -6.30237L112.46 6.94003L78.9366 213.585L-2.68762 200.348L30.83 -6.30237Z" fill="white"/>
</mask>
<g mask="url(#mask4_198_642)">
<mask id="mask5_198_642" style="mask-type:luminance" maskUnits="userSpaceOnUse" x="-3" y="-7" width="116" height="221">
<path d="M30.83 -6.30237L112.46 6.94003L78.9366 213.585L-2.68762 200.348L30.83 -6.30237Z" fill="white"/>
</mask>
<g mask="url(#mask5_198_642)">
<path d="M22.2216 141.125C27.597 153.25 65.198 159.383 71.8765 149.177C68.8235 164.639 80.7901 163.123 83.0853 178.988C81.0845 200.25 -0.163481 190.044 3.5819 165.854C7.35454 151.805 22.4723 159.056 22.2216 141.125Z" fill="black"/>
</g>
</g>
</g>
<mask id="mask6_198_642" style="mask-type:luminance" maskUnits="userSpaceOnUse" x="2" y="139" width="82" height="53">
<path d="M2.79138 139.566H83.7396V191.205H2.79138V139.566Z" fill="white"/>
</mask>
<g mask="url(#mask6_198_642)">
<mask id="mask7_198_642" style="mask-type:luminance" maskUnits="userSpaceOnUse" x="-3" y="-7" width="116" height="221">
<path d="M30.83 -6.30237L112.46 6.94003L78.9366 213.585L-2.68762 200.348L30.83 -6.30237Z" fill="white"/>
</mask>
<g mask="url(#mask7_198_642)">
<mask id="mask8_198_642" style="mask-type:luminance" maskUnits="userSpaceOnUse" x="-3" y="-7" width="116" height="221">
<path d="M30.83 -6.30237L112.46 6.94003L78.9366 213.585L-2.68762 200.348L30.83 -6.30237Z" fill="white"/>
</mask>
<g mask="url(#mask8_198_642)">
<path d="M22.2216 141.125C27.5971 153.25 65.1981 159.383 71.8765 149.177C68.8235 164.639 80.7902 163.123 83.0854 178.988C81.0846 200.25 -0.163407 190.044 3.58197 165.854C7.35461 151.805 22.4724 159.056 22.2216 141.125Z" stroke="#2BAF1D" stroke-width="1.01962" stroke-linecap="round" stroke-linejoin="round"/>
</g>
</g>
</g>
<mask id="mask9_198_642" style="mask-type:luminance" maskUnits="userSpaceOnUse" x="22" y="132" width="51" height="23">
<path d="M22.3306 132.588H72.5743V154.918H22.3306V132.588Z" fill="white"/>
</mask>
<g mask="url(#mask9_198_642)">
<mask id="mask10_198_642" style="mask-type:luminance" maskUnits="userSpaceOnUse" x="-3" y="-7" width="116" height="221">
<path d="M30.83 -6.30237L112.46 6.94003L78.9366 213.585L-2.68762 200.348L30.83 -6.30237Z" fill="white"/>
</mask>
<g mask="url(#mask10_198_642)">
<mask id="mask11_198_642" style="mask-type:luminance" maskUnits="userSpaceOnUse" x="-3" y="-7" width="116" height="221">
<path d="M30.83 -6.30237L112.46 6.94003L78.9366 213.585L-2.68762 200.348L30.83 -6.30237Z" fill="white"/>
</mask>
<g mask="url(#mask11_198_642)">
<path d="M72.4163 148.027C72.329 148.643 72.0783 149.232 71.6694 149.782C71.2605 150.339 70.699 150.851 69.9848 151.32C69.2706 151.789 68.4201 152.208 67.4279 152.574C66.4357 152.939 65.3289 153.25 64.0968 153.501C62.8647 153.746 61.54 153.931 60.1225 154.057C58.6996 154.177 57.2112 154.231 55.652 154.226C54.0928 154.215 52.5009 154.138 50.8653 153.997C49.2353 153.855 47.5943 153.653 45.9478 153.386C44.3014 153.119 42.6822 152.792 41.0903 152.41C39.4929 152.029 37.9555 151.598 36.4781 151.113C34.9952 150.633 33.5995 150.104 32.2911 149.543C30.9827 148.976 29.7833 148.381 28.6929 147.754C27.608 147.133 26.6485 146.49 25.8253 145.824C25.0021 145.165 24.326 144.5 23.7918 143.829C23.2629 143.159 22.8922 142.493 22.6796 141.839C22.467 141.185 22.4179 140.547 22.5324 139.936C22.6196 139.315 22.865 138.732 23.2738 138.176C23.6827 137.619 24.2443 137.107 24.9584 136.638C25.6726 136.169 26.5286 135.75 27.5208 135.384C28.5076 135.019 29.6197 134.708 30.8518 134.463C32.0785 134.212 33.4087 134.027 34.8262 133.907C36.2491 133.781 37.7374 133.727 39.2966 133.738C40.8559 133.743 42.4478 133.82 44.0833 133.961C45.7134 134.103 47.3544 134.305 49.0008 134.572C50.6473 134.839 52.2665 135.166 53.8584 135.548C55.4503 135.929 56.9877 136.366 58.4706 136.845C59.9535 137.331 61.3437 137.854 62.6576 138.421C63.966 138.982 65.1654 139.577 66.2557 140.204C67.3407 140.831 68.3002 141.474 69.1234 142.134C69.9466 142.793 70.6226 143.458 71.1515 144.134C71.6803 144.805 72.051 145.465 72.2636 146.119C72.4762 146.778 72.5308 147.411 72.4163 148.027Z" fill="black"/>
</g>
</g>
</g>
<mask id="mask12_198_642" style="mask-type:luminance" maskUnits="userSpaceOnUse" x="20" y="132" width="54" height="23">
<path d="M20.9349 132.588H73.9699V154.918H20.9349V132.588Z" fill="white"/>
</mask>
<g mask="url(#mask12_198_642)">
<mask id="mask13_198_642" style="mask-type:luminance" maskUnits="userSpaceOnUse" x="-3" y="-7" width="116" height="221">
<path d="M30.8299 -6.30237L112.46 6.94003L78.9364 213.585L-2.68774 200.348L30.8299 -6.30237Z" fill="white"/>
</mask>
<g mask="url(#mask13_198_642)">
<mask id="mask14_198_642" style="mask-type:luminance" maskUnits="userSpaceOnUse" x="-3" y="-7" width="116" height="221">
<path d="M30.8299 -6.30237L112.46 6.94003L78.9364 213.585L-2.68774 200.348L30.8299 -6.30237Z" fill="white"/>
</mask>
<g mask="url(#mask14_198_642)">
<path d="M72.416 148.027C72.3288 148.643 72.078 149.232 71.6691 149.782C71.2602 150.338 70.6987 150.851 69.9845 151.32C69.2703 151.789 68.4199 152.208 67.4276 152.574C66.4354 152.939 65.3287 153.25 64.0966 153.5C62.8645 153.746 61.5397 153.931 60.1222 154.057C58.6993 154.177 57.211 154.231 55.6518 154.226C54.0926 154.215 52.5006 154.138 50.8651 153.997C49.235 153.855 47.594 153.653 45.9476 153.386C44.3011 153.119 42.682 152.792 41.09 152.41C39.4927 152.029 37.9553 151.598 36.4778 151.113C34.9949 150.633 33.5993 150.104 32.2908 149.542C30.9824 148.976 29.783 148.381 28.6927 147.754C27.6078 147.133 26.6482 146.489 25.825 145.824C25.0018 145.165 24.3258 144.5 23.7915 143.829C23.2627 143.158 22.892 142.493 22.6793 141.839C22.4667 141.185 22.4177 140.547 22.5321 139.936C22.6194 139.315 22.8647 138.732 23.2736 138.176C23.6825 137.619 24.244 137.107 24.9582 136.638C25.6724 136.169 26.5283 135.749 27.5205 135.384C28.5073 135.019 29.6195 134.708 30.8516 134.463C32.0782 134.212 33.4085 134.027 34.8259 133.907C36.2488 133.781 37.7372 133.727 39.2964 133.738C40.8556 133.743 42.4475 133.82 44.0831 133.961C45.7132 134.103 47.3541 134.305 49.0006 134.572C50.647 134.839 52.2662 135.166 53.8581 135.548C55.45 135.929 56.9874 136.366 58.4703 136.845C59.9532 137.33 61.3434 137.854 62.6573 138.421C63.9657 138.982 65.1651 139.577 66.2555 140.204C67.3404 140.831 68.2999 141.474 69.1231 142.134C69.9464 142.793 70.6224 143.458 71.1512 144.134C71.68 144.805 72.0507 145.465 72.2634 146.119C72.476 146.778 72.5305 147.411 72.416 148.027Z" stroke="#2BAF1D" stroke-width="1.01962" stroke-linecap="round" stroke-linejoin="round"/>
</g>
</g>
</g>
<mask id="mask15_198_642" style="mask-type:luminance" maskUnits="userSpaceOnUse" x="27" y="87" width="42" height="63">
<path d="M27.9132 87.9265H68.3873V149.335H27.9132V87.9265Z" fill="white"/>
</mask>
<g mask="url(#mask15_198_642)">
<mask id="mask16_198_642" style="mask-type:luminance" maskUnits="userSpaceOnUse" x="-3" y="-7" width="116" height="221">
<path d="M30.83 -6.30231L112.46 6.94009L78.9366 213.585L-2.68762 200.348L30.83 -6.30231Z" fill="white"/>
</mask>
<g mask="url(#mask16_198_642)">
<mask id="mask17_198_642" style="mask-type:luminance" maskUnits="userSpaceOnUse" x="-3" y="-7" width="116" height="221">
<path d="M30.83 -6.30231L112.46 6.94009L78.9366 213.585L-2.68762 200.348L30.83 -6.30231Z" fill="white"/>
</mask>
<g mask="url(#mask17_198_642)">
<path d="M43.5272 88.2971C48.0413 90.7668 62.1778 93.1165 68.3547 92.326C63.2736 111.32 63.9823 128.913 66.6374 146.56C61.5835 151.107 33.714 149.439 28.2458 140.334C36.538 123.494 41.4337 106.768 43.5272 88.2971Z" fill="black"/>
</g>
</g>
</g>
<mask id="mask18_198_642" style="mask-type:luminance" maskUnits="userSpaceOnUse" x="26" y="86" width="44" height="65">
<path d="M26.5176 86.5308H69.783V150.731H26.5176V86.5308Z" fill="white"/>
</mask>
<g mask="url(#mask18_198_642)">
<mask id="mask19_198_642" style="mask-type:luminance" maskUnits="userSpaceOnUse" x="-3" y="-7" width="116" height="221">
<path d="M30.83 -6.30231L112.46 6.94009L78.9366 213.585L-2.68762 200.348L30.83 -6.30231Z" fill="white"/>
</mask>
<g mask="url(#mask19_198_642)">
<mask id="mask20_198_642" style="mask-type:luminance" maskUnits="userSpaceOnUse" x="-3" y="-7" width="116" height="221">
<path d="M30.83 -6.30231L112.46 6.94009L78.9366 213.585L-2.68762 200.348L30.83 -6.30231Z" fill="white"/>
</mask>
<g mask="url(#mask20_198_642)">
<path d="M43.5272 88.2971C48.0413 90.7668 62.1778 93.1165 68.3547 92.326C63.2736 111.32 63.9823 128.913 66.6374 146.56C61.5836 151.107 33.714 149.439 28.2459 140.334C36.538 123.494 41.4338 106.768 43.5272 88.2971Z" stroke="#2BAF1D" stroke-width="1.01962" stroke-linecap="round" stroke-linejoin="round"/>
</g>
</g>
</g>
<mask id="mask21_198_642" style="mask-type:luminance" maskUnits="userSpaceOnUse" x="29" y="66" width="58" height="28">
<path d="M29.3087 66.9916H86.5307V93.5091H29.3087V66.9916Z" fill="white"/>
</mask>
<g mask="url(#mask21_198_642)">
<mask id="mask22_198_642" style="mask-type:luminance" maskUnits="userSpaceOnUse" x="-3" y="-7" width="116" height="221">
<path d="M30.8299 -6.30231L112.46 6.94009L78.9364 213.585L-2.68774 200.348L30.8299 -6.30231Z" fill="white"/>
</mask>
<g mask="url(#mask22_198_642)">
<mask id="mask23_198_642" style="mask-type:luminance" maskUnits="userSpaceOnUse" x="-3" y="-7" width="116" height="221">
<path d="M30.8299 -6.30231L112.46 6.94009L78.9364 213.585L-2.68774 200.348L30.8299 -6.30231Z" fill="white"/>
</mask>
<g mask="url(#mask23_198_642)">
<path d="M85.5058 84.5736C85.3804 85.3314 85.0806 86.051 84.6008 86.7379C84.1211 87.4194 83.4778 88.0518 82.66 88.6352C81.8422 89.2239 80.8718 89.7473 79.7487 90.2107C78.6257 90.6741 77.3717 91.0667 75.987 91.3883C74.5968 91.7154 73.1084 91.9607 71.5111 92.1352C69.9137 92.3042 68.2455 92.3969 66.5009 92.4132C64.7563 92.4241 62.9681 92.3587 61.1418 92.217C59.3154 92.0698 57.4836 91.8517 55.6464 91.5519C53.8091 91.252 51.9991 90.8867 50.2218 90.4451C48.4446 90.0036 46.7272 89.502 45.0808 88.935C43.4289 88.3735 41.8751 87.7574 40.4141 87.0868C38.953 86.4217 37.6173 85.713 36.4015 84.9661C35.1913 84.2247 34.1227 83.456 33.2068 82.66C32.2854 81.864 31.5331 81.0626 30.9443 80.2503C30.3501 79.438 29.9357 78.6311 29.7013 77.8297C29.4614 77.0283 29.4015 76.2541 29.5268 75.4963C29.6468 74.7385 29.9521 74.0189 30.4264 73.3374C30.9061 72.656 31.5549 72.0181 32.3727 71.4348C33.1904 70.8514 34.1609 70.328 35.2839 69.8646C36.4015 69.4012 37.6609 69.0087 39.0457 68.6816C40.4304 68.3599 41.9242 68.1092 43.5161 67.9402C45.1135 67.7657 46.7872 67.673 48.5318 67.6621C50.2764 67.6458 52.0591 67.7112 53.8854 67.8584C55.7118 68.0001 57.5436 68.2237 59.3808 68.5235C61.2235 68.8179 63.0281 69.1886 64.8054 69.6302C66.5881 70.0664 68.3 70.5679 69.9519 71.1349C71.6038 71.7019 73.1575 72.3179 74.6186 72.9831C76.0797 73.6536 77.4154 74.3569 78.6257 75.1038C79.8414 75.8507 80.9045 76.6194 81.8259 77.4154C82.7418 78.2059 83.4996 79.0127 84.0884 79.8251C84.6771 80.6374 85.0915 81.4442 85.3314 82.2402C85.5712 83.0416 85.6258 83.8212 85.5058 84.5736Z" fill="black"/>
</g>
</g>
</g>
<mask id="mask24_198_642" style="mask-type:luminance" maskUnits="userSpaceOnUse" x="27" y="66" width="60" height="28">
<path d="M27.9132 66.9916H86.5308V93.5091H27.9132V66.9916Z" fill="white"/>
</mask>
<g mask="url(#mask24_198_642)">
<mask id="mask25_198_642" style="mask-type:luminance" maskUnits="userSpaceOnUse" x="-3" y="-7" width="116" height="221">
<path d="M30.83 -6.30231L112.46 6.94009L78.9366 213.585L-2.68762 200.348L30.83 -6.30231Z" fill="white"/>
</mask>
<g mask="url(#mask25_198_642)">
<mask id="mask26_198_642" style="mask-type:luminance" maskUnits="userSpaceOnUse" x="-3" y="-7" width="116" height="221">
<path d="M30.83 -6.30231L112.46 6.94009L78.9366 213.585L-2.68762 200.348L30.83 -6.30231Z" fill="white"/>
</mask>
<g mask="url(#mask26_198_642)">
<path d="M85.5059 84.5736C85.3805 85.3314 85.0807 86.051 84.6009 86.7379C84.1211 87.4194 83.4778 88.0518 82.6601 88.6351C81.8423 89.2239 80.8719 89.7473 79.7488 90.2107C78.6257 90.6741 77.3718 91.0666 75.9871 91.3883C74.5969 91.7154 73.1085 91.9607 71.5112 92.1352C69.9138 92.3042 68.2455 92.3969 66.501 92.4132C64.7564 92.4241 62.9682 92.3587 61.1419 92.217C59.3155 92.0698 57.4837 91.8517 55.6464 91.5519C53.8092 91.252 51.9992 90.8867 50.2219 90.4451C48.4446 90.0035 46.7273 89.502 45.0809 88.935C43.429 88.3735 41.8752 87.7574 40.4142 87.0868C38.9531 86.4217 37.6174 85.713 36.4016 84.9661C35.1913 84.2247 34.1228 83.456 33.2069 82.66C32.2855 81.864 31.5332 81.0626 30.9444 80.2503C30.3501 79.438 29.9358 78.6311 29.7014 77.8297C29.4615 77.0283 29.4015 76.2541 29.5269 75.4963C29.6469 74.7385 29.9522 74.0189 30.4265 73.3374C30.9062 72.656 31.555 72.0181 32.3728 71.4348C33.1905 70.8514 34.1609 70.3281 35.284 69.8646C36.4016 69.4012 37.661 69.0087 39.0458 68.6816C40.4305 68.36 41.9243 68.1092 43.5162 67.9402C45.1136 67.7657 46.7873 67.673 48.5319 67.6621C50.2764 67.6458 52.0592 67.7112 53.8855 67.8584C55.7119 68.0001 57.5437 68.2237 59.3809 68.5235C61.2236 68.8179 63.0282 69.1886 64.8055 69.6302C66.5882 70.0664 68.3001 70.5679 69.9519 71.1349C71.6038 71.7019 73.1576 72.3179 74.6187 72.9831C76.0798 73.6536 77.4154 74.3569 78.6257 75.1038C79.8415 75.8507 80.9046 76.6194 81.8259 77.4154C82.7418 78.2059 83.4996 79.0127 84.0884 79.8251C84.6772 80.6374 85.0916 81.4442 85.3314 82.2402C85.5713 83.0416 85.6258 83.8212 85.5059 84.5736Z" stroke="#2BAF1D" stroke-width="1.01962" stroke-linecap="round" stroke-linejoin="round"/>
</g>
</g>
</g>
<mask id="mask27_198_642" style="mask-type:luminance" maskUnits="userSpaceOnUse" x="36" y="62" width="45" height="24">
<path d="M36.2872 62.8046H80.9483V85.1352H36.2872V62.8046Z" fill="white"/>
</mask>
<g mask="url(#mask27_198_642)">
<mask id="mask28_198_642" style="mask-type:luminance" maskUnits="userSpaceOnUse" x="-3" y="-7" width="116" height="221">
<path d="M30.83 -6.30231L112.46 6.94009L78.9366 213.585L-2.68762 200.348L30.83 -6.30231Z" fill="white"/>
</mask>
<g mask="url(#mask28_198_642)">
<mask id="mask29_198_642" style="mask-type:luminance" maskUnits="userSpaceOnUse" x="-3" y="-7" width="116" height="221">
<path d="M30.83 -6.30231L112.46 6.94009L78.9366 213.585L-2.68762 200.348L30.83 -6.30231Z" fill="white"/>
</mask>
<g mask="url(#mask29_198_642)">
<path d="M79.7874 77.4863C79.6838 78.1241 79.4439 78.7293 79.0732 79.3072C78.7025 79.8851 78.1954 80.4248 77.5685 80.9209C76.9361 81.4225 76.1946 81.875 75.3278 82.2729C74.4664 82.6764 73.5069 83.0198 72.4438 83.3088C71.3807 83.5977 70.2413 83.8212 69.0201 83.9848C67.7988 84.1484 66.5231 84.2519 65.1929 84.2847C63.8627 84.3174 62.4997 84.2847 61.1095 84.1865C59.7138 84.0884 58.3182 83.9248 56.9225 83.6959C55.5214 83.4669 54.1475 83.1834 52.7955 82.8345C51.4434 82.491 50.1405 82.093 48.8865 81.6405C47.6326 81.188 46.455 80.6865 45.3483 80.1468C44.2416 79.607 43.233 79.0291 42.3171 78.424C41.4012 77.8134 40.5998 77.181 39.9074 76.5268C39.215 75.8725 38.6481 75.2129 38.2119 74.5369C37.7703 73.8663 37.465 73.1957 37.2906 72.5306C37.1215 71.8655 37.0888 71.2113 37.1924 70.5789C37.2906 69.9464 37.5304 69.3358 37.9066 68.758C38.2773 68.1801 38.7789 67.6458 39.4113 67.1442C40.0383 66.6427 40.7852 66.1956 41.6465 65.7922C42.5079 65.3888 43.4729 65.0453 44.536 64.7563C45.5937 64.4674 46.7385 64.2439 47.9543 64.0803C49.1755 63.9168 50.4512 63.8186 51.7814 63.7859C53.1171 63.7532 54.4801 63.7859 55.8703 63.8841C57.2605 63.9822 58.6562 64.1457 60.0573 64.3693C61.4529 64.5982 62.8323 64.8817 64.1843 65.2306C65.5363 65.5796 66.8339 65.9775 68.0878 66.43C69.3417 66.8825 70.5193 67.3786 71.626 67.9184C72.7327 68.4581 73.7413 69.036 74.6627 69.6466C75.5786 70.2517 76.38 70.8842 77.0724 71.5384C77.7647 72.1926 78.3263 72.8577 78.7679 73.5283C79.2095 74.1988 79.5148 74.8694 79.6838 75.5345C79.8582 76.2051 79.891 76.8539 79.7874 77.4863Z" fill="black" stroke="#2BAF1D" stroke-width="1.01965" stroke-linecap="round" stroke-linejoin="round"/>
</g>
</g>
</g>
<mask id="mask30_198_642" style="mask-type:luminance" maskUnits="userSpaceOnUse" x="43" y="58" width="34" height="19">
<path d="M43.2655 58.6177H76.7613V76.7612H43.2655V58.6177Z" fill="white"/>
</mask>
<g mask="url(#mask30_198_642)">
<mask id="mask31_198_642" style="mask-type:luminance" maskUnits="userSpaceOnUse" x="-3" y="-7" width="116" height="221">
<path d="M30.83 -6.30231L112.46 6.94009L78.9366 213.585L-2.68762 200.348L30.83 -6.30231Z" fill="white"/>
</mask>
<g mask="url(#mask31_198_642)">
<mask id="mask32_198_642" style="mask-type:luminance" maskUnits="userSpaceOnUse" x="-3" y="-7" width="116" height="221">
<path d="M30.83 -6.30231L112.46 6.94009L78.9366 213.585L-2.68762 200.348L30.83 -6.30231Z" fill="white"/>
</mask>
<g mask="url(#mask32_198_642)">
<path d="M45.1191 58.8738C46.8092 62.8536 72.1763 69.1614 76.1507 63.9058L74.3462 75.022C69.723 78.1786 48.5374 76.723 43.3146 69.9846L45.1191 58.8738Z" fill="black"/>
</g>
</g>
</g>
<mask id="mask33_198_642" style="mask-type:luminance" maskUnits="userSpaceOnUse" x="41" y="57" width="36" height="22">
<path d="M41.8698 57.2219H76.7612V78.1568H41.8698V57.2219Z" fill="white"/>
</mask>
<g mask="url(#mask33_198_642)">
<mask id="mask34_198_642" style="mask-type:luminance" maskUnits="userSpaceOnUse" x="-3" y="-7" width="116" height="221">
<path d="M30.8299 -6.30231L112.46 6.94009L78.9364 213.585L-2.68774 200.348L30.8299 -6.30231Z" fill="white"/>
</mask>
<g mask="url(#mask34_198_642)">
<mask id="mask35_198_642" style="mask-type:luminance" maskUnits="userSpaceOnUse" x="-3" y="-7" width="116" height="221">
<path d="M30.8299 -6.30231L112.46 6.94009L78.9364 213.585L-2.68774 200.348L30.8299 -6.30231Z" fill="white"/>
</mask>
<g mask="url(#mask35_198_642)">
<path d="M45.119 58.8739C46.809 62.8537 72.1762 69.1614 76.1506 63.9059L74.346 75.0221C69.7229 78.1786 48.5373 76.723 43.3144 69.9846L45.119 58.8739Z" stroke="#2BAF1D" stroke-width="1.01962" stroke-linecap="round" stroke-linejoin="round"/>
</g>
</g>
</g>
<mask id="mask36_198_642" style="mask-type:luminance" maskUnits="userSpaceOnUse" x="40" y="54" width="40" height="18">
<path d="M40.4741 54.4307H79.5526V71.1786H40.4741V54.4307Z" fill="white"/>
</mask>
<g mask="url(#mask36_198_642)">
<mask id="mask37_198_642" style="mask-type:luminance" maskUnits="userSpaceOnUse" x="-3" y="-7" width="116" height="221">
<path d="M30.83 -6.30231L112.46 6.94009L78.9366 213.585L-2.68762 200.348L30.83 -6.30231Z" fill="white"/>
</mask>
<g mask="url(#mask37_198_642)">
<mask id="mask38_198_642" style="mask-type:luminance" maskUnits="userSpaceOnUse" x="-3" y="-7" width="116" height="221">
<path d="M30.83 -6.30231L112.46 6.94009L78.9366 213.585L-2.68762 200.348L30.83 -6.30231Z" fill="white"/>
</mask>
<g mask="url(#mask38_198_642)">
<path d="M78.5823 66.0048C78.506 66.4845 78.3097 66.937 77.9989 67.3677C77.6882 67.7984 77.2629 68.1964 76.7287 68.5617C76.1998 68.9269 75.562 69.254 74.826 69.543C74.09 69.8319 73.2722 70.0773 72.3618 70.2735C71.4513 70.4752 70.4755 70.6279 69.4287 70.726C68.382 70.8296 67.2862 70.8841 66.1413 70.8841C64.991 70.8896 63.8188 70.8405 62.6194 70.7424C61.42 70.6388 60.2207 70.4916 59.0104 70.2953C57.8055 70.0991 56.617 69.8592 55.4449 69.5757C54.2782 69.2922 53.1497 68.9651 52.0648 68.5998C50.9744 68.24 49.9549 67.842 48.99 67.4113C48.0305 66.9861 47.1527 66.5336 46.3513 66.0593C45.5553 65.5795 44.8521 65.0889 44.2415 64.5818C43.6363 64.0748 43.1402 63.5678 42.7477 63.0499C42.3606 62.532 42.0826 62.0195 41.9244 61.5125C41.7663 61.0109 41.7227 60.5148 41.7991 60.0405C41.8754 59.5607 42.0716 59.1082 42.3824 58.6776C42.6931 58.2469 43.1184 57.8489 43.6527 57.4782C44.1869 57.1129 44.8193 56.7858 45.5553 56.4968C46.2913 56.2079 47.1146 55.968 48.0195 55.7663C48.93 55.57 49.9059 55.4174 50.9526 55.3138C52.0048 55.2102 53.1006 55.1612 54.2455 55.1557C55.3904 55.1557 56.5625 55.2048 57.7619 55.3029C58.9613 55.401 60.1661 55.5482 61.371 55.7445C62.5813 55.9408 63.7698 56.1806 64.9365 56.4696C66.1086 56.7531 67.2317 57.0747 68.322 57.44C69.4069 57.8053 70.4319 58.1978 71.3914 58.6285C72.3509 59.0592 73.2341 59.5117 74.03 59.986C74.8314 60.4603 75.5347 60.951 76.1399 61.458C76.745 61.965 77.2411 62.4775 77.6337 62.9954C78.0262 63.5078 78.2988 64.0203 78.4569 64.5273C78.6204 65.0343 78.6586 65.525 78.5823 66.0048Z" fill="black"/>
</g>
</g>
</g>
<mask id="mask39_198_642" style="mask-type:luminance" maskUnits="userSpaceOnUse" x="40" y="54" width="40" height="19">
<path d="M40.4741 54.4307H79.5526V72.5742H40.4741V54.4307Z" fill="white"/>
</mask>
<g mask="url(#mask39_198_642)">
<mask id="mask40_198_642" style="mask-type:luminance" maskUnits="userSpaceOnUse" x="-3" y="-7" width="116" height="221">
<path d="M30.83 -6.30231L112.46 6.94009L78.9366 213.585L-2.68762 200.348L30.83 -6.30231Z" fill="white"/>
</mask>
<g mask="url(#mask40_198_642)">
<mask id="mask41_198_642" style="mask-type:luminance" maskUnits="userSpaceOnUse" x="-3" y="-7" width="116" height="221">
<path d="M30.83 -6.30231L112.46 6.94009L78.9366 213.585L-2.68762 200.348L30.83 -6.30231Z" fill="white"/>
</mask>
<g mask="url(#mask41_198_642)">
<path d="M78.5823 66.0048C78.5059 66.4845 78.3097 66.937 77.9989 67.3677C77.6882 67.7984 77.2629 68.1964 76.7287 68.5617C76.1998 68.9269 75.562 69.254 74.826 69.543C74.09 69.8319 73.2722 70.0773 72.3618 70.2735C71.4513 70.4752 70.4754 70.6279 69.4287 70.726C68.382 70.8296 67.2862 70.8841 66.1413 70.8841C64.9909 70.8896 63.8188 70.8405 62.6194 70.7424C61.42 70.6388 60.2206 70.4916 59.0103 70.2953C57.8055 70.0991 56.617 69.8592 55.4449 69.5757C54.2782 69.2922 53.1497 68.9651 52.0648 68.5998C50.9744 68.24 49.9549 67.842 48.9899 67.4113C48.0304 66.9861 47.1527 66.5336 46.3513 66.0593C45.5553 65.5795 44.852 65.0889 44.2414 64.5819C43.6363 64.0748 43.1402 63.5678 42.7476 63.0499C42.3606 62.532 42.0825 62.0195 41.9244 61.5125C41.7663 61.0109 41.7227 60.5148 41.799 60.0405C41.8754 59.5608 42.0716 59.1083 42.3824 58.6776C42.6931 58.2469 43.1184 57.8489 43.6526 57.4782C44.1869 57.1129 44.8193 56.7858 45.5553 56.4969C46.2913 56.2079 47.1145 55.968 48.0195 55.7663C48.93 55.57 49.9058 55.4174 50.9526 55.3138C52.0048 55.2102 53.1006 55.1612 54.2455 55.1557C55.3903 55.1557 56.5625 55.2048 57.7619 55.3029C58.9613 55.401 60.1661 55.5482 61.371 55.7445C62.5813 55.9408 63.7697 56.1806 64.9364 56.4696C66.1086 56.7531 67.2316 57.0747 68.322 57.44C69.4069 57.8053 70.4318 58.1978 71.3913 58.6285C72.3509 59.0592 73.234 59.5117 74.03 59.986C74.8314 60.4603 75.5347 60.951 76.1399 61.458C76.745 61.965 77.2411 62.4775 77.6336 62.9954C78.0262 63.5079 78.2988 64.0203 78.4569 64.5273C78.6204 65.0343 78.6586 65.525 78.5823 66.0048Z" stroke="#2BAF1D" stroke-width="1.01962" stroke-linecap="round" stroke-linejoin="round"/>
</g>
</g>
</g>
<mask id="mask42_198_642" style="mask-type:luminance" maskUnits="userSpaceOnUse" x="37" y="26" width="56" height="41">
<path d="M37.6827 26.5175H92.1134V66.9915H37.6827V26.5175Z" fill="white"/>
</mask>
<g mask="url(#mask42_198_642)">
<mask id="mask43_198_642" style="mask-type:luminance" maskUnits="userSpaceOnUse" x="-3" y="-7" width="116" height="221">
<path d="M30.8299 -6.30231L112.46 6.94009L78.9364 213.585L-2.68774 200.348L30.8299 -6.30231Z" fill="white"/>
</mask>
<g mask="url(#mask43_198_642)">
<mask id="mask44_198_642" style="mask-type:luminance" maskUnits="userSpaceOnUse" x="-3" y="-7" width="116" height="221">
<path d="M30.8299 -6.30231L112.46 6.94009L78.9364 213.585L-2.68774 200.348L30.8299 -6.30231Z" fill="white"/>
</mask>
<g mask="url(#mask44_198_642)">
<path d="M39.7654 27.4878C38.5878 39.9397 89.7964 47.316 91.3284 35.7909C87.534 45.9748 80.3212 55.3192 76.0307 64.2983C72.6451 67.7547 49.2569 64.7072 45.0863 58.6884C42.9765 47.823 36.8759 30.7153 39.7654 27.4878Z" fill="black" stroke="#2BAF1D" stroke-width="0.764716" stroke-linecap="round" stroke-linejoin="round"/>
</g>
</g>
</g>
<mask id="mask45_198_642" style="mask-type:luminance" maskUnits="userSpaceOnUse" x="39" y="22" width="54" height="20">
<path d="M39.0785 22.3305H92.1135V41.8697H39.0785V22.3305Z" fill="white"/>
</mask>
<g mask="url(#mask45_198_642)">
<mask id="mask46_198_642" style="mask-type:luminance" maskUnits="userSpaceOnUse" x="-3" y="-7" width="116" height="221">
<path d="M30.83 -6.30231L112.46 6.94009L78.9366 213.585L-2.68762 200.348L30.83 -6.30231Z" fill="white"/>
</mask>
<g mask="url(#mask46_198_642)">
<mask id="mask47_198_642" style="mask-type:luminance" maskUnits="userSpaceOnUse" x="-3" y="-7" width="116" height="221">
<path d="M30.83 -6.30231L112.46 6.94009L78.9366 213.585L-2.68762 200.348L30.83 -6.30231Z" fill="white"/>
</mask>
<g mask="url(#mask47_198_642)">
<path d="M91.4375 36.2162C91.3448 36.7777 91.0886 37.312 90.6688 37.8081C90.249 38.3042 89.6766 38.7622 88.9406 39.1765C88.2101 39.5908 87.3323 39.9561 86.3128 40.2723C85.2988 40.5885 84.1539 40.8447 82.8891 41.0465C81.6297 41.2536 80.2668 41.3954 78.8057 41.4771C77.3392 41.5644 75.8127 41.5862 74.2099 41.548C72.607 41.5044 70.9606 41.4063 69.2814 41.2482C67.6023 41.0846 65.9122 40.872 64.2113 40.594C62.5158 40.3214 60.8475 39.9943 59.2011 39.6126C57.5546 39.231 55.9627 38.8058 54.4308 38.3369C52.8988 37.8681 51.4541 37.361 50.0911 36.8213C48.7336 36.2816 47.4852 35.7146 46.3512 35.1204C45.2172 34.5261 44.2141 33.921 43.3473 33.2995C42.4804 32.6834 41.7663 32.0565 41.2047 31.435C40.6377 30.808 40.2343 30.1919 39.9944 29.5868C39.7545 28.9816 39.6782 28.3983 39.7709 27.8368C39.8581 27.2752 40.1144 26.741 40.5341 26.2448C40.9539 25.7487 41.5318 25.2908 42.2678 24.8764C42.9984 24.4621 43.8761 24.0968 44.8901 23.7806C45.9096 23.4699 47.0545 23.2082 48.3139 23.0065C49.5787 22.7993 50.9416 22.6576 52.4027 22.5758C53.8638 22.4886 55.3957 22.4668 56.9986 22.5049C58.6014 22.5485 60.2424 22.6467 61.927 22.8048C63.6061 22.9683 65.2962 23.1809 66.9917 23.459C68.6872 23.7316 70.3609 24.0641 72.0073 24.4403C73.6538 24.8219 75.2457 25.2472 76.7776 25.716C78.3096 26.1849 79.7543 26.6919 81.1118 27.2316C82.4748 27.7713 83.7232 28.3383 84.8572 28.9326C85.9912 29.5268 86.9943 30.132 87.8611 30.7535C88.7225 31.3695 89.4422 31.9965 90.0037 32.618C90.5707 33.2449 90.9741 33.861 91.214 34.4661C91.4539 35.0713 91.5302 35.6546 91.4375 36.2162Z" fill="black"/>
</g>
</g>
</g>
<mask id="mask48_198_642" style="mask-type:luminance" maskUnits="userSpaceOnUse" x="39" y="20" width="54" height="24">
<path d="M39.0785 20.9349H92.1135V43.2654H39.0785V20.9349Z" fill="white"/>
</mask>
<g mask="url(#mask48_198_642)">
<mask id="mask49_198_642" style="mask-type:luminance" maskUnits="userSpaceOnUse" x="-3" y="-7" width="116" height="221">
<path d="M30.83 -6.30231L112.46 6.94009L78.9366 213.585L-2.68762 200.348L30.83 -6.30231Z" fill="white"/>
</mask>
<g mask="url(#mask49_198_642)">
<mask id="mask50_198_642" style="mask-type:luminance" maskUnits="userSpaceOnUse" x="-3" y="-7" width="116" height="221">
<path d="M30.83 -6.30231L112.46 6.94009L78.9366 213.585L-2.68762 200.348L30.83 -6.30231Z" fill="white"/>
</mask>
<g mask="url(#mask50_198_642)">
<path d="M91.4376 36.2162C91.3449 36.7777 91.0887 37.312 90.6689 37.8081C90.2491 38.3042 89.6767 38.7622 88.9407 39.1765C88.2101 39.5909 87.3324 39.9561 86.3129 40.2723C85.2989 40.5885 84.154 40.8448 82.8892 41.0465C81.6298 41.2536 80.2669 41.3954 78.8058 41.4772C77.3393 41.5644 75.8128 41.5862 74.2099 41.548C72.6071 41.5044 70.9607 41.4063 69.2815 41.2482C67.6024 41.0846 65.9123 40.872 64.2113 40.594C62.5158 40.3214 60.8476 39.9943 59.2011 39.6127C57.5547 39.231 55.9628 38.8058 54.4308 38.3369C52.8989 37.8681 51.4542 37.3611 50.0912 36.8213C48.7337 36.2816 47.4853 35.7146 46.3513 35.1204C45.2173 34.5261 44.2142 33.921 43.3473 33.2995C42.4805 32.6834 41.7663 32.0565 41.2048 31.435C40.6378 30.808 40.2344 30.192 39.9945 29.5868C39.7546 28.9817 39.6783 28.3983 39.771 27.8368C39.8582 27.2753 40.1144 26.741 40.5342 26.2449C40.954 25.7488 41.5319 25.2908 42.2679 24.8765C42.9984 24.4621 43.8762 24.0969 44.8902 23.7807C45.9097 23.4699 47.0546 23.2082 48.3139 23.0065C49.5787 22.7993 50.9417 22.6576 52.4028 22.5758C53.8638 22.4886 55.3958 22.4668 56.9986 22.5049C58.6014 22.5486 60.2424 22.6467 61.927 22.8048C63.6062 22.9684 65.2962 23.181 66.9918 23.459C68.6873 23.7316 70.361 24.0642 72.0074 24.4403C73.6538 24.822 75.2458 25.2472 76.7777 25.716C78.3097 26.1849 79.7544 26.6919 81.1119 27.2316C82.4748 27.7714 83.7233 28.3384 84.8573 28.9326C85.9912 29.5268 86.9944 30.132 87.8612 30.7535C88.7226 31.3696 89.4422 31.9965 90.0038 32.618C90.5707 33.245 90.9742 33.861 91.2141 34.4662C91.4539 35.0713 91.5303 35.6547 91.4376 36.2162Z" stroke="#2BAF1D" stroke-width="1.01962" stroke-linecap="round" stroke-linejoin="round"/>
</g>
</g>
</g>
<mask id="mask51_198_642" style="mask-type:luminance" maskUnits="userSpaceOnUse" x="53" y="22" width="26" height="12">
<path d="M53.035 22.3305H78.1569V33.4958H53.035V22.3305Z" fill="white"/>
</mask>
<g mask="url(#mask51_198_642)">
<mask id="mask52_198_642" style="mask-type:luminance" maskUnits="userSpaceOnUse" x="-3" y="-7" width="116" height="221">
<path d="M30.83 -6.30231L112.46 6.94009L78.9366 213.585L-2.68762 200.348L30.83 -6.30231Z" fill="white"/>
</mask>
<g mask="url(#mask52_198_642)">
<mask id="mask53_198_642" style="mask-type:luminance" maskUnits="userSpaceOnUse" x="-3" y="-7" width="116" height="221">
<path d="M30.83 -6.30231L112.46 6.94009L78.9366 213.585L-2.68762 200.348L30.83 -6.30231Z" fill="white"/>
</mask>
<g mask="url(#mask53_198_642)">
<path d="M78.0861 30.3992C78.0479 30.6936 77.928 30.9716 77.7262 31.2333C77.5245 31.495 77.2519 31.7403 76.903 31.9584C76.5541 32.1819 76.1398 32.3782 75.6546 32.5526C75.1694 32.7216 74.6296 32.8634 74.0299 32.9833C73.4248 33.0978 72.776 33.185 72.0836 33.2396C71.3858 33.2941 70.6607 33.3159 69.8975 33.305C69.1342 33.2995 68.3546 33.2614 67.5587 33.1905C66.7572 33.1196 65.9558 33.016 65.149 32.8852C64.3475 32.7544 63.5516 32.5963 62.772 32.4109C61.9924 32.2255 61.24 32.0184 60.5149 31.7839C59.7899 31.5495 59.1029 31.2987 58.4651 31.0261C57.8218 30.7535 57.233 30.4701 56.6987 30.1702C56.1644 29.8704 55.6956 29.5651 55.2921 29.2489C54.8887 28.9326 54.5507 28.611 54.2945 28.2893C54.0328 27.9731 53.8474 27.6569 53.7438 27.3407C53.6348 27.03 53.613 26.7301 53.662 26.4357C53.7057 26.1413 53.8256 25.8633 54.0273 25.6016C54.2236 25.3399 54.4962 25.1 54.8451 24.8765C55.194 24.653 55.6138 24.4567 56.0935 24.2877C56.5787 24.1133 57.1239 23.9715 57.7236 23.8516C58.3233 23.7371 58.9721 23.6553 59.6699 23.6008C60.3623 23.5408 61.0928 23.519 61.8506 23.5299C62.6139 23.5354 63.3935 23.5735 64.1949 23.6444C64.9909 23.7153 65.7977 23.8189 66.5991 23.9497C67.406 24.0806 68.1965 24.2387 68.9816 24.424C69.7612 24.6094 70.5135 24.8165 71.2386 25.051C71.9637 25.2854 72.6452 25.5362 73.2885 25.8088C73.9318 26.0814 74.5206 26.3649 75.0549 26.6647C75.5837 26.9645 76.058 27.2699 76.4614 27.5861C76.8649 27.9023 77.1974 28.2239 77.4591 28.5456C77.7208 28.8618 77.9007 29.178 78.0097 29.4942C78.1133 29.8049 78.1406 30.1048 78.0861 30.3992Z" fill="black"/>
</g>
</g>
</g>
<mask id="mask54_198_642" style="mask-type:luminance" maskUnits="userSpaceOnUse" x="53" y="22" width="27" height="13">
<path d="M53.035 22.3305H79.5525V34.8914H53.035V22.3305Z" fill="white"/>
</mask>
<g mask="url(#mask54_198_642)">
<mask id="mask55_198_642" style="mask-type:luminance" maskUnits="userSpaceOnUse" x="-3" y="-7" width="116" height="221">
<path d="M30.83 -6.30231L112.46 6.94009L78.9366 213.585L-2.68762 200.348L30.83 -6.30231Z" fill="white"/>
</mask>
<g mask="url(#mask55_198_642)">
<mask id="mask56_198_642" style="mask-type:luminance" maskUnits="userSpaceOnUse" x="-3" y="-7" width="116" height="221">
<path d="M30.83 -6.30231L112.46 6.94009L78.9366 213.585L-2.68762 200.348L30.83 -6.30231Z" fill="white"/>
</mask>
<g mask="url(#mask56_198_642)">
<path d="M78.0861 30.3991C78.0479 30.6935 77.928 30.9716 77.7263 31.2333C77.5246 31.4949 77.252 31.7403 76.903 31.9583C76.5541 32.1819 76.1398 32.3781 75.6546 32.5526C75.1694 32.7216 74.6296 32.8633 74.03 32.9833C73.4248 33.0978 72.776 33.185 72.0837 33.2395C71.3858 33.294 70.6608 33.3158 69.8975 33.3049C69.1342 33.2995 68.3546 33.2613 67.5587 33.1904C66.7573 33.1196 65.9559 33.016 65.149 32.8851C64.3476 32.7543 63.5516 32.5962 62.772 32.4108C61.9924 32.2255 61.2401 32.0183 60.515 31.7839C59.7899 31.5495 59.103 31.2987 58.4651 31.0261C57.8218 30.7535 57.233 30.47 56.6987 30.1702C56.1644 29.8703 55.6956 29.565 55.2922 29.2488C54.8887 28.9326 54.5507 28.6109 54.2945 28.2893C54.0328 27.9731 53.8474 27.6569 53.7438 27.3407C53.6348 27.0299 53.613 26.7301 53.6621 26.4357C53.7057 26.1413 53.8256 25.8632 54.0273 25.6016C54.2236 25.3399 54.4962 25.1 54.8451 24.8765C55.194 24.6529 55.6138 24.4567 56.0936 24.2877C56.5788 24.1132 57.124 23.9715 57.7237 23.8515C58.3234 23.737 58.9721 23.6553 59.6699 23.6008C60.3623 23.5408 61.0929 23.519 61.8507 23.5299C62.6139 23.5353 63.3935 23.5735 64.1949 23.6444C64.9909 23.7152 65.7978 23.8188 66.5992 23.9497C67.406 24.0805 68.1965 24.2386 68.9816 24.424C69.7612 24.6093 70.5135 24.8165 71.2386 25.0509C71.9637 25.2854 72.6452 25.5361 73.2885 25.8087C73.9318 26.0813 74.5206 26.3648 75.0549 26.6647C75.5837 26.9645 76.058 27.2698 76.4615 27.586C76.8649 27.9022 77.1974 28.2239 77.4591 28.5455C77.7208 28.8617 77.9007 29.1779 78.0098 29.4941C78.1133 29.8049 78.1406 30.1047 78.0861 30.3991Z" stroke="#2BAF1D" stroke-width="0.764716" stroke-linecap="round" stroke-linejoin="round"/>
</g>
</g>
</g>
<mask id="mask57_198_642" style="mask-type:luminance" maskUnits="userSpaceOnUse" x="53" y="25" width="26" height="10">
<path d="M53.035 25.1218H78.1569V34.8914H53.035V25.1218Z" fill="white"/>
</mask>
<g mask="url(#mask57_198_642)">
<mask id="mask58_198_642" style="mask-type:luminance" maskUnits="userSpaceOnUse" x="-3" y="-7" width="116" height="221">
<path d="M30.83 -6.30231L112.46 6.94009L78.9366 213.585L-2.68762 200.348L30.83 -6.30231Z" fill="white"/>
</mask>
<g mask="url(#mask58_198_642)">
<mask id="mask59_198_642" style="mask-type:luminance" maskUnits="userSpaceOnUse" x="-3" y="-7" width="116" height="221">
<path d="M30.83 -6.30231L112.46 6.94009L78.9366 213.585L-2.68762 200.348L30.83 -6.30231Z" fill="white"/>
</mask>
<g mask="url(#mask59_198_642)">
<path d="M53.591 26.2612C53.2857 32.1764 76.2378 36.4288 78.075 30.2356L76.8157 33.6157C74.7658 36.3688 56.4696 34.2917 54.0108 29.8594L53.591 26.2612Z" fill="black"/>
</g>
</g>
</g>
<mask id="mask60_198_642" style="mask-type:luminance" maskUnits="userSpaceOnUse" x="53" y="25" width="27" height="12">
<path d="M53.035 25.1218H79.5525V36.2871H53.035V25.1218Z" fill="white"/>
</mask>
<g mask="url(#mask60_198_642)">
<mask id="mask61_198_642" style="mask-type:luminance" maskUnits="userSpaceOnUse" x="-3" y="-7" width="116" height="221">
<path d="M30.83 -6.30231L112.46 6.94009L78.9366 213.585L-2.68762 200.348L30.83 -6.30231Z" fill="white"/>
</mask>
<g mask="url(#mask61_198_642)">
<mask id="mask62_198_642" style="mask-type:luminance" maskUnits="userSpaceOnUse" x="-3" y="-7" width="116" height="221">
<path d="M30.83 -6.30231L112.46 6.94009L78.9366 213.585L-2.68762 200.348L30.83 -6.30231Z" fill="white"/>
</mask>
<g mask="url(#mask62_198_642)">
<path d="M53.5912 26.2612C53.2859 32.1764 76.2379 36.4288 78.0752 30.2356L76.8158 33.6157C74.7659 36.3688 56.4697 34.2917 54.011 29.8594L53.5912 26.2612Z" stroke="#2BAF1D" stroke-width="0.764716" stroke-linecap="round" stroke-linejoin="round"/>
</g>
</g>
</g>
<mask id="mask63_198_642" style="mask-type:luminance" maskUnits="userSpaceOnUse" x="53" y="0" width="28" height="30">
<path d="M53.035 0H80.9482V29.3088H53.035V0Z" fill="white"/>
</mask>
<g mask="url(#mask63_198_642)">
<mask id="mask64_198_642" style="mask-type:luminance" maskUnits="userSpaceOnUse" x="-3" y="-7" width="116" height="221">
<path d="M30.83 -6.30231L112.46 6.94009L78.9366 213.585L-2.68762 200.348L30.83 -6.30231Z" fill="white"/>
</mask>
<g mask="url(#mask64_198_642)">
<mask id="mask65_198_642" style="mask-type:luminance" maskUnits="userSpaceOnUse" x="-3" y="-7" width="116" height="221">
<path d="M30.83 -6.30231L112.46 6.94009L78.9366 213.585L-2.68762 200.348L30.83 -6.30231Z" fill="white"/>
</mask>
<g mask="url(#mask65_198_642)">
<path d="M55.641 6.14416L64.7346 7.62159L64.5874 2.38242L69.9683 0.179898L74.7168 4.02341L72.5197 8.8864L80.523 10.1839L78.6803 21.48L72.7433 20.5205L73.005 28.5456L57.7727 26.0704L60.7875 18.5797L53.9073 17.4621L55.641 6.14416Z" fill="black" stroke="#2BAF1D" stroke-width="1.02" stroke-linecap="round" stroke-linejoin="round"/>
</g>
</g>
</g>
<mask id="mask66_198_642" style="mask-type:luminance" maskUnits="userSpaceOnUse" x="71" y="8" width="12" height="6">
<path d="M71.1786 8.3739H82.3439V13.9565H71.1786V8.3739Z" fill="white"/>
</mask>
<g mask="url(#mask66_198_642)">
<mask id="mask67_198_642" style="mask-type:luminance" maskUnits="userSpaceOnUse" x="-3" y="-7" width="116" height="221">
<path d="M30.8299 -6.30231L112.46 6.94009L78.9364 213.585L-2.68774 200.348L30.8299 -6.30231Z" fill="white"/>
</mask>
<g mask="url(#mask67_198_642)">
<mask id="mask68_198_642" style="mask-type:luminance" maskUnits="userSpaceOnUse" x="-3" y="-7" width="116" height="221">
<path d="M30.8299 -6.30231L112.46 6.94009L78.9364 213.585L-2.68774 200.348L30.8299 -6.30231Z" fill="white"/>
</mask>
<g mask="url(#mask68_198_642)">
<path d="M72.5198 8.84271L80.5012 10.1948L81.9895 12.7298L73.9918 11.3887L72.5198 8.84271Z" fill="black" stroke="#2BAF1D" stroke-width="1.02" stroke-linecap="round" stroke-linejoin="round"/>
</g>
</g>
</g>
<mask id="mask69_198_642" style="mask-type:luminance" maskUnits="userSpaceOnUse" x="53" y="5" width="5" height="16">
<path d="M53.035 5.58264H57.222V20.9349H53.035V5.58264Z" fill="white"/>
</mask>
<g mask="url(#mask69_198_642)">
<mask id="mask70_198_642" style="mask-type:luminance" maskUnits="userSpaceOnUse" x="-3" y="-7" width="116" height="221">
<path d="M30.83 -6.30231L112.46 6.94009L78.9366 213.585L-2.68762 200.348L30.83 -6.30231Z" fill="white"/>
</mask>
<g mask="url(#mask70_198_642)">
<mask id="mask71_198_642" style="mask-type:luminance" maskUnits="userSpaceOnUse" x="-3" y="-7" width="116" height="221">
<path d="M30.83 -6.30231L112.46 6.94009L78.9366 213.585L-2.68762 200.348L30.83 -6.30231Z" fill="white"/>
</mask>
<g mask="url(#mask71_198_642)">
<path d="M55.8374 6.22595L57.1131 8.54841L55.3194 19.959L53.951 17.5003L55.8374 6.22595Z" fill="black"/>
</g>
</g>
</g>
<mask id="mask72_198_642" style="mask-type:luminance" maskUnits="userSpaceOnUse" x="53" y="5" width="6" height="16">
<path d="M53.035 5.58264H58.6177V20.9349H53.035V5.58264Z" fill="white"/>
</mask>
<g mask="url(#mask72_198_642)">
<mask id="mask73_198_642" style="mask-type:luminance" maskUnits="userSpaceOnUse" x="-3" y="-7" width="116" height="221">
<path d="M30.83 -6.30231L112.46 6.94009L78.9366 213.585L-2.68762 200.348L30.83 -6.30231Z" fill="white"/>
</mask>
<g mask="url(#mask73_198_642)">
<mask id="mask74_198_642" style="mask-type:luminance" maskUnits="userSpaceOnUse" x="-3" y="-7" width="116" height="221">
<path d="M30.83 -6.30231L112.46 6.94009L78.9366 213.585L-2.68762 200.348L30.83 -6.30231Z" fill="white"/>
</mask>
<g mask="url(#mask74_198_642)">
<path d="M55.8372 6.22596L57.1129 8.54842L55.3193 19.959L53.9509 17.5003L55.8372 6.22596Z" stroke="#2BAF1D" stroke-width="1.02" stroke-linecap="round" stroke-linejoin="round"/>
</g>
</g>
</g>
<mask id="mask75_198_642" style="mask-type:luminance" maskUnits="userSpaceOnUse" x="54" y="5" width="13" height="7">
<path d="M54.4307 5.58264H66.9916V11.1653H54.4307V5.58264Z" fill="white"/>
</mask>
<g mask="url(#mask75_198_642)">
<mask id="mask76_198_642" style="mask-type:luminance" maskUnits="userSpaceOnUse" x="-3" y="-7" width="116" height="221">
<path d="M30.8299 -6.30231L112.46 6.94009L78.9364 213.585L-2.68774 200.348L30.8299 -6.30231Z" fill="white"/>
</mask>
<g mask="url(#mask76_198_642)">
<mask id="mask77_198_642" style="mask-type:luminance" maskUnits="userSpaceOnUse" x="-3" y="-7" width="116" height="221">
<path d="M30.8299 -6.30231L112.46 6.94009L78.9364 213.585L-2.68774 200.348L30.8299 -6.30231Z" fill="white"/>
</mask>
<g mask="url(#mask77_198_642)">
<path d="M55.7716 6.18225L64.6635 7.63788L66.19 10.1239L57.2163 8.62465L55.7716 6.18225Z" fill="black" stroke="#2BAF1D" stroke-width="1.02" stroke-linecap="round" stroke-linejoin="round"/>
</g>
</g>
</g>
<mask id="mask78_198_642" style="mask-type:luminance" maskUnits="userSpaceOnUse" x="57" y="18" width="6" height="12">
<path d="M57.222 18.1436H62.8047V29.3088H57.222V18.1436Z" fill="white"/>
</mask>
<g mask="url(#mask78_198_642)">
<mask id="mask79_198_642" style="mask-type:luminance" maskUnits="userSpaceOnUse" x="-3" y="-7" width="116" height="221">
<path d="M30.83 -6.30231L112.46 6.94009L78.9366 213.585L-2.68762 200.348L30.83 -6.30231Z" fill="white"/>
</mask>
<g mask="url(#mask79_198_642)">
<mask id="mask80_198_642" style="mask-type:luminance" maskUnits="userSpaceOnUse" x="-3" y="-7" width="116" height="221">
<path d="M30.83 -6.30231L112.46 6.94009L78.9366 213.585L-2.68762 200.348L30.83 -6.30231Z" fill="white"/>
</mask>
<g mask="url(#mask80_198_642)">
<path d="M60.7931 18.5797L62.2487 21.082L59.2284 28.5892L57.8219 25.9778L60.7931 18.5797Z" fill="black" stroke="#2BAF1D" stroke-width="1.02" stroke-linecap="round" stroke-linejoin="round"/>
</g>
</g>
</g>
<mask id="mask81_198_642" style="mask-type:luminance" maskUnits="userSpaceOnUse" x="64" y="1" width="3" height="11">
<path d="M64.2003 1.39563H66.9916V11.1652H64.2003V1.39563Z" fill="white"/>
</mask>
<g mask="url(#mask81_198_642)">
<mask id="mask82_198_642" style="mask-type:luminance" maskUnits="userSpaceOnUse" x="-3" y="-7" width="116" height="221">
<path d="M30.83 -6.30231L112.46 6.94009L78.9366 213.585L-2.68762 200.348L30.83 -6.30231Z" fill="white"/>
</mask>
<g mask="url(#mask82_198_642)">
<mask id="mask83_198_642" style="mask-type:luminance" maskUnits="userSpaceOnUse" x="-3" y="-7" width="116" height="221">
<path d="M30.83 -6.30231L112.46 6.94009L78.9366 213.585L-2.68762 200.348L30.83 -6.30231Z" fill="white"/>
</mask>
<g mask="url(#mask83_198_642)">
<path d="M64.6036 2.4696L66.0593 4.92836L66.1738 10.1348L64.7181 7.66516L64.6036 2.4696Z" fill="black" stroke="#2BAF1D" stroke-width="1.02" stroke-linecap="round" stroke-linejoin="round"/>
</g>
</g>
</g>
<mask id="mask84_198_642" style="mask-type:luminance" maskUnits="userSpaceOnUse" x="64" y="0" width="9" height="6">
<path d="M64.2003 0H72.5743V5.58263H64.2003V0Z" fill="white"/>
</mask>
<g mask="url(#mask84_198_642)">
<mask id="mask85_198_642" style="mask-type:luminance" maskUnits="userSpaceOnUse" x="-3" y="-7" width="116" height="221">
<path d="M30.83 -6.30231L112.46 6.94009L78.9366 213.585L-2.68762 200.348L30.83 -6.30231Z" fill="white"/>
</mask>
<g mask="url(#mask85_198_642)">
<mask id="mask86_198_642" style="mask-type:luminance" maskUnits="userSpaceOnUse" x="-3" y="-7" width="116" height="221">
<path d="M30.83 -6.30231L112.46 6.94009L78.9366 213.585L-2.68762 200.348L30.83 -6.30231Z" fill="white"/>
</mask>
<g mask="url(#mask86_198_642)">
<path d="M64.571 2.39325L69.9737 0.179828L71.3803 2.68765L66.0866 4.87382L64.571 2.39325Z" fill="black" stroke="#2BAF1D" stroke-width="1.02" stroke-linecap="round" stroke-linejoin="round"/>
</g>
</g>
</g>
<mask id="mask87_198_642" style="mask-type:luminance" maskUnits="userSpaceOnUse" x="54" y="1" width="29" height="32">
<path d="M54.4307 1.39563H82.3438V32.1001H54.4307V1.39563Z" fill="white"/>
</mask>
<g mask="url(#mask87_198_642)">
<mask id="mask88_198_642" style="mask-type:luminance" maskUnits="userSpaceOnUse" x="-3" y="-7" width="116" height="221">
<path d="M30.8299 -6.30231L112.46 6.94009L78.9364 213.585L-2.68774 200.348L30.8299 -6.30231Z" fill="white"/>
</mask>
<g mask="url(#mask88_198_642)">
<mask id="mask89_198_642" style="mask-type:luminance" maskUnits="userSpaceOnUse" x="-3" y="-7" width="116" height="221">
<path d="M30.8299 -6.30231L112.459 6.94009L78.9364 213.585L-2.68774 200.348L30.8299 -6.30231Z" fill="white"/>
</mask>
<g mask="url(#mask89_198_642)">
<path d="M57.0967 8.66284L66.1903 10.1348L66.0431 4.89565L71.424 2.69313L76.1725 6.53664L73.9754 11.3996L81.9787 12.6972L80.1305 23.9987L74.199 23.0337L74.4606 31.0588L59.2283 28.5891L62.2432 21.0929L55.363 19.9807L57.0967 8.66284Z" fill="black" stroke="#2BAF1D" stroke-width="1.02" stroke-linecap="round" stroke-linejoin="round"/>
</g>
</g>
</g>
<mask id="mask90_198_642" style="mask-type:luminance" maskUnits="userSpaceOnUse" x="69" y="0" width="8" height="7">
<path d="M69.783 0H76.7612V6.97829H69.783V0Z" fill="white"/>
</mask>
<g mask="url(#mask90_198_642)">
<mask id="mask91_198_642" style="mask-type:luminance" maskUnits="userSpaceOnUse" x="-3" y="-7" width="116" height="221">
<path d="M30.83 -6.30231L112.46 6.94009L78.9366 213.585L-2.68762 200.348L30.83 -6.30231Z" fill="white"/>
</mask>
<g mask="url(#mask91_198_642)">
<mask id="mask92_198_642" style="mask-type:luminance" maskUnits="userSpaceOnUse" x="-3" y="-7" width="116" height="221">
<path d="M30.83 -6.30231L112.46 6.94009L78.9366 213.585L-2.68762 200.348L30.83 -6.30231Z" fill="white"/>
</mask>
<g mask="url(#mask92_198_642)">
<path d="M69.9957 0.20166L74.7061 3.99065L76.129 6.48757L71.3914 2.72039L69.9957 0.20166Z" fill="black" stroke="#2BAF1D" stroke-width="1.05" stroke-linecap="round" stroke-linejoin="round"/>
</g>
</g>
</g>
</svg>
