<svg width="20" height="20" viewBox="0 0 20 20" fill="none" xmlns="http://www.w3.org/2000/svg" role="img" aria-labelledby="svg-carrinho"><title id="svg-carrinho">Logo Gama Zone</title>
<mask id="mask0_209_631" style="mask-type:alpha" maskUnits="userSpaceOnUse" x="0" y="0" width="20" height="20">
<rect width="20" height="20" fill="#101010"/>
</mask>
<g mask="url(#mask0_209_631)">
<path d="M5.4698 16.1653C5.37005 18.3179 12.7504 19.3045 13.0726 17.3982L12.8809 18.5776C12.4595 20.1883 5.69166 19.4599 5.2786 17.3447L5.4698 16.1653Z" fill="#00BF63"/>
<path fill-rule="evenodd" clip-rule="evenodd" d="M13.0807 17.3491C13.1078 17.3536 13.1261 17.3791 13.1217 17.4062L13.1216 17.4065L12.93 18.5856C12.9297 18.5871 12.9294 18.5887 12.929 18.5902C12.8718 18.8089 12.708 18.9829 12.475 19.1169C12.242 19.2509 11.9353 19.3477 11.5821 19.4108C10.8753 19.5372 9.97148 19.5306 9.06989 19.4076C8.16824 19.2845 7.26491 19.0444 6.55968 18.7009C5.85745 18.3588 5.33778 17.9072 5.22978 17.3542C5.22866 17.3484 5.22856 17.3425 5.2295 17.3367L5.4207 16.1573C5.42492 16.1313 5.44872 16.1131 5.47495 16.1158C5.50117 16.1185 5.52072 16.1412 5.5195 16.1676C5.49601 16.6744 5.91341 17.1261 6.59382 17.4902C7.27012 17.8521 8.1874 18.1164 9.12027 18.2546C10.0531 18.3928 10.9968 18.4042 11.7253 18.2636C12.0897 18.1933 12.3971 18.0856 12.6222 17.9391C12.8466 17.7931 12.9862 17.6107 13.0235 17.3899C13.0281 17.3629 13.0537 17.3446 13.0807 17.3491ZM12.9624 17.7657C12.8879 17.8624 12.7912 17.9478 12.6764 18.0225C12.4366 18.1785 12.1154 18.2897 11.7441 18.3613C11.0013 18.5046 10.0457 18.4922 9.10569 18.353C8.16567 18.2137 7.23642 17.9469 6.54688 17.5779C6.00368 17.2873 5.5972 16.9263 5.46504 16.5055L5.32915 17.3437C5.43144 17.8446 5.91113 18.2743 6.60324 18.6114C7.29632 18.949 8.18873 19.1869 9.08334 19.309C9.97801 19.4311 10.8709 19.4369 11.5646 19.3129C11.9115 19.2509 12.206 19.1569 12.4254 19.0307C12.6438 18.905 12.7835 18.7502 12.8321 18.5672L12.9624 17.7657Z" fill="#101010"/>
<path d="M7.27688 13.6906C7.78917 14.8461 11.3726 15.4306 12.0091 14.4579C11.7181 15.9314 12.8586 15.787 13.0773 17.2989C12.8866 19.3252 5.14356 18.3526 5.5005 16.0473C5.86003 14.7084 7.30078 15.3994 7.27688 13.6906Z" fill="#00BF63"/>
<path fill-rule="evenodd" clip-rule="evenodd" d="M12.0278 14.4119C12.0499 14.4209 12.0625 14.4443 12.0578 14.4676C11.9863 14.8299 12.0036 15.0884 12.0698 15.2958C12.1363 15.5038 12.2533 15.6651 12.3905 15.8326C12.4163 15.864 12.4427 15.8956 12.4694 15.9276C12.7289 16.238 13.0253 16.5926 13.1265 17.2919C13.1271 17.2958 13.1272 17.2997 13.1268 17.3036C13.1013 17.5748 12.949 17.7932 12.7111 17.9621C12.4742 18.1303 12.1502 18.2515 11.773 18.3311C11.0184 18.4904 10.0376 18.4863 9.07637 18.3467C8.11523 18.2072 7.16832 17.9315 6.48247 17.5437C5.79998 17.1579 5.35699 16.6489 5.45132 16.0397C5.45159 16.038 5.45196 16.0362 5.45243 16.0345C5.54511 15.6893 5.70857 15.4726 5.90175 15.3159C6.05515 15.1915 6.22794 15.1051 6.39237 15.0228C6.43206 15.003 6.47126 14.9834 6.50959 14.9635C6.7092 14.8602 6.88909 14.7491 7.01917 14.563C7.14879 14.3776 7.233 14.1116 7.22712 13.6913C7.22679 13.6677 7.24313 13.6471 7.26622 13.642C7.2893 13.637 7.31276 13.6488 7.32234 13.6705C7.44311 13.9429 7.74978 14.1894 8.16454 14.39C8.57727 14.5896 9.08832 14.7394 9.60437 14.8233C10.1205 14.9072 10.6388 14.9247 11.0659 14.8617C11.4961 14.7983 11.8205 14.6552 11.9674 14.4308C11.9805 14.4108 12.0058 14.403 12.0278 14.4119ZM7.32339 13.8716C7.30595 14.2069 7.2245 14.4429 7.10072 14.62C6.95614 14.8268 6.75786 14.947 6.55533 15.0519C6.5144 15.0731 6.47344 15.0936 6.43266 15.114C6.26914 15.1959 6.10854 15.2763 5.96441 15.3932C5.78755 15.5366 5.63643 15.7349 5.54923 16.0576C5.46677 16.6 5.85763 17.0762 6.53143 17.4571C7.20297 17.8368 8.13682 18.1098 9.09066 18.2483C10.0444 18.3868 11.0128 18.3899 11.7525 18.2338C12.1225 18.1557 12.4319 18.0384 12.6535 17.881C12.8724 17.7255 13.0034 17.5329 13.0272 17.3002C12.9293 16.6334 12.65 16.299 12.3929 15.9912C12.3661 15.9592 12.3396 15.9274 12.3135 15.8956C12.1746 15.726 12.0475 15.5527 11.9751 15.3261C11.9144 15.136 11.8931 14.9118 11.9311 14.6243C11.7368 14.8013 11.4329 14.9082 11.0804 14.9601C10.6406 15.025 10.1117 15.0065 9.58841 14.9215C9.06501 14.8364 8.54436 14.6842 8.12123 14.4796C7.77614 14.3127 7.48996 14.1081 7.32339 13.8716Z" fill="#101010"/>
<path d="M12.0605 14.3484C12.0521 14.4071 12.0282 14.4632 11.9893 14.5157C11.9503 14.5687 11.8968 14.6175 11.8287 14.6622C11.7607 14.7069 11.6796 14.7469 11.5851 14.7817C11.4905 14.8165 11.385 14.8461 11.2676 14.87C11.1502 14.8934 11.0239 14.911 10.8888 14.923C10.7532 14.9344 10.6114 14.9396 10.4628 14.9391C10.3142 14.9381 10.1625 14.9308 10.0066 14.9173C9.85127 14.9038 9.69488 14.8845 9.53797 14.8591C9.38107 14.8336 9.22675 14.8025 9.07504 14.7661C8.92281 14.7297 8.77629 14.6887 8.63549 14.6424C8.49417 14.5967 8.36116 14.5463 8.23647 14.4928C8.11177 14.4388 7.99747 14.3821 7.89356 14.3224C7.79016 14.2631 7.69872 14.2018 7.62026 14.1385C7.54181 14.0756 7.47738 14.0122 7.42647 13.9483C7.37607 13.8844 7.34074 13.821 7.32048 13.7587C7.30021 13.6963 7.29554 13.6355 7.30645 13.5773C7.31476 13.5181 7.33814 13.4625 7.37711 13.4095C7.41608 13.3565 7.46959 13.3077 7.53765 13.263C7.60572 13.2183 7.68729 13.1783 7.78185 13.1435C7.87589 13.1087 7.98188 13.0791 8.0993 13.0557C8.2162 13.0318 8.34298 13.0141 8.47806 13.0027C8.61367 12.9907 8.75551 12.9855 8.90411 12.9866C9.0527 12.9871 9.20441 12.9944 9.36028 13.0079C9.51563 13.0214 9.67202 13.0406 9.82893 13.0661C9.98584 13.0915 10.1401 13.1227 10.2919 13.1591C10.4436 13.1954 10.5901 13.237 10.7314 13.2827C10.8727 13.329 11.0052 13.3789 11.1304 13.4329C11.2551 13.4864 11.3694 13.543 11.4733 13.6028C11.5767 13.6625 11.6682 13.7238 11.7466 13.7867C11.8251 13.8496 11.8895 13.913 11.9399 13.9774C11.9903 14.0413 12.0256 14.1042 12.0459 14.1665C12.0662 14.2294 12.0714 14.2896 12.0605 14.3484Z" fill="#00BF63"/>
<path fill-rule="evenodd" clip-rule="evenodd" d="M7.56771 13.282C7.43743 13.3704 7.36379 13.4722 7.34576 13.5825C7.32774 13.6928 7.36513 13.8128 7.46046 13.9381C7.55589 14.0636 7.70621 14.1898 7.90294 14.3086C8.29612 14.5461 8.86407 14.7473 9.51343 14.8535C10.1628 14.9596 10.7653 14.9496 11.2136 14.8498C11.4379 14.7998 11.6206 14.728 11.751 14.6394C11.8813 14.5509 11.9549 14.4491 11.9729 14.3388C11.991 14.2286 11.9536 14.1086 11.8582 13.9833C11.7628 13.8578 11.6125 13.7315 11.4158 13.6127C11.0226 13.3753 10.4546 13.174 9.80528 13.0679C9.15593 12.9618 8.55345 12.9717 8.10514 13.0716C7.88081 13.1216 7.69812 13.1934 7.56771 13.282ZM8.07967 12.9573C8.54586 12.8534 9.16385 12.8444 9.82417 12.9523C10.4845 13.0603 11.0674 13.2656 11.4763 13.5125C11.6806 13.6359 11.8441 13.7712 11.9514 13.9124C12.0589 14.0537 12.1134 14.2055 12.0885 14.3577C12.0636 14.5099 11.9637 14.6365 11.8168 14.7363C11.67 14.8359 11.472 14.9122 11.239 14.9641C10.7728 15.0679 10.1549 15.077 9.49454 14.969C8.83422 14.8611 8.25127 14.6558 7.84242 14.4089C7.63814 14.2855 7.47465 14.1502 7.36726 14.009C7.25977 13.8676 7.20533 13.7158 7.23021 13.5636C7.25508 13.4114 7.35503 13.2849 7.50193 13.1851C7.64868 13.0854 7.84675 13.0092 8.07967 12.9573Z" fill="#101010"/>
<path d="M9.30729 8.65601C9.73749 8.89137 11.0847 9.1153 11.6734 9.03996C11.1891 10.8501 11.2567 12.5268 11.5097 14.2086C11.0281 14.6419 8.37207 14.4829 7.85095 13.6152C8.64121 12.0103 9.10778 10.4163 9.30729 8.65601Z" fill="#00BF63"/>
<path fill-rule="evenodd" clip-rule="evenodd" d="M9.28442 8.61192C9.29913 8.60429 9.31667 8.60448 9.33121 8.61243C9.53817 8.72566 9.97499 8.83951 10.439 8.91547C10.9021 8.99128 11.3802 9.02741 11.6671 8.99069C11.6836 8.98858 11.7 8.99481 11.7109 9.00729C11.7218 9.01977 11.7258 9.03687 11.7215 9.05289C11.2397 10.854 11.3065 12.5231 11.559 14.2012C11.5614 14.2178 11.5555 14.2344 11.543 14.2456C11.4748 14.307 11.3724 14.3546 11.2498 14.3909C11.1262 14.4274 10.9776 14.4538 10.8131 14.4703C10.4841 14.5031 10.087 14.4966 9.6893 14.4492C9.29173 14.4019 8.8914 14.3134 8.55654 14.1813C8.2233 14.0498 7.94712 13.872 7.80835 13.6409C7.79965 13.6264 7.7989 13.6085 7.80637 13.5933C8.5941 11.9935 9.05904 10.405 9.2579 8.65047C9.25977 8.63401 9.26971 8.61955 9.28442 8.61192ZM9.34861 8.73227C9.14512 10.4613 8.6827 12.0322 7.90788 13.6123C8.03438 13.805 8.27891 13.9648 8.59306 14.0887C8.91781 14.2169 9.3093 14.3038 9.70107 14.3505C10.0927 14.3971 10.4825 14.4033 10.8032 14.3713C10.9636 14.3552 11.1057 14.3297 11.2215 14.2954C11.3244 14.265 11.4034 14.2286 11.4564 14.1882C11.2095 12.5336 11.1431 10.8795 11.607 9.09693C11.3029 9.1219 10.8524 9.08397 10.4229 9.01366C10.0001 8.94444 9.58753 8.84222 9.34861 8.73227Z" fill="#101010"/>
<path d="M13.3079 8.30113C13.296 8.37335 13.2674 8.44193 13.2217 8.50739C13.176 8.57234 13.1147 8.63261 13.0367 8.6882C12.9588 8.74432 12.8663 8.79419 12.7593 8.83836C12.6523 8.88252 12.5328 8.91993 12.4008 8.95058C12.2683 8.98176 12.1265 9.00514 11.9742 9.02176C11.822 9.03787 11.663 9.0467 11.4967 9.04826C11.3305 9.0493 11.1601 9.04306 10.986 9.02956C10.812 9.01553 10.6374 8.99475 10.4623 8.96617C10.2872 8.93759 10.1147 8.90278 9.94533 8.8607C9.77595 8.81861 9.61229 8.77081 9.45538 8.71678C9.29795 8.66326 9.14987 8.60455 9.01063 8.54065C8.87139 8.47726 8.7441 8.40972 8.62823 8.33854C8.51289 8.26788 8.41106 8.19462 8.32377 8.11876C8.23596 8.04291 8.16426 7.96653 8.10815 7.88911C8.05152 7.8117 8.01203 7.7348 7.98969 7.65843C7.96683 7.58205 7.96111 7.50827 7.97306 7.43606C7.98449 7.36384 8.01359 7.29525 8.05879 7.23031C8.10451 7.16536 8.16634 7.10457 8.24428 7.04898C8.32221 6.99339 8.41469 6.94351 8.52172 6.89935C8.62823 6.85518 8.74825 6.81777 8.88022 6.7866C9.01219 6.75595 9.15455 6.73205 9.30626 6.71594C9.45849 6.69931 9.618 6.69048 9.78426 6.68944C9.95052 6.68788 10.1204 6.69412 10.2945 6.70815C10.4685 6.72166 10.6431 6.74296 10.8182 6.77153C10.9938 6.79959 11.1658 6.83492 11.3352 6.87701C11.5051 6.91857 11.6682 6.96637 11.8256 7.0204C11.9831 7.07444 12.1311 7.13315 12.2704 7.19654C12.4096 7.26044 12.5369 7.32747 12.6523 7.39865C12.7681 7.46983 12.8694 7.54309 12.9572 7.61894C13.0445 7.69428 13.1167 7.77117 13.1729 7.84859C13.229 7.926 13.2685 8.0029 13.2913 8.07876C13.3142 8.15513 13.3194 8.22943 13.3079 8.30113Z" fill="#00BF63"/>
<path fill-rule="evenodd" clip-rule="evenodd" d="M8.28 7.13324C8.13406 7.23588 8.05092 7.35374 8.03154 7.48165C8.01216 7.60956 8.05666 7.74676 8.16565 7.88802C8.27477 8.02945 8.44544 8.1705 8.66767 8.30217C9.11184 8.56533 9.75138 8.78471 10.4808 8.89522C11.2102 9.00572 11.886 8.98562 12.3882 8.86583C12.6395 8.80589 12.8442 8.72172 12.9904 8.61896C13.1363 8.51632 13.2194 8.39846 13.2388 8.27055C13.2582 8.14264 13.2137 8.00544 13.1047 7.86418C12.9956 7.72275 12.8249 7.5817 12.6027 7.45003C12.1585 7.18687 11.519 6.96749 10.7896 6.85698C10.0602 6.74648 9.38435 6.76658 8.88216 6.88637C8.6309 6.94631 8.42611 7.03048 8.28 7.13324ZM8.85499 6.77248C9.37514 6.6484 10.0666 6.62903 10.8071 6.74121C11.5476 6.8534 12.2023 7.07672 12.6624 7.34929C12.8923 7.4855 13.0762 7.63556 13.1974 7.79265C13.3187 7.9499 13.3803 8.11859 13.3546 8.28809C13.3289 8.45758 13.2202 8.60048 13.0577 8.71474C12.8954 8.82888 12.6753 8.91773 12.4154 8.97972C11.8952 9.1038 11.2038 9.12318 10.4632 9.01099C9.72274 8.8988 9.06804 8.67548 8.60798 8.40291C8.3781 8.2667 8.19415 8.11664 8.07295 7.95955C7.95162 7.8023 7.89009 7.63361 7.91577 7.46411C7.94145 7.29462 8.05018 7.15172 8.21265 7.03746C8.37494 6.92332 8.59508 6.83448 8.85499 6.77248Z" fill="#101010"/>
<path d="M12.763 7.62574C12.7531 7.68653 12.7303 7.7442 12.6949 7.79927C12.6596 7.85435 12.6113 7.90578 12.5515 7.95306C12.4913 8.00086 12.4206 8.04399 12.338 8.08192C12.2559 8.12036 12.1645 8.1531 12.0632 8.18063C11.9618 8.20817 11.8532 8.22947 11.7369 8.24506C11.6205 8.26065 11.4989 8.27052 11.3721 8.27363C11.2454 8.27675 11.1155 8.27363 10.983 8.26428C10.85 8.25493 10.717 8.23934 10.584 8.21752C10.4504 8.1957 10.3195 8.16868 10.1906 8.13543C10.0618 8.1027 9.93761 8.06477 9.81811 8.02165C9.69861 7.97852 9.58639 7.93072 9.48091 7.87929C9.37544 7.82785 9.27932 7.77278 9.19204 7.7151C9.10475 7.65691 9.02837 7.59664 8.96239 7.5343C8.8964 7.47195 8.84237 7.40908 8.8008 7.34466C8.75872 7.28075 8.72962 7.21684 8.713 7.15346C8.69689 7.09007 8.69377 7.02772 8.70365 6.96745C8.713 6.90718 8.73586 6.84899 8.77171 6.79392C8.80704 6.73884 8.85484 6.68793 8.91511 6.64013C8.97486 6.59233 9.04604 6.54972 9.12813 6.51128C9.21022 6.47283 9.30218 6.4401 9.4035 6.41256C9.5043 6.38502 9.6134 6.36372 9.72927 6.34813C9.84565 6.33255 9.96723 6.32319 10.094 6.32008C10.2213 6.31696 10.3512 6.32008 10.4837 6.32943C10.6162 6.33878 10.7492 6.35437 10.8827 6.37567C11.0157 6.39749 11.1472 6.42451 11.276 6.45776C11.4049 6.49101 11.5285 6.52894 11.648 6.57206C11.7675 6.61519 11.8797 6.66247 11.9852 6.7139C12.0907 6.76534 12.1868 6.82042 12.2746 6.87861C12.3619 6.93628 12.4383 6.99655 12.5043 7.0589C12.5702 7.12124 12.6238 7.18463 12.6658 7.24854C12.7079 7.31244 12.737 7.37635 12.7531 7.43973C12.7698 7.50364 12.7729 7.56547 12.763 7.62574Z" fill="#00BF63"/>
<path fill-rule="evenodd" clip-rule="evenodd" d="M9.42123 6.45845C9.03097 6.56536 8.79745 6.75145 8.76099 6.97255C8.72453 7.19366 8.88594 7.44487 9.22121 7.67142C9.55186 7.89485 10.0332 8.08026 10.5867 8.17154C11.1402 8.26281 11.6555 8.24175 12.0404 8.1363C12.4307 8.02939 12.6642 7.8433 12.7007 7.6222C12.7371 7.40109 12.5757 7.14988 12.2404 6.92333C11.9098 6.6999 11.4285 6.51449 10.875 6.42321C10.3214 6.33194 9.80611 6.353 9.42123 6.45845ZM9.39029 6.34552C9.79487 6.23468 10.3277 6.2143 10.894 6.30768C11.4603 6.40106 11.9584 6.59145 12.306 6.82631C12.649 7.05806 12.8646 7.34766 12.8162 7.64125C12.7678 7.93484 12.4706 8.13987 12.0714 8.24923C11.6668 8.36007 11.1339 8.38045 10.5676 8.28707C10.0013 8.19369 9.50322 8.00331 9.15565 7.76844C8.81269 7.53669 8.59704 7.24709 8.64546 6.9535C8.69387 6.65991 8.99107 6.45488 9.39029 6.34552Z" fill="#101010"/>
<path fill-rule="evenodd" clip-rule="evenodd" d="M12.4359 6.28574C12.4569 6.29473 12.4691 6.31689 12.4655 6.33945L12.2935 7.39884C12.2913 7.41229 12.2837 7.42426 12.2724 7.43195C12.2102 7.47442 12.1239 7.50693 12.0229 7.53131C11.9212 7.55585 11.8015 7.57291 11.6701 7.58268C11.4074 7.60222 11.0948 7.59284 10.781 7.55382C10.4673 7.51481 10.1505 7.44596 9.87985 7.34567C9.61051 7.24588 9.3806 7.11273 9.2477 6.94127C9.23925 6.93036 9.23571 6.91644 9.23792 6.90282L9.40989 5.84395C9.41345 5.82208 9.43103 5.80519 9.45303 5.80254C9.47502 5.79988 9.49612 5.81209 9.50478 5.83248C9.5185 5.86477 9.56204 5.90875 9.64327 5.95986C9.72204 6.00942 9.82815 6.06078 9.95421 6.11109C10.2061 6.21164 10.5323 6.30591 10.8658 6.37298C11.1996 6.4401 11.5384 6.47946 11.8157 6.47146C11.9544 6.46746 12.0758 6.45164 12.1729 6.42258C12.2705 6.39333 12.3383 6.35222 12.3767 6.30147C12.3905 6.28324 12.4149 6.27675 12.4359 6.28574ZM9.49015 5.9704L9.33967 6.89692C9.45795 7.03921 9.66122 7.15857 9.91442 7.25238C10.1761 7.34932 10.4849 7.41675 10.7933 7.45509C11.1015 7.49342 11.4074 7.50245 11.6627 7.48347C11.7904 7.47397 11.9045 7.45753 11.9995 7.43459C12.0843 7.41414 12.1513 7.38909 12.1988 7.36089L12.3456 6.45694C12.303 6.48203 12.2543 6.50205 12.2014 6.51788C12.0931 6.55033 11.9622 6.56676 11.8186 6.57091C11.531 6.57921 11.1843 6.53849 10.8462 6.47052C10.508 6.40251 10.1759 6.30669 9.91733 6.2035C9.78818 6.15195 9.67603 6.09802 9.59029 6.04407C9.55294 6.02057 9.51882 5.996 9.49015 5.9704Z" fill="#101010"/>
<path d="M12.6481 6.53149C12.6408 6.57721 12.6221 6.62034 12.5925 6.66138C12.5629 6.70243 12.5223 6.74035 12.4714 6.77516C12.421 6.80998 12.3602 6.84115 12.2901 6.86869C12.22 6.89622 12.142 6.9196 12.0553 6.93831C11.9685 6.95753 11.8755 6.97208 11.7757 6.98143C11.676 6.9913 11.5715 6.9965 11.4624 6.9965C11.3528 6.99702 11.2411 6.99234 11.1268 6.98299C11.0125 6.97312 10.8982 6.95909 10.7828 6.94039C10.668 6.92168 10.5548 6.89882 10.4431 6.8718C10.3319 6.84479 10.2243 6.81361 10.1209 6.7788C10.017 6.74451 9.91985 6.70658 9.82789 6.66554C9.73645 6.62501 9.6528 6.58189 9.57642 6.53669C9.50057 6.49096 9.43354 6.4442 9.37535 6.39588C9.31768 6.34756 9.2704 6.29924 9.23299 6.24989C9.1961 6.20053 9.16961 6.15169 9.15454 6.10337C9.13947 6.05557 9.13531 6.00829 9.14259 5.96309C9.14986 5.91737 9.16857 5.87424 9.19818 5.8332C9.2278 5.79215 9.26832 5.75422 9.31924 5.71889C9.37016 5.68408 9.43043 5.65291 9.50057 5.62537C9.57071 5.59783 9.64916 5.57497 9.73541 5.55575C9.82218 5.53705 9.91518 5.5225 10.0149 5.51263C10.1152 5.50275 10.2196 5.49808 10.3288 5.49756C10.4379 5.49756 10.5496 5.50223 10.6639 5.51159C10.7782 5.52094 10.893 5.53497 11.0078 5.55367C11.1232 5.57238 11.2364 5.59524 11.3476 5.62277C11.4593 5.64979 11.5664 5.68044 11.6703 5.71526C11.7737 5.75007 11.8713 5.78748 11.9628 5.82852C12.0542 5.86957 12.1384 5.91269 12.2142 5.95789C12.2906 6.00309 12.3576 6.04985 12.4153 6.09817C12.473 6.14649 12.5203 6.19533 12.5577 6.24469C12.5951 6.29353 12.6211 6.34237 12.6361 6.39069C12.6517 6.43901 12.6554 6.48577 12.6481 6.53149Z" fill="#00BF63"/>
<path fill-rule="evenodd" clip-rule="evenodd" d="M10.9998 5.60281C10.8863 5.58431 10.7728 5.57045 10.6598 5.5612C10.5468 5.55196 10.4365 5.54734 10.3289 5.54734C10.2211 5.54786 10.1183 5.55248 10.0198 5.56217C9.92189 5.57186 9.83083 5.58612 9.74608 5.60438C9.66174 5.62318 9.58591 5.64535 9.51876 5.67171C9.4515 5.69812 9.39472 5.72761 9.34747 5.7599C9.30005 5.79282 9.26407 5.82696 9.23854 5.86234C9.21289 5.89788 9.19764 5.93383 9.19173 5.97094C9.18582 6.00766 9.18899 6.04719 9.202 6.08845L9.20205 6.0886C9.21503 6.13023 9.23841 6.17402 9.27276 6.22001C9.30741 6.26571 9.35186 6.31131 9.40723 6.35772C9.46309 6.40409 9.52791 6.44938 9.60195 6.49401C9.67651 6.53813 9.75837 6.58034 9.84806 6.62009L9.84818 6.62015C9.93864 6.66052 10.0342 6.69784 10.1365 6.7316L10.1368 6.73169C10.2388 6.76604 10.345 6.79681 10.4548 6.82349C10.5652 6.85021 10.6773 6.87282 10.7909 6.89132C10.9049 6.90982 11.0179 6.92369 11.131 6.93346C11.244 6.9427 11.3542 6.9473 11.4622 6.94679L11.4625 6.94679C11.57 6.94679 11.6728 6.94167 11.7709 6.93196L11.7711 6.93194C11.869 6.92277 11.9599 6.90852 12.0445 6.88978L12.0448 6.88972C12.1292 6.87152 12.2046 6.84887 12.2719 6.82242C12.3394 6.79593 12.3966 6.76642 12.4432 6.73427L12.4434 6.73414C12.4906 6.70182 12.5266 6.66772 12.5522 6.63231C12.5778 6.59677 12.5931 6.56082 12.599 6.52371C12.605 6.4861 12.6021 6.44725 12.5888 6.406L12.5887 6.40553C12.5756 6.36366 12.5527 6.31996 12.5182 6.27498L12.518 6.27477C12.4833 6.22888 12.4387 6.18269 12.3834 6.13634C12.3281 6.09003 12.2634 6.0448 12.1889 6.00074L12.1888 6.00066C12.1149 5.9566 12.0324 5.91434 11.9424 5.87394C11.8527 5.83368 11.7566 5.79685 11.6544 5.76245C11.552 5.72812 11.4463 5.69786 11.3359 5.67116L11.3357 5.6711C11.2259 5.64391 11.1139 5.62131 10.9998 5.60281ZM11.0158 5.50461C10.8997 5.48569 10.7836 5.4715 10.6679 5.46204C10.5524 5.45259 10.4393 5.44785 10.3288 5.44785L10.3285 5.44785C10.2182 5.44838 10.1122 5.45311 10.0101 5.46316C9.90857 5.4732 9.81368 5.48803 9.72494 5.50716L9.7246 5.50723C9.63652 5.52687 9.5555 5.55041 9.48241 5.5791C9.40946 5.60774 9.34574 5.64057 9.29118 5.67786L9.2909 5.67806C9.23656 5.71577 9.19153 5.75745 9.15786 5.80413C9.12428 5.85066 9.10213 5.90094 9.09349 5.95526C9.08486 6.00893 9.08999 6.06404 9.10711 6.11836L9.10707 6.11822C9.12421 6.17319 9.15379 6.22702 9.19316 6.2797L9.19336 6.27997C9.23349 6.33292 9.28355 6.38389 9.34342 6.43405L9.34359 6.43419C9.40406 6.4844 9.4732 6.53258 9.55076 6.57933L9.5511 6.57953C9.62923 6.62577 9.7146 6.66977 9.8077 6.71103C9.9011 6.75272 9.99976 6.79123 10.1052 6.82603C10.2099 6.86128 10.3188 6.89284 10.4313 6.92018C10.5443 6.9475 10.6588 6.97062 10.7749 6.98952C10.8915 7.00843 11.007 7.02261 11.1225 7.03259L11.1228 7.03261C11.2383 7.04206 11.3514 7.0468 11.4626 7.04628C11.5732 7.04628 11.6792 7.04101 11.7805 7.03098C11.8821 7.02146 11.9771 7.00662 12.0659 6.98694C12.155 6.96774 12.2354 6.94363 12.3083 6.91503C12.381 6.88647 12.4454 6.85365 12.4996 6.81621C12.5541 6.77892 12.5992 6.73718 12.6328 6.69052C12.6664 6.64398 12.6886 6.59368 12.6972 6.53934C12.7058 6.48558 12.7014 6.43099 12.6836 6.37569C12.6665 6.32104 12.6375 6.26718 12.5973 6.21459C12.5573 6.1618 12.5073 6.11034 12.4473 6.06008C12.3872 6.00976 12.3179 5.96148 12.2397 5.91515C12.1619 5.86883 12.076 5.82485 11.9832 5.78317C11.89 5.74134 11.7908 5.70336 11.6862 5.66815C11.5809 5.63287 11.4724 5.60182 11.3595 5.57449C11.2469 5.54662 11.1324 5.5235 11.0158 5.50461Z" fill="#101010"/>
<path d="M8.94879 2.86077C8.83656 4.04745 13.7168 4.75042 13.8628 3.65206C13.5012 4.6226 12.8138 5.51314 12.4049 6.36886C12.0823 6.69826 9.85335 6.40782 9.45588 5.83423C9.25481 4.79874 8.67342 3.16835 8.94879 2.86077Z" fill="#00BF63"/>
<path fill-rule="evenodd" clip-rule="evenodd" d="M13.8718 3.61588C13.8902 3.62047 13.9023 3.63817 13.8998 3.65699C13.8911 3.72196 13.8676 3.78056 13.8317 3.83316C13.6548 4.26131 13.421 4.67347 13.1836 5.0726C13.134 5.15598 13.0843 5.23876 13.0349 5.32099C12.8165 5.68465 12.6045 6.03763 12.4386 6.38496C12.4368 6.38866 12.4344 6.39205 12.4315 6.39498C12.3838 6.44376 12.3053 6.47731 12.2106 6.50026C12.1148 6.52351 11.997 6.53713 11.8653 6.54225C11.6018 6.5525 11.278 6.52888 10.9526 6.47703C10.6271 6.42518 10.2986 6.34484 10.0257 6.24096C9.75478 6.13783 9.53144 6.00884 9.42518 5.85549C9.42224 5.85124 9.42021 5.84643 9.41922 5.84136C9.35794 5.52575 9.26163 5.15632 9.16476 4.78472C9.10285 4.54725 9.04071 4.30889 8.98733 4.08313C8.91922 3.79508 8.86555 3.52792 8.84638 3.31284C8.8368 3.20533 8.83568 3.10934 8.84625 3.02949C8.85673 2.95034 8.87925 2.88248 8.92096 2.8359C8.93171 2.82389 8.94894 2.82014 8.9637 2.8266C8.97847 2.83306 8.98742 2.84826 8.9859 2.8643C8.97321 2.99847 9.03043 3.12916 9.14886 3.25497C9.26753 3.38102 9.44509 3.49916 9.66499 3.60595C10.1045 3.81939 10.7047 3.98339 11.3146 4.07644C11.9245 4.16949 12.5407 4.19107 13.0122 4.12177C13.2481 4.08709 13.4452 4.03001 13.5867 3.94965C13.6651 3.90514 13.7252 3.85432 13.7659 3.79708C13.7874 3.74463 13.8081 3.69196 13.8278 3.63905C13.8345 3.62126 13.8534 3.61128 13.8718 3.61588ZM13.6902 3.97241C13.6693 3.98719 13.647 4.00122 13.6235 4.01454C13.4707 4.10134 13.2634 4.16027 13.023 4.1956C12.5419 4.26632 11.9177 4.24394 11.3033 4.1502C10.6889 4.05647 10.0809 3.89086 9.6324 3.67307C9.40828 3.56424 9.22184 3.44135 9.09453 3.30612C9.00947 3.21576 8.94967 3.11856 8.92383 3.01563C8.92251 3.02324 8.9213 3.03112 8.92022 3.03928C8.91066 3.11152 8.91136 3.20145 8.9207 3.30622C8.93938 3.5157 8.99199 3.77854 9.05995 4.06596C9.1124 4.28782 9.1741 4.52459 9.23586 4.76157C9.3325 5.13241 9.42927 5.50376 9.49094 5.81925C9.5854 5.95027 9.78753 6.07046 10.0522 6.17122C10.3191 6.27282 10.6425 6.35206 10.9643 6.40334C11.2861 6.45462 11.6049 6.4777 11.8624 6.46769C11.9913 6.46268 12.1037 6.44942 12.193 6.42774C12.2799 6.40667 12.3403 6.37873 12.3741 6.34686C12.5413 5.99792 12.7544 5.64311 12.9717 5.28134C13.0209 5.19941 13.0703 5.11712 13.1195 5.03446C13.3252 4.68861 13.5266 4.33565 13.6902 3.97241Z" fill="#101010"/>
<path d="M13.8732 3.69258C13.8644 3.74609 13.84 3.79701 13.8 3.84429C13.76 3.89157 13.7054 3.93521 13.6353 3.9747C13.5656 4.01419 13.482 4.049 13.3848 4.07913C13.2882 4.10927 13.1791 4.13369 13.0585 4.15291C12.9385 4.17265 12.8086 4.18616 12.6694 4.19396C12.5296 4.20227 12.3842 4.20435 12.2314 4.20071C12.0787 4.19655 11.9217 4.1872 11.7617 4.17213C11.6017 4.15655 11.4406 4.13628 11.2785 4.10979C11.1169 4.08381 10.958 4.05263 10.801 4.01626C10.6441 3.9799 10.4924 3.93937 10.3464 3.89469C10.2004 3.85 10.0627 3.80168 9.93286 3.75025C9.80348 3.69881 9.6845 3.64478 9.57644 3.58814C9.46837 3.53151 9.37277 3.47384 9.29016 3.41461C9.20755 3.3559 9.13948 3.29615 9.08597 3.23692C9.03193 3.17717 8.99349 3.11846 8.97062 3.06079C8.94776 3.00312 8.94049 2.94752 8.94932 2.89401C8.95764 2.84049 8.98205 2.78958 9.02206 2.7423C9.06207 2.69501 9.11714 2.65137 9.18728 2.61188C9.2569 2.5724 9.34055 2.53759 9.43719 2.50745C9.53435 2.47784 9.64346 2.4529 9.76348 2.43367C9.88402 2.41393 10.0139 2.40042 10.1532 2.39263C10.2924 2.38432 10.4384 2.38224 10.5911 2.38587C10.7439 2.39003 10.9003 2.39938 11.0608 2.41445C11.2209 2.43004 11.3819 2.4503 11.5435 2.4768C11.7051 2.50278 11.8646 2.53447 12.0215 2.57032C12.1784 2.60669 12.3301 2.64722 12.4761 2.6919C12.6221 2.73658 12.7598 2.7849 12.8892 2.83634C13.0191 2.88777 13.138 2.94181 13.2461 2.99844C13.3542 3.05507 13.4498 3.11274 13.5324 3.17197C13.6145 3.23068 13.6831 3.29043 13.7366 3.34966C13.7906 3.40941 13.8291 3.46813 13.8519 3.5258C13.8748 3.58347 13.8821 3.63906 13.8732 3.69258Z" fill="#00BF63"/>
<path fill-rule="evenodd" clip-rule="evenodd" d="M11.5354 2.52598C11.3751 2.49969 11.2151 2.47956 11.0561 2.46406C10.8967 2.44911 10.7414 2.43982 10.5898 2.4357C10.4383 2.43209 10.2937 2.43416 10.1561 2.44238L10.1559 2.44239C10.0181 2.4501 9.89 2.46345 9.77149 2.48286L9.77131 2.48289C9.6533 2.50179 9.54649 2.52623 9.45182 2.55508C9.3577 2.58444 9.27755 2.61795 9.21179 2.65525L9.21165 2.65533C9.1453 2.69268 9.09529 2.73282 9.06 2.77452C9.02503 2.81585 9.00516 2.85851 8.99844 2.90174L8.99837 2.9022C8.99123 2.94545 8.99675 2.99188 9.01684 3.04255C9.03696 3.09332 9.07165 3.14706 9.12283 3.20365C9.1735 3.25973 9.23873 3.31715 9.31894 3.37416L9.31911 3.37428C9.39944 3.43187 9.49298 3.48836 9.59949 3.54418C9.7058 3.59989 9.82317 3.65321 9.95117 3.7041C10.0798 3.75503 10.2162 3.80291 10.361 3.84721C10.5058 3.89154 10.6564 3.93177 10.8122 3.9679C10.968 4.00401 11.1259 4.03496 11.2864 4.06076L11.2865 4.06079C11.4474 4.08708 11.6074 4.10721 11.7664 4.12271C11.9253 4.13766 12.081 4.14695 12.2326 4.15107C12.3842 4.15468 12.5282 4.15261 12.6664 4.14439L12.6666 4.14438C12.8044 4.13667 12.9325 4.12332 13.0504 4.10392L13.0507 4.10388C13.1694 4.08494 13.2761 4.061 13.37 4.03173C13.4646 4.00238 13.5449 3.96883 13.6107 3.93152L13.6108 3.93144C13.677 3.89417 13.7266 3.85406 13.762 3.81225C13.7969 3.77095 13.8169 3.72814 13.8241 3.68457C13.8312 3.64132 13.8257 3.59489 13.8056 3.54422C13.7855 3.49346 13.7508 3.43971 13.6997 3.38312C13.649 3.32711 13.5833 3.26966 13.5034 3.21253C13.4231 3.15494 13.3295 3.09841 13.223 3.04259C13.1167 2.98688 12.9993 2.93356 12.8708 2.88268C12.7428 2.83177 12.6063 2.78387 12.4615 2.73956C12.3167 2.69524 12.1661 2.65501 12.0103 2.61889C11.8544 2.58326 11.6959 2.55179 11.5356 2.52601L11.5354 2.52598ZM11.5514 2.42779C11.3887 2.4011 11.2265 2.38071 11.0656 2.36503L11.0654 2.36502C10.9038 2.34985 10.7463 2.34043 10.5925 2.33624L10.5923 2.33624C10.4384 2.33257 10.291 2.33466 10.1502 2.34306C10.0096 2.35093 9.878 2.3646 9.75549 2.38466C9.63356 2.4042 9.52223 2.42961 9.42265 2.45996L9.42235 2.46006C9.32328 2.49095 9.23621 2.52703 9.16278 2.56867C9.08888 2.61028 9.02876 2.65742 8.98405 2.71026C8.93906 2.76343 8.91011 2.82252 8.90017 2.88623C8.8897 2.94994 8.89874 3.01462 8.92435 3.07921C8.94994 3.14378 8.99214 3.20746 9.04902 3.27036C9.10536 3.33272 9.17625 3.3948 9.26122 3.45519C9.3461 3.51604 9.44373 3.57487 9.55331 3.6323C9.66313 3.68985 9.78371 3.74459 9.91444 3.79657C10.0456 3.84851 10.1846 3.89729 10.3318 3.94235C10.479 3.98739 10.6318 4.02821 10.7898 4.06482C10.9478 4.10144 11.1079 4.13283 11.2705 4.15898C11.4338 4.18567 11.5959 4.20606 11.7569 4.22174L11.757 4.22175C11.9182 4.23692 12.0762 4.24634 12.23 4.25053L12.2302 4.25053C12.3841 4.2542 12.5309 4.25211 12.6722 4.24371C12.8128 4.23584 12.9445 4.22217 13.0665 4.2021L13.0663 4.20213L13.0666 4.20209L13.0665 4.2021C13.1887 4.1826 13.3002 4.15771 13.3996 4.12673C13.4992 4.09583 13.5863 4.05975 13.6597 4.01811C13.7337 3.97641 13.7933 3.92925 13.8379 3.87651C13.883 3.82325 13.9118 3.76422 13.9223 3.70077C13.9328 3.63698 13.9238 3.57223 13.8981 3.50756C13.8725 3.44298 13.8303 3.3793 13.7734 3.31639C13.717 3.25396 13.6456 3.19191 13.5613 3.13164C13.4764 3.07077 13.3788 3.01192 13.2692 2.95447C13.1593 2.89692 13.0388 2.84217 12.9075 2.79018C12.7768 2.73823 12.6378 2.68948 12.4906 2.64442C12.3435 2.59938 12.1907 2.55856 12.0327 2.52195L12.0325 2.52192C11.8747 2.48586 11.7142 2.45396 11.5514 2.42779Z" fill="#101010"/>
<path fill-rule="evenodd" clip-rule="evenodd" d="M10.4099 2.57537C10.3467 2.61514 10.3127 2.66044 10.3042 2.70836C10.2956 2.75628 10.312 2.81053 10.3577 2.86964C10.4035 2.92875 10.4762 2.98931 10.5723 3.04716C10.7642 3.16271 11.0424 3.26327 11.3612 3.31984C11.68 3.37642 11.9758 3.37771 12.1958 3.33525C12.3059 3.314 12.3951 3.28216 12.4583 3.24239C12.5216 3.20262 12.5556 3.15732 12.5641 3.1094C12.5726 3.06147 12.5563 3.00723 12.5106 2.94812C12.4648 2.88901 12.3921 2.82845 12.296 2.7706C12.1041 2.65505 11.8259 2.55449 11.5071 2.49792C11.1883 2.44134 10.8925 2.44005 10.6725 2.48251C10.5624 2.50376 10.4732 2.5356 10.4099 2.57537ZM10.6584 2.40969C10.8894 2.36512 11.1946 2.36715 11.52 2.4249C11.8455 2.48264 12.1327 2.58575 12.3343 2.70707C12.4349 2.76766 12.5159 2.83384 12.5692 2.90274C12.6225 2.97165 12.6506 3.04671 12.6372 3.12235C12.6237 3.198 12.5716 3.25882 12.4978 3.30518C12.424 3.35153 12.3252 3.3858 12.2099 3.40806C11.9789 3.45264 11.6737 3.45061 11.3483 3.39286C11.0228 3.33512 10.7356 3.23201 10.534 3.11069C10.4334 3.0501 10.3524 2.98392 10.2991 2.91502C10.2458 2.84611 10.2177 2.77105 10.2311 2.69541C10.2446 2.61976 10.2967 2.55894 10.3705 2.51258C10.4443 2.46623 10.5431 2.43196 10.6584 2.40969Z" fill="#101010"/>
<path d="M10.2664 2.7439C10.2373 3.30762 12.4247 3.71288 12.5998 3.12266L12.4797 3.44479C12.2844 3.70717 10.5407 3.50921 10.3064 3.08681L10.2664 2.7439Z" fill="#00BF63"/>
<path fill-rule="evenodd" clip-rule="evenodd" d="M10.2652 2.70663C10.2846 2.706 10.3013 2.72033 10.3035 2.73959L10.3116 2.8092C10.3227 2.84622 10.3451 2.88366 10.3789 2.92132C10.4323 2.98076 10.5119 3.03809 10.6116 3.09096C10.8108 3.19663 11.083 3.28071 11.3629 3.32927C11.643 3.37783 11.9275 3.39028 12.1514 3.35492C12.2635 3.33723 12.3582 3.30789 12.4294 3.2667C12.4889 3.23223 12.5305 3.19036 12.5532 3.14094L12.5648 3.10965C12.5719 3.09081 12.5926 3.08092 12.6116 3.08729C12.6307 3.09367 12.6413 3.11401 12.6356 3.13329C12.6319 3.14582 12.6274 3.15792 12.6221 3.16958L12.5148 3.45783C12.5135 3.46114 12.5118 3.46426 12.5097 3.46709C12.4776 3.51017 12.4188 3.53858 12.3501 3.55799C12.2797 3.57786 12.1917 3.59025 12.093 3.59621C11.8953 3.60813 11.6491 3.59455 11.4025 3.55955C11.1559 3.52455 10.9071 3.46789 10.7045 3.39285C10.6031 3.35533 10.5124 3.31288 10.4389 3.26563C10.3659 3.21864 10.3073 3.16529 10.2738 3.10493C10.2715 3.10067 10.27 3.09599 10.2694 3.09115L10.2382 2.824C10.231 2.79744 10.2277 2.77007 10.2292 2.74199C10.2302 2.72263 10.2459 2.70725 10.2652 2.70663ZM10.3316 2.98005L10.3426 3.07487C10.3685 3.11806 10.4145 3.16118 10.4793 3.20287C10.5468 3.24627 10.6322 3.28653 10.7304 3.32288C10.9267 3.39555 11.1699 3.45118 11.413 3.48567C11.656 3.52017 11.897 3.53328 12.0885 3.52173C12.1843 3.51594 12.2665 3.50405 12.3298 3.48618C12.3911 3.46886 12.4288 3.44755 12.4469 3.42626L12.4868 3.31904C12.4803 3.32324 12.4736 3.32731 12.4668 3.33127C12.3849 3.37869 12.2803 3.41011 12.1631 3.42862C11.9285 3.46566 11.6353 3.45223 11.3502 3.40279C11.0651 3.35334 10.7849 3.26731 10.5767 3.15688C10.4772 3.10411 10.3924 3.04489 10.3316 2.98005Z" fill="#101010"/>
<path fill-rule="evenodd" clip-rule="evenodd" d="M11.8083 0.212261C11.8251 0.20538 11.8443 0.208206 11.8584 0.219636L12.311 0.585928C12.3286 0.600164 12.3343 0.624475 12.325 0.645097L12.1424 1.04933L12.841 1.16259C12.854 1.16471 12.8657 1.17191 12.8734 1.18263C12.8811 1.19335 12.8843 1.20669 12.8821 1.21973L12.7065 2.29626C12.7021 2.32336 12.6766 2.34176 12.6495 2.33738L12.1433 2.25557L12.1663 2.95998C12.1668 2.97485 12.1606 2.98916 12.1494 2.99898C12.1382 3.0088 12.1232 3.01311 12.1086 3.01072L10.6569 2.77484C10.642 2.77242 10.629 2.76334 10.6215 2.75017C10.6141 2.737 10.6131 2.72117 10.6187 2.70714L10.8828 2.05099L10.2885 1.95445C10.2616 1.95007 10.2432 1.92479 10.2473 1.8978L10.4125 0.819184C10.4145 0.806061 10.4217 0.794285 10.4325 0.786475C10.4432 0.778666 10.4566 0.77547 10.4697 0.777599L11.2769 0.908747L11.2646 0.469617C11.264 0.448912 11.2763 0.430012 11.2955 0.422165L11.8083 0.212261ZM11.8187 0.31553L11.365 0.501234L11.3781 0.966123C11.3785 0.980954 11.3723 0.995197 11.3611 1.00497C11.35 1.01474 11.335 1.01902 11.3204 1.01664L10.5033 0.883891L10.3532 1.86412L10.9602 1.96272C10.9751 1.96515 10.9881 1.97422 10.9955 1.98739C11.003 2.00056 11.004 2.0164 10.9984 2.03042L10.7343 2.68658L12.0648 2.90279L12.0419 2.19843C12.0414 2.18357 12.0476 2.16927 12.0587 2.15945C12.0699 2.14962 12.0849 2.14531 12.0995 2.14768L12.6163 2.2312L12.7759 1.25287L12.0623 1.13718C12.047 1.1347 12.0338 1.12525 12.0265 1.1116C12.0191 1.09796 12.0186 1.08168 12.0249 1.06757L12.2185 0.639123L11.8187 0.31553Z" fill="#101010"/>
<path d="M12.0703 1.08392L12.831 1.21277L12.9728 1.45437L12.2106 1.32656L12.0703 1.08392Z" fill="#00BF63"/>
<path fill-rule="evenodd" clip-rule="evenodd" d="M12.0295 1.05555C12.0405 1.03971 12.0596 1.03166 12.0786 1.03488L12.8393 1.16373C12.8538 1.16619 12.8664 1.17492 12.8739 1.1876L13.0157 1.4292C13.0255 1.44587 13.0248 1.4667 13.0138 1.48262C13.0028 1.49854 12.9836 1.50667 12.9646 1.50347L12.2024 1.37566C12.1877 1.3732 12.175 1.36434 12.1675 1.35149L12.0272 1.10885C12.0176 1.09216 12.0185 1.07139 12.0295 1.05555ZM12.1664 1.15069L12.242 1.28138L12.8759 1.38769L12.7998 1.25799L12.1664 1.15069Z" fill="#101010"/>
<path d="M10.4806 0.834473L10.6021 1.05581L10.4312 2.14325L10.3008 1.90893L10.4806 0.834473Z" fill="#00BF63"/>
<path fill-rule="evenodd" clip-rule="evenodd" d="M10.4721 0.785388C10.493 0.781838 10.5139 0.791913 10.5241 0.81049L10.6457 1.03182C10.651 1.04148 10.6529 1.05263 10.6512 1.06351L10.4803 2.15096C10.477 2.17193 10.4607 2.18851 10.4398 2.19222C10.4189 2.19594 10.3979 2.18598 10.3876 2.16743L10.2572 1.93311C10.2517 1.92325 10.2497 1.91182 10.2516 1.90069L10.4314 0.826237C10.4349 0.805333 10.4512 0.788937 10.4721 0.785388ZM10.5059 0.984088L10.3526 1.89993L10.4044 1.99286L10.5502 1.06484L10.5059 0.984088Z" fill="#101010"/>
<path d="M10.4742 0.830383L11.3217 0.969106L11.4671 1.20603L10.6119 1.06315L10.4742 0.830383Z" fill="#00BF63"/>
<path fill-rule="evenodd" clip-rule="evenodd" d="M10.4331 0.802268C10.444 0.786313 10.4632 0.778112 10.4822 0.781234L11.3296 0.919957C11.3439 0.922292 11.3565 0.930712 11.364 0.943028L11.5095 1.17995C11.5197 1.19657 11.5193 1.21762 11.5084 1.23379C11.4975 1.24997 11.4781 1.25829 11.4589 1.25507L10.6037 1.11219C10.5892 1.10977 10.5765 1.10108 10.5691 1.08844L10.4314 0.85568C10.4215 0.839047 10.4222 0.818223 10.4331 0.802268ZM10.5712 0.896656L10.6429 1.01784L11.3675 1.1389L11.2911 1.0145L10.5712 0.896656Z" fill="#101010"/>
<path d="M10.9527 2.01185L11.0915 2.25033L10.8036 2.96576L10.6696 2.71689L10.9527 2.01185Z" fill="#00BF63"/>
<path fill-rule="evenodd" clip-rule="evenodd" d="M10.9492 1.96224C10.9681 1.96086 10.9862 1.97041 10.9958 1.98685L11.1345 2.22533C11.1422 2.2386 11.1434 2.25468 11.1376 2.26892L10.8498 2.98436C10.8426 3.00227 10.8257 3.0144 10.8064 3.01547C10.7871 3.01655 10.769 3.00638 10.7598 2.98939L10.6258 2.74052C10.6188 2.72751 10.6179 2.71207 10.6234 2.69837L10.9066 1.99332C10.9137 1.97568 10.9302 1.96361 10.9492 1.96224ZM10.961 2.12495L10.7245 2.71384L10.7971 2.84871L11.0362 2.25434L10.961 2.12495Z" fill="#101010"/>
<path d="M11.3159 0.476562L11.4546 0.710886L11.4656 1.20707L11.3268 0.971706L11.3159 0.476562Z" fill="#00BF63"/>
<path fill-rule="evenodd" clip-rule="evenodd" d="M11.3023 0.428677C11.324 0.422462 11.3472 0.431705 11.3588 0.451175L11.4975 0.685498C11.5018 0.692854 11.5042 0.701209 11.5044 0.709755L11.5153 1.20594C11.5158 1.22858 11.501 1.2487 11.4792 1.2549C11.4574 1.26109 11.4342 1.25181 11.4227 1.2323L11.284 0.996939C11.2797 0.989603 11.2773 0.98128 11.2771 0.972767L11.2662 0.477623C11.2657 0.455002 11.2805 0.434893 11.3023 0.428677ZM11.3699 0.665316L11.3763 0.95759L11.4116 1.01751L11.4052 0.72498L11.3699 0.665316Z" fill="#101010"/>
<path d="M11.3128 0.469284L11.8277 0.258341L11.9617 0.49734L11.4572 0.705685L11.3128 0.469284Z" fill="#00BF63"/>
<path fill-rule="evenodd" clip-rule="evenodd" d="M11.8089 0.212256C11.8321 0.202727 11.8588 0.212039 11.8711 0.233962L12.0052 0.472961C12.0122 0.485373 12.0135 0.500173 12.0088 0.513618C12.0041 0.527063 11.9939 0.537867 11.9808 0.5433L11.4763 0.751645C11.4537 0.76099 11.4276 0.752487 11.4148 0.731594L11.2704 0.495193C11.2628 0.482751 11.261 0.467602 11.2656 0.453747C11.2701 0.439892 11.2805 0.428726 11.294 0.423199L11.8089 0.212256ZM11.3858 0.493151L11.4776 0.643425L11.8909 0.472721L11.8059 0.321042L11.3858 0.493151Z" fill="#101010"/>
<path d="M10.6005 1.06677L11.4671 1.20705L11.4531 0.707748L11.9659 0.497844L12.4184 0.864136L12.2091 1.32759L12.9718 1.45124L12.7956 2.5283L12.2304 2.43633L12.2553 3.20113L10.8036 2.96577L11.091 2.25137L10.4353 2.14538L10.6005 1.06677Z" fill="#00BF63"/>
<path fill-rule="evenodd" clip-rule="evenodd" d="M11.9471 0.45175C11.9639 0.444868 11.9831 0.447695 11.9972 0.459124L12.4498 0.825416C12.4673 0.839653 12.4731 0.863964 12.4638 0.884586L12.2812 1.28882L12.9798 1.40208C12.9928 1.4042 13.0045 1.41141 13.0122 1.42213C13.0199 1.43285 13.023 1.4462 13.0209 1.45923L12.8448 2.53629C12.8403 2.5634 12.8148 2.58179 12.7877 2.57738L12.2821 2.49513L12.305 3.19947C12.3055 3.21434 12.2993 3.22864 12.2882 3.23846C12.277 3.24828 12.262 3.2526 12.2473 3.25021L10.7957 3.01485C10.7808 3.01243 10.7677 3.00336 10.7603 2.99019C10.7529 2.97702 10.7518 2.96119 10.7575 2.94716L11.0216 2.29052L10.4273 2.19447C10.4004 2.19011 10.382 2.16481 10.3861 2.13781L10.5513 1.05919C10.5533 1.04607 10.5605 1.0343 10.5712 1.02649C10.5819 1.01868 10.5954 1.01548 10.6085 1.0176L11.4157 1.14827L11.4034 0.709106C11.4028 0.688401 11.4151 0.6695 11.4343 0.661654L11.9471 0.45175ZM11.9575 0.555019L11.5038 0.740723L11.5169 1.20561C11.5173 1.22044 11.5111 1.23468 11.4999 1.24445C11.4888 1.25422 11.4738 1.2585 11.4592 1.25613L10.6421 1.12387L10.4919 2.10409L11.0989 2.20221C11.1138 2.20462 11.1269 2.21369 11.1343 2.22686C11.1417 2.24003 11.1428 2.25587 11.1371 2.2699L10.873 2.92657L12.2036 3.1423L12.1806 2.43792C12.1801 2.42305 12.1863 2.40874 12.1975 2.39892C12.2087 2.3891 12.2237 2.38479 12.2384 2.38718L12.7546 2.47116L12.9146 1.49235L12.2011 1.37667C12.1858 1.37419 12.1726 1.36474 12.1652 1.35109C12.1579 1.33745 12.1573 1.32117 12.1637 1.30706L12.3573 0.878612L11.9575 0.555019Z" fill="#101010"/>
<path d="M11.8298 0.260376L12.2787 0.621472L12.4143 0.859432L11.9628 0.500414L11.8298 0.260376Z" fill="#00BF63"/>
<path fill-rule="evenodd" clip-rule="evenodd" d="M11.7968 0.22124C11.8155 0.205469 11.8428 0.205165 11.8619 0.220515L12.3108 0.581611C12.3158 0.585641 12.32 0.590578 12.3232 0.596164L12.4588 0.834124C12.471 0.855455 12.4663 0.882411 12.4476 0.898387C12.429 0.914362 12.4016 0.914864 12.3824 0.899584L11.9309 0.540566C11.9256 0.536375 11.9212 0.531187 11.918 0.525298L11.785 0.28526C11.7731 0.263838 11.7781 0.237011 11.7968 0.22124ZM12.0012 0.464039L12.0027 0.46672L12.1636 0.594731L12.0012 0.464039Z" fill="#101010"/>
</g>
</svg>
